G04 Layer_Physical_Order=1*
G04 Layer_Color=255*
%FSLAX43Y43*%
%MOMM*%
G71*
G01*
G75*
%ADD10C,0.180*%
%ADD11C,0.175*%
%ADD12R,1.400X1.150*%
%ADD13R,0.900X0.600*%
%ADD14R,0.600X0.500*%
%ADD15R,0.600X0.550*%
%ADD16R,0.500X0.650*%
%ADD17R,0.650X0.800*%
%ADD18R,1.200X1.200*%
%ADD19R,1.200X1.200*%
%ADD20R,0.650X0.500*%
%ADD21R,0.800X0.650*%
%ADD22R,0.762X0.762*%
%ADD23R,0.500X0.600*%
%ADD24R,0.700X0.700*%
%ADD25R,0.550X0.600*%
%ADD26R,1.100X0.600*%
%ADD27R,1.100X1.000*%
%ADD28R,5.100X5.100*%
%ADD29O,0.700X0.300*%
%ADD30O,0.300X0.700*%
%ADD31R,1.000X1.600*%
%ADD32R,3.000X2.500*%
%ADD33R,0.400X1.350*%
%ADD34R,0.700X0.300*%
%ADD35R,1.400X1.600*%
%ADD36R,1.000X2.250*%
%ADD37C,0.200*%
%ADD38C,0.125*%
%ADD39C,0.300*%
%ADD40C,0.254*%
%ADD41R,1.800X1.900*%
%ADD42C,1.700*%
%ADD43R,1.700X1.700*%
%ADD44C,3.600*%
%ADD45R,1.700X1.700*%
G04:AMPARAMS|DCode=46|XSize=2.1mm|YSize=1.9mm|CornerRadius=0.494mm|HoleSize=0mm|Usage=FLASHONLY|Rotation=0.000|XOffset=0mm|YOffset=0mm|HoleType=Round|Shape=RoundedRectangle|*
%AMROUNDEDRECTD46*
21,1,2.100,0.912,0,0,0.0*
21,1,1.112,1.900,0,0,0.0*
1,1,0.988,0.556,-0.456*
1,1,0.988,-0.556,-0.456*
1,1,0.988,-0.556,0.456*
1,1,0.988,0.556,0.456*
%
%ADD46ROUNDEDRECTD46*%
G04:AMPARAMS|DCode=47|XSize=1.05mm|YSize=1.25mm|CornerRadius=0.525mm|HoleSize=0mm|Usage=FLASHONLY|Rotation=180.000|XOffset=0mm|YOffset=0mm|HoleType=Round|Shape=RoundedRectangle|*
%AMROUNDEDRECTD47*
21,1,1.050,0.200,0,0,180.0*
21,1,0.000,1.250,0,0,180.0*
1,1,1.050,0.000,0.100*
1,1,1.050,0.000,0.100*
1,1,1.050,0.000,-0.100*
1,1,1.050,0.000,-0.100*
%
%ADD47ROUNDEDRECTD47*%
%ADD48C,1.050*%
%ADD49C,0.550*%
%ADD50C,0.400*%
G36*
X-11368Y-12020D02*
X-11384Y-12100D01*
X-11347Y-12285D01*
X-11257Y-12421D01*
Y-12802D01*
X-13810Y-15356D01*
X-13815Y-15353D01*
X-14000Y-15316D01*
X-14185Y-15353D01*
X-14342Y-15458D01*
X-14447Y-15615D01*
X-14484Y-15800D01*
X-14453Y-15957D01*
X-14533Y-16107D01*
X-15100D01*
X-15133Y-16058D01*
X-15290Y-15953D01*
X-15299Y-15951D01*
X-15348Y-15788D01*
X-12693Y-13132D01*
X-12629Y-13037D01*
X-12607Y-12925D01*
Y-12500D01*
X-12558Y-12467D01*
X-12525Y-12418D01*
X-12100D01*
X-11988Y-12396D01*
X-11893Y-12332D01*
X-11507Y-11946D01*
X-11368Y-12020D01*
D02*
G37*
G36*
X-38727Y-51841D02*
X-38809Y-51982D01*
X-38890Y-51971D01*
X-39164Y-52007D01*
X-39420Y-52113D01*
X-39639Y-52281D01*
X-39807Y-52500D01*
X-39913Y-52756D01*
X-39949Y-53030D01*
X-39913Y-53304D01*
X-39815Y-53541D01*
X-40357Y-54083D01*
X-40421Y-54178D01*
X-40443Y-54290D01*
Y-54885D01*
X-40593Y-54936D01*
X-40681Y-54821D01*
X-40900Y-54653D01*
X-41156Y-54547D01*
X-41430Y-54511D01*
X-41704Y-54547D01*
X-41960Y-54653D01*
X-42179Y-54821D01*
X-42347Y-55040D01*
X-42453Y-55296D01*
X-42489Y-55570D01*
X-42453Y-55844D01*
X-42347Y-56100D01*
X-42179Y-56319D01*
X-41960Y-56487D01*
X-41704Y-56593D01*
X-41430Y-56629D01*
X-41179Y-56596D01*
X-41136Y-56644D01*
X-41102Y-56732D01*
X-42177Y-57807D01*
X-44480D01*
X-44542Y-57657D01*
X-43018Y-56132D01*
X-42954Y-56037D01*
X-42932Y-55925D01*
Y-52546D01*
X-42154Y-51768D01*
X-38783D01*
X-38727Y-51841D01*
D02*
G37*
G36*
X-17283Y-52243D02*
X-17297Y-52265D01*
X-17334Y-52450D01*
X-17297Y-52635D01*
X-17192Y-52792D01*
X-17143Y-52825D01*
Y-56504D01*
X-18346Y-57707D01*
X-28604D01*
X-29707Y-56604D01*
Y-56268D01*
X-29557Y-56217D01*
X-29479Y-56319D01*
X-29260Y-56487D01*
X-29004Y-56593D01*
X-28730Y-56629D01*
X-28456Y-56593D01*
X-28200Y-56487D01*
X-27981Y-56319D01*
X-27813Y-56100D01*
X-27707Y-55844D01*
X-27671Y-55570D01*
X-27707Y-55296D01*
X-27813Y-55040D01*
X-27981Y-54821D01*
X-28200Y-54653D01*
X-28456Y-54547D01*
X-28730Y-54511D01*
X-29004Y-54547D01*
X-29260Y-54653D01*
X-29479Y-54821D01*
X-29557Y-54923D01*
X-29707Y-54872D01*
Y-54421D01*
X-29240Y-53955D01*
X-29004Y-54053D01*
X-28730Y-54089D01*
X-28456Y-54053D01*
X-28200Y-53947D01*
X-27981Y-53779D01*
X-27813Y-53560D01*
X-27707Y-53304D01*
X-27671Y-53030D01*
X-27707Y-52756D01*
X-27813Y-52500D01*
X-27981Y-52281D01*
X-28031Y-52243D01*
X-27980Y-52093D01*
X-26940D01*
X-26889Y-52243D01*
X-26939Y-52281D01*
X-27107Y-52500D01*
X-27213Y-52756D01*
X-27249Y-53030D01*
X-27213Y-53304D01*
X-27107Y-53560D01*
X-26939Y-53779D01*
X-26720Y-53947D01*
X-26464Y-54053D01*
X-26190Y-54089D01*
X-25916Y-54053D01*
X-25660Y-53947D01*
X-25441Y-53779D01*
X-25273Y-53560D01*
X-25167Y-53304D01*
X-25131Y-53030D01*
X-25167Y-52756D01*
X-25273Y-52500D01*
X-25441Y-52281D01*
X-25491Y-52243D01*
X-25440Y-52093D01*
X-24400D01*
X-24349Y-52243D01*
X-24399Y-52281D01*
X-24567Y-52500D01*
X-24673Y-52756D01*
X-24709Y-53030D01*
X-24673Y-53304D01*
X-24567Y-53560D01*
X-24399Y-53779D01*
X-24180Y-53947D01*
X-23924Y-54053D01*
X-23650Y-54089D01*
X-23376Y-54053D01*
X-23120Y-53947D01*
X-22901Y-53779D01*
X-22733Y-53560D01*
X-22627Y-53304D01*
X-22591Y-53030D01*
X-22627Y-52756D01*
X-22733Y-52500D01*
X-22901Y-52281D01*
X-22951Y-52243D01*
X-22900Y-52093D01*
X-21860D01*
X-21809Y-52243D01*
X-21859Y-52281D01*
X-22027Y-52500D01*
X-22133Y-52756D01*
X-22169Y-53030D01*
X-22133Y-53304D01*
X-22027Y-53560D01*
X-21859Y-53779D01*
X-21640Y-53947D01*
X-21384Y-54053D01*
X-21110Y-54089D01*
X-20836Y-54053D01*
X-20580Y-53947D01*
X-20361Y-53779D01*
X-20193Y-53560D01*
X-20087Y-53304D01*
X-20051Y-53030D01*
X-20087Y-52756D01*
X-20193Y-52500D01*
X-20361Y-52281D01*
X-20411Y-52243D01*
X-20360Y-52093D01*
X-19620D01*
Y-54080D01*
X-17520D01*
Y-52093D01*
X-17363D01*
X-17283Y-52243D01*
D02*
G37*
G36*
X-15924Y-16576D02*
X-15922Y-16585D01*
X-15817Y-16742D01*
X-15660Y-16847D01*
X-15475Y-16884D01*
X-15290Y-16847D01*
X-15133Y-16742D01*
X-15100Y-16693D01*
X-13625D01*
X-13619Y-16692D01*
X-13545Y-16830D01*
X-14357Y-17643D01*
X-14421Y-17738D01*
X-14443Y-17850D01*
Y-24050D01*
X-14492Y-24083D01*
X-14597Y-24240D01*
X-14603Y-24270D01*
X-14766Y-24319D01*
X-17719Y-21366D01*
Y-20688D01*
X-17742Y-20575D01*
X-17805Y-20480D01*
X-19236Y-19050D01*
X-19212Y-18932D01*
X-19184Y-18889D01*
X-19029Y-18771D01*
X-18901Y-18603D01*
X-18821Y-18409D01*
X-18793Y-18200D01*
X-18801Y-18142D01*
X-18697Y-18099D01*
X-18529Y-17971D01*
X-18401Y-17803D01*
X-18321Y-17609D01*
X-18293Y-17400D01*
X-18309Y-17280D01*
X-17978Y-16949D01*
X-17965Y-16957D01*
X-17780Y-16994D01*
X-17595Y-16957D01*
X-17438Y-16852D01*
X-17405Y-16803D01*
X-16485D01*
X-16373Y-16781D01*
X-16278Y-16717D01*
X-16087Y-16527D01*
X-15924Y-16576D01*
D02*
G37*
G36*
X-21493Y-13742D02*
Y-18046D01*
X-21632Y-18104D01*
X-23119Y-16617D01*
X-23148Y-16469D01*
X-23237Y-16337D01*
X-23369Y-16248D01*
X-23525Y-16217D01*
X-23681Y-16248D01*
X-23813Y-16337D01*
X-23902Y-16469D01*
X-23933Y-16625D01*
X-23902Y-16781D01*
X-23813Y-16913D01*
Y-16962D01*
X-23902Y-17094D01*
X-23933Y-17250D01*
X-23902Y-17406D01*
X-23813Y-17538D01*
X-23681Y-17627D01*
X-23533Y-17656D01*
X-21968Y-19221D01*
Y-19971D01*
X-22107Y-20029D01*
X-23319Y-18817D01*
X-23348Y-18669D01*
X-23437Y-18537D01*
X-23569Y-18448D01*
X-23725Y-18417D01*
X-23881Y-18448D01*
X-24013Y-18537D01*
X-24102Y-18669D01*
X-24133Y-18825D01*
X-24102Y-18981D01*
X-24068Y-19032D01*
X-24148Y-19182D01*
X-24744D01*
X-24869Y-19098D01*
X-25025Y-19067D01*
X-25181Y-19098D01*
X-25313Y-19187D01*
X-25402Y-19319D01*
X-25433Y-19475D01*
X-25402Y-19631D01*
X-25384Y-19658D01*
X-25492Y-19766D01*
X-25519Y-19748D01*
X-25675Y-19717D01*
X-25831Y-19748D01*
X-25889Y-19787D01*
X-25903Y-19792D01*
X-25979Y-19747D01*
X-26001Y-19565D01*
X-25017Y-18581D01*
X-24869Y-18552D01*
X-24737Y-18463D01*
X-24648Y-18331D01*
X-24617Y-18175D01*
X-24648Y-18019D01*
X-24737Y-17887D01*
X-24869Y-17798D01*
X-25025Y-17767D01*
X-25181Y-17798D01*
X-25239Y-17837D01*
X-25350Y-17874D01*
X-25461Y-17837D01*
X-25519Y-17798D01*
X-25675Y-17767D01*
X-25831Y-17798D01*
X-25963Y-17887D01*
X-26052Y-18019D01*
X-26081Y-18167D01*
X-28732Y-20817D01*
X-28882Y-20755D01*
Y-20421D01*
X-23133Y-14673D01*
X-23075Y-14684D01*
X-22890Y-14647D01*
X-22733Y-14542D01*
X-22628Y-14385D01*
X-22591Y-14200D01*
X-22628Y-14015D01*
X-22709Y-13893D01*
X-22665Y-13771D01*
X-22642Y-13743D01*
X-22425D01*
X-22392Y-13792D01*
X-22235Y-13897D01*
X-22050Y-13934D01*
X-21865Y-13897D01*
X-21708Y-13792D01*
X-21643Y-13696D01*
X-21493Y-13742D01*
D02*
G37*
G36*
X-7832Y-45908D02*
X-7887Y-45980D01*
X-7993Y-46236D01*
X-8029Y-46510D01*
X-7993Y-46784D01*
X-7887Y-47040D01*
X-7719Y-47259D01*
X-7586Y-47361D01*
X-7623Y-47521D01*
X-7662Y-47529D01*
X-7757Y-47593D01*
X-9932Y-49768D01*
X-9996Y-49863D01*
X-10018Y-49975D01*
Y-54504D01*
X-13721Y-58207D01*
X-17821D01*
X-17879Y-58068D01*
X-16643Y-56832D01*
X-16579Y-56737D01*
X-16557Y-56625D01*
Y-52825D01*
X-16508Y-52792D01*
X-16403Y-52635D01*
X-16366Y-52450D01*
X-16371Y-52423D01*
X-16300Y-52284D01*
X-16259Y-52276D01*
X-16115Y-52247D01*
X-15958Y-52142D01*
X-15853Y-51985D01*
X-15816Y-51800D01*
X-15829Y-51731D01*
X-15709Y-51581D01*
X-14688D01*
X-14575Y-51558D01*
X-14480Y-51495D01*
X-13808Y-50823D01*
X-13750Y-50834D01*
X-13565Y-50797D01*
X-13408Y-50692D01*
X-13303Y-50535D01*
X-13266Y-50350D01*
X-13303Y-50165D01*
X-13408Y-50008D01*
X-13565Y-49903D01*
X-13750Y-49866D01*
X-13935Y-49903D01*
X-14092Y-50008D01*
X-14197Y-50165D01*
X-14234Y-50350D01*
X-14223Y-50408D01*
X-14809Y-50994D01*
X-15984D01*
X-16041Y-50856D01*
X-15733Y-50548D01*
X-15675Y-50559D01*
X-15490Y-50522D01*
X-15333Y-50417D01*
X-15228Y-50260D01*
X-15191Y-50075D01*
X-15228Y-49890D01*
X-15333Y-49733D01*
X-15410Y-49681D01*
X-15365Y-49531D01*
X-15175D01*
X-15142Y-49580D01*
X-14985Y-49685D01*
X-14800Y-49722D01*
X-14615Y-49685D01*
X-14458Y-49580D01*
X-14353Y-49423D01*
X-14316Y-49237D01*
X-14353Y-49052D01*
X-14458Y-48895D01*
X-14615Y-48790D01*
X-14664Y-48780D01*
X-14669Y-48767D01*
X-14680Y-48624D01*
X-14558Y-48542D01*
X-14453Y-48385D01*
X-14416Y-48200D01*
X-14453Y-48015D01*
X-14558Y-47858D01*
X-14715Y-47753D01*
X-14900Y-47716D01*
X-15085Y-47753D01*
X-15242Y-47858D01*
X-15275Y-47907D01*
X-16700D01*
X-16812Y-47929D01*
X-16907Y-47993D01*
X-17921Y-49007D01*
X-25606D01*
X-25647Y-48902D01*
X-25647Y-48857D01*
X-25441Y-48699D01*
X-25273Y-48480D01*
X-25167Y-48224D01*
X-25131Y-47950D01*
X-25167Y-47676D01*
X-25273Y-47420D01*
X-25441Y-47201D01*
X-25660Y-47033D01*
X-25916Y-46927D01*
X-26190Y-46891D01*
X-26464Y-46927D01*
X-26720Y-47033D01*
X-26939Y-47201D01*
X-27107Y-47420D01*
X-27213Y-47676D01*
X-27249Y-47950D01*
X-27213Y-48224D01*
X-27107Y-48480D01*
X-26939Y-48699D01*
X-26733Y-48857D01*
X-26733Y-48902D01*
X-26774Y-49007D01*
X-28146D01*
X-28187Y-48902D01*
X-28187Y-48857D01*
X-27981Y-48699D01*
X-27813Y-48480D01*
X-27707Y-48224D01*
X-27671Y-47950D01*
X-27707Y-47676D01*
X-27813Y-47420D01*
X-27981Y-47201D01*
X-28200Y-47033D01*
X-28456Y-46927D01*
X-28730Y-46891D01*
X-29004Y-46927D01*
X-29260Y-47033D01*
X-29479Y-47201D01*
X-29647Y-47420D01*
X-29753Y-47676D01*
X-29789Y-47950D01*
X-29753Y-48224D01*
X-29647Y-48480D01*
X-29479Y-48699D01*
X-29273Y-48857D01*
X-29273Y-48902D01*
X-29314Y-49007D01*
X-30686D01*
X-30727Y-48902D01*
X-30727Y-48857D01*
X-30521Y-48699D01*
X-30353Y-48480D01*
X-30247Y-48224D01*
X-30211Y-47950D01*
X-30247Y-47676D01*
X-30353Y-47420D01*
X-30521Y-47201D01*
X-30597Y-47143D01*
X-30546Y-46993D01*
X-30020D01*
X-29908Y-46971D01*
X-29813Y-46907D01*
X-29240Y-46335D01*
X-29004Y-46433D01*
X-28730Y-46469D01*
X-28456Y-46433D01*
X-28200Y-46327D01*
X-27981Y-46159D01*
X-27813Y-45940D01*
X-27707Y-45684D01*
X-27671Y-45410D01*
X-27707Y-45136D01*
X-27813Y-44880D01*
X-27981Y-44661D01*
X-28200Y-44493D01*
X-28437Y-44395D01*
Y-44251D01*
X-27958Y-43773D01*
X-27900Y-43784D01*
X-27715Y-43747D01*
X-27558Y-43642D01*
X-27453Y-43485D01*
X-27416Y-43300D01*
X-27453Y-43115D01*
X-27558Y-42958D01*
X-27715Y-42853D01*
X-27724Y-42851D01*
X-27773Y-42688D01*
X-26622Y-41536D01*
X-26483Y-41594D01*
Y-44360D01*
X-27240D01*
Y-46460D01*
X-25140D01*
Y-44360D01*
X-25897D01*
Y-43306D01*
X-25747Y-43260D01*
X-25732Y-43282D01*
X-24773Y-44242D01*
X-24784Y-44300D01*
X-24747Y-44485D01*
X-24642Y-44642D01*
X-24485Y-44747D01*
X-24300Y-44784D01*
X-24115Y-44747D01*
X-23958Y-44642D01*
X-23853Y-44485D01*
X-23816Y-44300D01*
X-23853Y-44115D01*
X-23958Y-43958D01*
X-24115Y-43853D01*
X-24300Y-43816D01*
X-24358Y-43827D01*
X-25232Y-42954D01*
Y-40406D01*
X-25149Y-40337D01*
X-25052Y-40362D01*
X-25000Y-40392D01*
Y-41425D01*
X-24768D01*
Y-41625D01*
X-24746Y-41737D01*
X-24682Y-41832D01*
X-21132Y-45382D01*
X-21037Y-45446D01*
X-20925Y-45468D01*
X-16950D01*
X-16917Y-45517D01*
X-16760Y-45622D01*
X-16575Y-45659D01*
X-16390Y-45622D01*
X-16233Y-45517D01*
X-16128Y-45360D01*
X-16091Y-45175D01*
X-16128Y-44990D01*
X-16233Y-44833D01*
X-16390Y-44728D01*
X-16575Y-44691D01*
X-16760Y-44728D01*
X-16917Y-44833D01*
X-16950Y-44882D01*
X-20804D01*
X-24110Y-41575D01*
X-24048Y-41425D01*
X-23950D01*
Y-40375D01*
X-23950Y-40225D01*
X-23950Y-40075D01*
Y-39918D01*
X-23775D01*
Y-41025D01*
X-23215D01*
X-22907Y-41332D01*
X-22812Y-41396D01*
X-22700Y-41418D01*
Y-42125D01*
X-21300D01*
Y-40125D01*
X-21240Y-40000D01*
X-21000D01*
Y-39500D01*
X-20800D01*
Y-40000D01*
X-20250D01*
Y-40000D01*
X-20160D01*
X-20100Y-40140D01*
Y-42125D01*
X-18700D01*
Y-40125D01*
X-18640Y-40000D01*
X-18475D01*
Y-39500D01*
Y-39000D01*
X-19213D01*
X-19268Y-38918D01*
X-20250Y-37935D01*
Y-37293D01*
X-17875D01*
X-17842Y-37342D01*
X-17685Y-37447D01*
X-17500Y-37484D01*
X-17315Y-37447D01*
X-17158Y-37342D01*
X-17053Y-37185D01*
X-17016Y-37000D01*
X-17032Y-36920D01*
X-16893Y-36846D01*
X-7832Y-45908D01*
D02*
G37*
G36*
X-22499Y-35558D02*
X-22387Y-35581D01*
X-22207D01*
X-21300Y-36488D01*
Y-37075D01*
X-21300Y-37225D01*
X-21300D01*
Y-37225D01*
X-21300D01*
Y-37935D01*
X-21796Y-38432D01*
X-22513D01*
X-22650Y-38400D01*
X-22650Y-38218D01*
X-22575Y-38143D01*
X-22463Y-38121D01*
X-22368Y-38057D01*
X-22333Y-38023D01*
X-22275Y-38034D01*
X-22090Y-37997D01*
X-21933Y-37892D01*
X-21828Y-37735D01*
X-21791Y-37550D01*
X-21828Y-37365D01*
X-21933Y-37208D01*
X-22090Y-37103D01*
X-22275Y-37066D01*
X-22460Y-37103D01*
X-22550Y-37162D01*
X-22700Y-37082D01*
Y-36800D01*
X-23350D01*
Y-36600D01*
X-22700D01*
Y-36200D01*
X-22700D01*
X-22700Y-36100D01*
X-22700D01*
X-22700Y-36050D01*
Y-35586D01*
X-22550Y-35525D01*
X-22499Y-35558D01*
D02*
G37*
G36*
X-21248Y-737D02*
X-20935Y-866D01*
X-20599Y-911D01*
X-20591Y-910D01*
X-20484Y-1036D01*
X-20483Y-1047D01*
X-20489Y-1092D01*
X-20497Y-1134D01*
X-20497Y-1145D01*
X-20499Y-1155D01*
X-20502Y-1186D01*
X-20506Y-1219D01*
Y-2131D01*
X-20501Y-2166D01*
X-20499Y-2193D01*
X-20497Y-2201D01*
X-20497Y-2209D01*
X-20490Y-2254D01*
X-20489Y-2258D01*
X-20482Y-2312D01*
X-20464Y-2356D01*
X-20452Y-2389D01*
X-20448Y-2394D01*
X-20446Y-2398D01*
X-20445Y-2404D01*
X-20438Y-2418D01*
X-20412Y-2481D01*
X-20301Y-2626D01*
X-20156Y-2737D01*
X-20090Y-2764D01*
X-20085Y-2767D01*
X-20082Y-2768D01*
X-20071Y-2773D01*
X-20068Y-2774D01*
X-20056Y-2779D01*
X-19987Y-2807D01*
X-19933Y-2814D01*
X-19928Y-2816D01*
X-19875Y-2823D01*
X-19870Y-2823D01*
X-19865Y-2824D01*
X-19844Y-2826D01*
X-19806Y-2831D01*
X-19350D01*
Y-3650D01*
X-18182D01*
Y-4063D01*
X-18191Y-4067D01*
X-18342Y-4183D01*
X-18458Y-4334D01*
X-18531Y-4511D01*
X-18556Y-4700D01*
Y-4900D01*
X-18531Y-5089D01*
X-18458Y-5266D01*
X-18342Y-5417D01*
X-18191Y-5533D01*
X-18182Y-5537D01*
Y-5900D01*
X-19200D01*
Y-6900D01*
X-19200D01*
Y-6900D01*
X-19200D01*
Y-7300D01*
X-18725D01*
Y-7400D01*
X-18625D01*
Y-7900D01*
X-18275D01*
Y-7900D01*
X-17925D01*
Y-7375D01*
X-17825D01*
Y-7275D01*
X-17375D01*
Y-6950D01*
Y-5900D01*
X-17468D01*
Y-5537D01*
X-17459Y-5533D01*
X-17308Y-5417D01*
X-17256Y-5350D01*
X-17000D01*
Y-4475D01*
X-16800D01*
Y-5350D01*
X-16400D01*
Y-5750D01*
X-16161D01*
Y-6900D01*
X-16216D01*
Y-7600D01*
X-16316D01*
Y-7700D01*
X-17066D01*
Y-8300D01*
X-17175Y-8400D01*
X-17466D01*
Y-10200D01*
X-16161D01*
Y-12627D01*
X-19768Y-16234D01*
X-19907Y-16177D01*
Y-13921D01*
X-19658Y-13673D01*
X-19600Y-13684D01*
X-19415Y-13647D01*
X-19258Y-13542D01*
X-19153Y-13385D01*
X-19116Y-13200D01*
X-19153Y-13015D01*
X-19258Y-12858D01*
X-19415Y-12753D01*
X-19495Y-12736D01*
Y-12584D01*
X-19440Y-12572D01*
X-19283Y-12467D01*
X-19178Y-12310D01*
X-19141Y-12125D01*
X-19178Y-11940D01*
X-19283Y-11783D01*
X-19319Y-11758D01*
Y-10986D01*
X-19319Y-10986D01*
X-19342Y-10869D01*
X-19409Y-10769D01*
X-20311Y-9867D01*
Y-9325D01*
X-21311D01*
Y-9325D01*
X-21461Y-9325D01*
X-22311D01*
Y-9507D01*
X-22600D01*
Y-9325D01*
X-23600D01*
X-23707Y-9221D01*
Y-8975D01*
X-23300D01*
Y-6325D01*
X-23707D01*
Y-3475D01*
X-23300D01*
Y-825D01*
X-24700D01*
Y-912D01*
X-24850Y-1031D01*
X-24925Y-1016D01*
X-25110Y-1053D01*
X-25267Y-1158D01*
X-25372Y-1315D01*
X-25409Y-1500D01*
X-25372Y-1685D01*
X-25267Y-1842D01*
X-25110Y-1947D01*
X-24925Y-1984D01*
X-24850Y-1969D01*
X-24700Y-2088D01*
Y-3475D01*
X-24293D01*
Y-6325D01*
X-24700D01*
Y-8975D01*
X-24293D01*
Y-9325D01*
X-24600D01*
Y-10225D01*
X-24600D01*
Y-10575D01*
X-24075D01*
Y-10675D01*
X-23975D01*
Y-11125D01*
X-22600D01*
Y-10093D01*
X-22311D01*
Y-10275D01*
X-21750D01*
X-21493Y-10532D01*
Y-13158D01*
X-21643Y-13204D01*
X-21708Y-13108D01*
X-21865Y-13003D01*
X-22050Y-12966D01*
X-22235Y-13003D01*
X-22392Y-13108D01*
X-22425Y-13157D01*
X-24875D01*
Y-11075D01*
X-26975D01*
Y-13157D01*
X-27675D01*
X-27787Y-13179D01*
X-27882Y-13243D01*
X-28946Y-14307D01*
X-30896D01*
X-30954Y-14168D01*
X-29943Y-13157D01*
X-29879Y-13062D01*
X-29857Y-12950D01*
Y-11025D01*
X-29808Y-10992D01*
X-29703Y-10835D01*
X-29666Y-10650D01*
X-29701Y-10475D01*
X-29700Y-10457D01*
X-29650Y-10325D01*
X-29650Y-10325D01*
X-29650Y-10325D01*
Y-9375D01*
X-30500D01*
X-30650Y-9375D01*
X-30694Y-9243D01*
Y-8975D01*
X-30300D01*
Y-6325D01*
X-30694D01*
Y-3475D01*
X-30300D01*
Y-2113D01*
X-30150Y-1994D01*
X-30075Y-2009D01*
X-29890Y-1972D01*
X-29733Y-1867D01*
X-29628Y-1710D01*
X-29591Y-1525D01*
X-29628Y-1340D01*
X-29733Y-1183D01*
X-29890Y-1078D01*
X-30075Y-1041D01*
X-30150Y-1056D01*
X-30300Y-937D01*
Y-825D01*
X-31700D01*
Y-3475D01*
X-31306D01*
Y-6325D01*
X-31700D01*
Y-8975D01*
X-31306D01*
Y-9375D01*
X-31650D01*
Y-10325D01*
X-30685Y-10325D01*
X-30601Y-10431D01*
X-30599Y-10475D01*
X-30634Y-10650D01*
X-30597Y-10835D01*
X-30492Y-10992D01*
X-30443Y-11025D01*
Y-11567D01*
X-30471Y-11590D01*
X-30593Y-11634D01*
X-30715Y-11553D01*
X-30900Y-11516D01*
X-31085Y-11553D01*
X-31100Y-11562D01*
X-31250Y-11482D01*
Y-11200D01*
X-32850D01*
Y-12800D01*
X-31250D01*
Y-12518D01*
X-31100Y-12438D01*
X-31085Y-12447D01*
X-30900Y-12484D01*
X-30715Y-12447D01*
X-30593Y-12366D01*
X-30471Y-12410D01*
X-30443Y-12433D01*
Y-12829D01*
X-31446Y-13832D01*
X-39560D01*
X-39672Y-13854D01*
X-39767Y-13918D01*
X-42831Y-16982D01*
X-47239D01*
X-47290Y-16832D01*
X-47221Y-16779D01*
X-47053Y-16560D01*
X-46947Y-16304D01*
X-46911Y-16030D01*
X-46947Y-15756D01*
X-47053Y-15500D01*
X-47221Y-15281D01*
X-47440Y-15113D01*
X-47696Y-15007D01*
X-47970Y-14971D01*
X-48244Y-15007D01*
X-48500Y-15113D01*
X-48719Y-15281D01*
X-48887Y-15500D01*
X-48993Y-15756D01*
X-49029Y-16030D01*
X-48993Y-16304D01*
X-48887Y-16560D01*
X-48719Y-16779D01*
X-48650Y-16832D01*
X-48701Y-16982D01*
X-56764D01*
X-57205Y-16541D01*
X-57107Y-16304D01*
X-57071Y-16030D01*
X-57107Y-15756D01*
X-57213Y-15500D01*
X-57381Y-15281D01*
X-57600Y-15113D01*
X-57856Y-15007D01*
X-58130Y-14971D01*
X-58404Y-15007D01*
X-58660Y-15113D01*
X-58879Y-15281D01*
X-59047Y-15500D01*
X-59153Y-15756D01*
X-59189Y-16030D01*
X-59153Y-16304D01*
X-59047Y-16560D01*
X-58879Y-16779D01*
X-58660Y-16947D01*
X-58404Y-17053D01*
X-58130Y-17089D01*
X-57856Y-17053D01*
X-57619Y-16955D01*
X-57092Y-17482D01*
X-56997Y-17546D01*
X-56885Y-17568D01*
X-48636D01*
X-48585Y-17718D01*
X-48719Y-17821D01*
X-48887Y-18040D01*
X-48993Y-18296D01*
X-49029Y-18570D01*
X-48993Y-18844D01*
X-48887Y-19100D01*
X-48719Y-19319D01*
X-48500Y-19487D01*
X-48244Y-19593D01*
X-47970Y-19629D01*
X-47696Y-19593D01*
X-47440Y-19487D01*
X-47221Y-19319D01*
X-47053Y-19100D01*
X-46955Y-18863D01*
X-43270D01*
X-43158Y-18841D01*
X-43063Y-18777D01*
X-39179Y-14893D01*
X-28825D01*
X-28713Y-14871D01*
X-28618Y-14807D01*
X-27554Y-13743D01*
X-23508D01*
X-23485Y-13771D01*
X-23441Y-13893D01*
X-23522Y-14015D01*
X-23559Y-14200D01*
X-23548Y-14258D01*
X-23883Y-14593D01*
X-24044Y-14557D01*
X-24050Y-14549D01*
X-24016Y-14375D01*
X-24053Y-14190D01*
X-24158Y-14033D01*
X-24315Y-13928D01*
X-24500Y-13891D01*
X-24685Y-13928D01*
X-24842Y-14033D01*
X-24947Y-14190D01*
X-24984Y-14375D01*
X-24947Y-14560D01*
X-24842Y-14717D01*
X-24685Y-14822D01*
X-24500Y-14859D01*
X-24326Y-14825D01*
X-24318Y-14831D01*
X-24282Y-14992D01*
X-29277Y-19987D01*
X-29468Y-19966D01*
X-29508Y-19908D01*
X-29665Y-19803D01*
X-29850Y-19766D01*
X-30035Y-19803D01*
X-30192Y-19908D01*
X-30297Y-20065D01*
X-30334Y-20250D01*
X-30297Y-20435D01*
X-30192Y-20592D01*
X-30035Y-20697D01*
X-29850Y-20734D01*
X-29665Y-20697D01*
X-29618Y-20666D01*
X-29468Y-20747D01*
Y-21375D01*
X-29517Y-21408D01*
X-29622Y-21565D01*
X-29659Y-21750D01*
X-29622Y-21935D01*
X-29517Y-22092D01*
X-29459Y-22132D01*
X-29438Y-22323D01*
X-30687Y-23573D01*
X-30751Y-23668D01*
X-30773Y-23780D01*
Y-26295D01*
X-30822Y-26328D01*
X-30927Y-26485D01*
X-30964Y-26670D01*
X-30927Y-26855D01*
X-30822Y-27012D01*
X-30665Y-27117D01*
X-30480Y-27154D01*
X-30295Y-27117D01*
X-30138Y-27012D01*
X-30033Y-26855D01*
X-29996Y-26670D01*
X-30033Y-26485D01*
X-30138Y-26328D01*
X-30187Y-26295D01*
Y-23901D01*
X-29642Y-23356D01*
X-29503Y-23413D01*
Y-26295D01*
X-29552Y-26328D01*
X-29657Y-26485D01*
X-29694Y-26670D01*
X-29657Y-26855D01*
X-29552Y-27012D01*
X-29395Y-27117D01*
X-29210Y-27154D01*
X-29025Y-27117D01*
X-28868Y-27012D01*
X-28763Y-26855D01*
X-28726Y-26670D01*
X-28763Y-26485D01*
X-28868Y-26328D01*
X-28917Y-26295D01*
Y-23331D01*
X-27893Y-22307D01*
X-27829Y-22212D01*
X-27807Y-22100D01*
Y-21371D01*
X-26816Y-20380D01*
X-26623Y-20399D01*
X-26618Y-20406D01*
Y-21679D01*
X-28147Y-23208D01*
X-28211Y-23303D01*
X-28233Y-23415D01*
Y-26295D01*
X-28282Y-26328D01*
X-28387Y-26485D01*
X-28424Y-26670D01*
X-28387Y-26855D01*
X-28282Y-27012D01*
X-28125Y-27117D01*
X-27940Y-27154D01*
X-27755Y-27117D01*
X-27598Y-27012D01*
X-27493Y-26855D01*
X-27456Y-26670D01*
X-27493Y-26485D01*
X-27598Y-26328D01*
X-27647Y-26295D01*
Y-23536D01*
X-26118Y-22008D01*
X-26116Y-22008D01*
X-25968Y-22053D01*
Y-24533D01*
X-26118Y-24579D01*
X-26183Y-24483D01*
X-26340Y-24378D01*
X-26525Y-24341D01*
X-26710Y-24378D01*
X-26867Y-24483D01*
X-26972Y-24640D01*
X-27009Y-24825D01*
X-26972Y-25010D01*
X-26867Y-25167D01*
X-26710Y-25272D01*
X-26525Y-25309D01*
X-26340Y-25272D01*
X-26183Y-25167D01*
X-26118Y-25071D01*
X-25968Y-25117D01*
Y-26279D01*
X-27336Y-27647D01*
X-27565D01*
X-27598Y-27598D01*
X-27755Y-27493D01*
X-27940Y-27456D01*
X-28125Y-27493D01*
X-28282Y-27598D01*
X-28387Y-27755D01*
X-28424Y-27940D01*
X-28387Y-28125D01*
X-28282Y-28282D01*
X-28125Y-28387D01*
X-27940Y-28424D01*
X-27755Y-28387D01*
X-27598Y-28282D01*
X-27565Y-28233D01*
X-27215D01*
X-27103Y-28211D01*
X-27008Y-28147D01*
X-25468Y-26607D01*
X-25404Y-26512D01*
X-25382Y-26400D01*
Y-21848D01*
X-25232Y-21768D01*
X-25181Y-21802D01*
X-25025Y-21833D01*
X-24997Y-21827D01*
X-24881Y-21922D01*
Y-22544D01*
X-24881Y-22544D01*
Y-23812D01*
X-24858Y-23925D01*
X-24795Y-24020D01*
X-23153Y-25661D01*
Y-26295D01*
X-23202Y-26328D01*
X-23307Y-26485D01*
X-23344Y-26670D01*
X-23307Y-26855D01*
X-23202Y-27012D01*
X-23045Y-27117D01*
X-22860Y-27154D01*
X-22675Y-27117D01*
X-22518Y-27012D01*
X-22399Y-27001D01*
X-21252Y-28147D01*
X-21157Y-28211D01*
X-21045Y-28233D01*
X-20695D01*
X-20662Y-28282D01*
X-20551Y-28357D01*
X-20597Y-28507D01*
X-24419D01*
X-24927Y-27998D01*
X-24916Y-27940D01*
X-24953Y-27755D01*
X-25058Y-27598D01*
X-25215Y-27493D01*
X-25400Y-27456D01*
X-25585Y-27493D01*
X-25742Y-27598D01*
X-25847Y-27755D01*
X-25884Y-27940D01*
X-25847Y-28125D01*
X-25742Y-28282D01*
X-25585Y-28387D01*
X-25400Y-28424D01*
X-25342Y-28413D01*
X-24747Y-29007D01*
X-24652Y-29071D01*
X-24540Y-29093D01*
X-22329D01*
X-22271Y-29232D01*
X-23817Y-30777D01*
X-23875Y-30766D01*
X-24060Y-30802D01*
X-24217Y-30907D01*
X-24322Y-31065D01*
X-24336Y-31134D01*
X-24503Y-31205D01*
X-24556Y-31171D01*
X-24577Y-31065D01*
X-24682Y-30907D01*
X-24840Y-30802D01*
X-25025Y-30766D01*
X-25083Y-30777D01*
X-26918Y-28943D01*
X-27013Y-28879D01*
X-27125Y-28857D01*
X-29929D01*
X-32993Y-25793D01*
X-33088Y-25729D01*
X-33200Y-25707D01*
X-36250D01*
X-36283Y-25658D01*
X-36440Y-25553D01*
X-36625Y-25516D01*
X-36810Y-25553D01*
X-36967Y-25658D01*
X-37072Y-25815D01*
X-37109Y-26000D01*
X-37072Y-26185D01*
X-36967Y-26342D01*
X-36810Y-26447D01*
X-36625Y-26484D01*
X-36440Y-26447D01*
X-36283Y-26342D01*
X-36250Y-26293D01*
X-33321D01*
X-33101Y-26514D01*
X-33134Y-26610D01*
X-33170Y-26657D01*
X-56850D01*
X-56883Y-26608D01*
X-57040Y-26503D01*
X-57225Y-26466D01*
X-57410Y-26503D01*
X-57567Y-26608D01*
X-57672Y-26765D01*
X-57709Y-26950D01*
X-57672Y-27135D01*
X-57567Y-27292D01*
X-57410Y-27397D01*
X-57225Y-27434D01*
X-57040Y-27397D01*
X-56883Y-27292D01*
X-56850Y-27243D01*
X-33271D01*
X-33058Y-27457D01*
X-33120Y-27607D01*
X-42275D01*
X-42308Y-27558D01*
X-42465Y-27453D01*
X-42650Y-27416D01*
X-42835Y-27453D01*
X-42992Y-27558D01*
X-43097Y-27715D01*
X-43123Y-27843D01*
X-43191Y-27876D01*
X-43276Y-27898D01*
X-43417Y-27804D01*
X-43602Y-27767D01*
X-43787Y-27804D01*
X-43945Y-27909D01*
X-44050Y-28066D01*
X-44086Y-28251D01*
X-44050Y-28437D01*
X-44036Y-28457D01*
X-44116Y-28607D01*
X-47775D01*
X-47887Y-28629D01*
X-47982Y-28693D01*
X-52320Y-33031D01*
X-52500Y-32893D01*
X-52756Y-32787D01*
X-53030Y-32751D01*
X-53304Y-32787D01*
X-53560Y-32893D01*
X-53779Y-33061D01*
X-53947Y-33280D01*
X-54053Y-33536D01*
X-54089Y-33810D01*
X-54053Y-34084D01*
X-53947Y-34340D01*
X-53779Y-34559D01*
X-53560Y-34727D01*
X-53304Y-34833D01*
X-53030Y-34869D01*
X-52756Y-34833D01*
X-52500Y-34727D01*
X-52281Y-34559D01*
X-52118Y-34346D01*
X-52103Y-34345D01*
X-51968Y-34402D01*
Y-35758D01*
X-52103Y-35815D01*
X-52118Y-35814D01*
X-52281Y-35601D01*
X-52500Y-35433D01*
X-52756Y-35327D01*
X-53030Y-35291D01*
X-53304Y-35327D01*
X-53560Y-35433D01*
X-53779Y-35601D01*
X-53947Y-35820D01*
X-54053Y-36076D01*
X-54089Y-36350D01*
X-54053Y-36624D01*
X-53947Y-36880D01*
X-53779Y-37099D01*
X-53560Y-37267D01*
X-53304Y-37373D01*
X-53030Y-37409D01*
X-52756Y-37373D01*
X-52500Y-37267D01*
X-52281Y-37099D01*
X-52118Y-36886D01*
X-52103Y-36885D01*
X-51968Y-36942D01*
Y-38298D01*
X-52103Y-38355D01*
X-52118Y-38354D01*
X-52281Y-38141D01*
X-52500Y-37973D01*
X-52756Y-37867D01*
X-53030Y-37831D01*
X-53304Y-37867D01*
X-53560Y-37973D01*
X-53779Y-38141D01*
X-53947Y-38360D01*
X-54053Y-38616D01*
X-54089Y-38890D01*
X-54053Y-39164D01*
X-53947Y-39420D01*
X-53779Y-39639D01*
X-53560Y-39807D01*
X-53304Y-39913D01*
X-53030Y-39949D01*
X-52756Y-39913D01*
X-52500Y-39807D01*
X-52281Y-39639D01*
X-52118Y-39426D01*
X-52103Y-39425D01*
X-51968Y-39482D01*
Y-39954D01*
X-52520Y-40505D01*
X-52756Y-40407D01*
X-53030Y-40371D01*
X-53304Y-40407D01*
X-53560Y-40513D01*
X-53779Y-40681D01*
X-53947Y-40900D01*
X-54053Y-41156D01*
X-54089Y-41430D01*
X-54053Y-41704D01*
X-53947Y-41960D01*
X-53779Y-42179D01*
X-53560Y-42347D01*
X-53304Y-42453D01*
X-53030Y-42489D01*
X-52756Y-42453D01*
X-52500Y-42347D01*
X-52281Y-42179D01*
X-52113Y-41960D01*
X-52007Y-41704D01*
X-51971Y-41430D01*
X-52007Y-41156D01*
X-52105Y-40919D01*
X-51568Y-40383D01*
X-51418Y-40445D01*
Y-41944D01*
X-52520Y-43045D01*
X-52756Y-42947D01*
X-53030Y-42911D01*
X-53304Y-42947D01*
X-53560Y-43053D01*
X-53779Y-43221D01*
X-53947Y-43440D01*
X-54053Y-43696D01*
X-54089Y-43970D01*
X-54053Y-44244D01*
X-53947Y-44500D01*
X-53779Y-44719D01*
X-53560Y-44887D01*
X-53304Y-44993D01*
X-53030Y-45029D01*
X-52756Y-44993D01*
X-52500Y-44887D01*
X-52281Y-44719D01*
X-52113Y-44500D01*
X-52007Y-44244D01*
X-51971Y-43970D01*
X-52007Y-43696D01*
X-52105Y-43459D01*
X-50918Y-42272D01*
X-50854Y-42177D01*
X-50832Y-42065D01*
Y-38945D01*
X-50682Y-38883D01*
X-46618Y-42946D01*
Y-47304D01*
X-47315Y-48000D01*
X-48813D01*
X-48875Y-47850D01*
X-48460Y-47435D01*
X-48224Y-47533D01*
X-47950Y-47569D01*
X-47676Y-47533D01*
X-47420Y-47427D01*
X-47201Y-47259D01*
X-47033Y-47040D01*
X-46927Y-46784D01*
X-46891Y-46510D01*
X-46927Y-46236D01*
X-47033Y-45980D01*
X-47201Y-45761D01*
X-47420Y-45593D01*
X-47676Y-45487D01*
X-47950Y-45451D01*
X-48224Y-45487D01*
X-48480Y-45593D01*
X-48699Y-45761D01*
X-48867Y-45980D01*
X-48973Y-46236D01*
X-49009Y-46510D01*
X-48973Y-46784D01*
X-48875Y-47020D01*
X-49316Y-47462D01*
X-52299D01*
X-52350Y-47312D01*
X-52281Y-47259D01*
X-52113Y-47040D01*
X-52007Y-46784D01*
X-51971Y-46510D01*
X-52007Y-46236D01*
X-52113Y-45980D01*
X-52281Y-45761D01*
X-52500Y-45593D01*
X-52756Y-45487D01*
X-53030Y-45451D01*
X-53304Y-45487D01*
X-53560Y-45593D01*
X-53779Y-45761D01*
X-53947Y-45980D01*
X-54053Y-46236D01*
X-54089Y-46510D01*
X-54053Y-46784D01*
X-53947Y-47040D01*
X-53779Y-47259D01*
X-53710Y-47312D01*
X-53761Y-47462D01*
X-54204D01*
X-54645Y-47021D01*
X-54547Y-46784D01*
X-54511Y-46510D01*
X-54547Y-46236D01*
X-54653Y-45980D01*
X-54821Y-45761D01*
X-55040Y-45593D01*
X-55296Y-45487D01*
X-55570Y-45451D01*
X-55844Y-45487D01*
X-56100Y-45593D01*
X-56319Y-45761D01*
X-56487Y-45980D01*
X-56593Y-46236D01*
X-56629Y-46510D01*
X-56593Y-46784D01*
X-56487Y-47040D01*
X-56319Y-47259D01*
X-56100Y-47427D01*
X-55844Y-47533D01*
X-55570Y-47569D01*
X-55296Y-47533D01*
X-55060Y-47435D01*
X-54532Y-47962D01*
X-54437Y-48026D01*
X-54325Y-48048D01*
X-53696D01*
X-53645Y-48198D01*
X-53779Y-48301D01*
X-53947Y-48520D01*
X-54053Y-48776D01*
X-54089Y-49050D01*
X-54053Y-49324D01*
X-53947Y-49580D01*
X-53779Y-49799D01*
X-53560Y-49967D01*
X-53304Y-50073D01*
X-53030Y-50109D01*
X-52756Y-50073D01*
X-52500Y-49967D01*
X-52281Y-49799D01*
X-52113Y-49580D01*
X-52007Y-49324D01*
X-51971Y-49050D01*
X-52007Y-48776D01*
X-52113Y-48520D01*
X-52281Y-48301D01*
X-52415Y-48198D01*
X-52364Y-48048D01*
X-49195D01*
X-49150Y-48039D01*
X-49016Y-48127D01*
X-49000Y-48151D01*
Y-50100D01*
X-46900D01*
Y-48415D01*
X-46118Y-47632D01*
X-46054Y-47537D01*
X-46032Y-47425D01*
Y-42825D01*
X-46054Y-42713D01*
X-46118Y-42618D01*
X-50232Y-38504D01*
Y-38008D01*
X-50082Y-37933D01*
X-49985Y-37997D01*
X-49800Y-38034D01*
X-49615Y-37997D01*
X-49485Y-37911D01*
X-49388Y-37900D01*
X-49290Y-37911D01*
X-49160Y-37997D01*
X-48975Y-38034D01*
X-48790Y-37997D01*
X-48633Y-37892D01*
X-48581Y-37815D01*
X-48451Y-37845D01*
X-48429Y-37858D01*
X-48408Y-37967D01*
X-48341Y-38066D01*
X-48126Y-38282D01*
X-48134Y-38325D01*
X-48097Y-38510D01*
X-47992Y-38667D01*
X-47835Y-38772D01*
X-47650Y-38809D01*
X-47550Y-38789D01*
X-47400Y-38825D01*
Y-38825D01*
X-45750D01*
Y-38325D01*
Y-37825D01*
X-47400D01*
Y-37825D01*
X-47550Y-37861D01*
X-47650Y-37841D01*
X-47693Y-37849D01*
X-47810Y-37732D01*
X-47755Y-37600D01*
X-47100Y-37600D01*
X-46991Y-37500D01*
X-46950D01*
X-46300D01*
Y-36500D01*
Y-35500D01*
X-46991D01*
X-47100Y-35400D01*
X-47209Y-35400D01*
X-48200D01*
Y-35457D01*
X-48925D01*
X-49037Y-35479D01*
X-49132Y-35543D01*
X-50007Y-36418D01*
X-50071Y-36513D01*
X-50082Y-36568D01*
X-50232Y-36554D01*
Y-35446D01*
X-45929Y-31143D01*
X-44184D01*
X-44070Y-31293D01*
X-44086Y-31377D01*
X-44050Y-31562D01*
X-43945Y-31719D01*
X-43893Y-31753D01*
Y-44185D01*
X-43871Y-44297D01*
X-43807Y-44392D01*
X-41540Y-46659D01*
X-41552Y-46717D01*
X-41515Y-46903D01*
X-41410Y-47060D01*
X-41253Y-47165D01*
X-41067Y-47202D01*
X-40882Y-47165D01*
X-40725Y-47060D01*
X-40620Y-46903D01*
X-40583Y-46717D01*
X-40603Y-46616D01*
X-40588Y-46591D01*
X-40474Y-46500D01*
X-40342Y-46527D01*
X-40157Y-46490D01*
X-40000Y-46385D01*
X-39895Y-46228D01*
X-39858Y-46042D01*
X-39895Y-45857D01*
X-39818Y-45702D01*
X-39757Y-45690D01*
X-39600Y-45585D01*
X-39495Y-45428D01*
X-39458Y-45242D01*
X-39495Y-45057D01*
X-39600Y-44900D01*
X-39757Y-44795D01*
X-39942Y-44758D01*
X-40001Y-44770D01*
X-41507Y-43263D01*
Y-31750D01*
X-41458Y-31717D01*
X-41353Y-31560D01*
X-41316Y-31375D01*
X-41332Y-31293D01*
X-41217Y-31143D01*
X-36904D01*
X-36862Y-31239D01*
X-36850Y-31293D01*
X-36947Y-31440D01*
X-36984Y-31625D01*
X-36947Y-31810D01*
X-37039Y-31848D01*
X-37060Y-31853D01*
X-37217Y-31958D01*
X-37322Y-32115D01*
X-37340Y-32201D01*
X-37400Y-32303D01*
X-37503Y-32310D01*
X-37600Y-32291D01*
X-37785Y-32328D01*
X-37942Y-32433D01*
X-37992Y-32506D01*
X-38177Y-32533D01*
X-38527Y-32183D01*
X-38516Y-32125D01*
X-38553Y-31940D01*
X-38658Y-31783D01*
X-38815Y-31678D01*
X-39000Y-31641D01*
X-39185Y-31678D01*
X-39342Y-31783D01*
X-39447Y-31940D01*
X-39484Y-32125D01*
X-39447Y-32310D01*
X-39342Y-32467D01*
X-39185Y-32572D01*
X-39000Y-32609D01*
X-38942Y-32598D01*
X-38038Y-33501D01*
X-37983Y-33562D01*
X-38015Y-33716D01*
X-38047Y-33765D01*
X-38084Y-33950D01*
X-38047Y-34135D01*
X-37942Y-34292D01*
X-37865Y-34344D01*
X-37911Y-34494D01*
X-38007D01*
Y-35656D01*
X-37184D01*
X-37119Y-35739D01*
X-37184Y-35885D01*
X-38572D01*
Y-36385D01*
Y-36885D01*
X-36922D01*
Y-36678D01*
X-36598D01*
X-36485Y-36656D01*
X-36390Y-36592D01*
X-36327Y-36529D01*
X-36300Y-36534D01*
X-36115Y-36497D01*
X-35958Y-36392D01*
X-35950Y-36381D01*
X-34051D01*
X-34035Y-36400D01*
X-33400D01*
Y-36600D01*
X-33937D01*
X-33930Y-36637D01*
X-33908Y-36669D01*
X-33988Y-36819D01*
X-35537D01*
X-35650Y-36842D01*
X-35745Y-36905D01*
X-36190Y-37350D01*
X-36725D01*
Y-37350D01*
X-36875Y-37350D01*
Y-37175D01*
X-38675D01*
Y-38625D01*
X-38675Y-38725D01*
X-38675Y-38875D01*
Y-39450D01*
X-37775D01*
Y-39650D01*
X-38675D01*
Y-40275D01*
X-38675Y-40325D01*
X-38783Y-40425D01*
X-38966D01*
X-39075Y-40325D01*
Y-38875D01*
X-39075Y-38775D01*
X-39075Y-38625D01*
Y-38050D01*
X-39975D01*
X-40875D01*
Y-38625D01*
X-40875Y-38725D01*
X-40875Y-38875D01*
Y-40325D01*
X-40659D01*
X-40550Y-40425D01*
Y-41325D01*
X-38550D01*
Y-41325D01*
X-38475Y-41325D01*
Y-41325D01*
X-37965D01*
X-37595Y-41695D01*
X-37500Y-41758D01*
X-37388Y-41781D01*
X-37271Y-41931D01*
X-37284Y-42000D01*
X-37273Y-42058D01*
X-38907Y-43693D01*
X-38971Y-43788D01*
X-38993Y-43900D01*
Y-50680D01*
X-38971Y-50792D01*
X-38907Y-50887D01*
X-38763Y-51032D01*
X-38825Y-51182D01*
X-42275D01*
X-42387Y-51204D01*
X-42482Y-51268D01*
X-43432Y-52218D01*
X-43496Y-52313D01*
X-43518Y-52425D01*
Y-55804D01*
X-44971Y-57257D01*
X-51954D01*
X-57607Y-51604D01*
Y-50041D01*
X-57457Y-49995D01*
X-57432Y-50032D01*
X-56957Y-50507D01*
X-56862Y-50571D01*
X-56750Y-50593D01*
X-56242D01*
X-56191Y-50743D01*
X-56319Y-50841D01*
X-56487Y-51060D01*
X-56593Y-51316D01*
X-56616Y-51490D01*
X-55570D01*
X-54524D01*
X-54547Y-51316D01*
X-54653Y-51060D01*
X-54821Y-50841D01*
X-54949Y-50743D01*
X-54898Y-50593D01*
X-54441D01*
X-54080Y-50955D01*
Y-52640D01*
X-51980D01*
Y-50540D01*
X-53665D01*
X-54113Y-50093D01*
X-54208Y-50029D01*
X-54320Y-50007D01*
X-54846D01*
X-54897Y-49857D01*
X-54821Y-49799D01*
X-54653Y-49580D01*
X-54547Y-49324D01*
X-54511Y-49050D01*
X-54547Y-48776D01*
X-54653Y-48520D01*
X-54821Y-48301D01*
X-55040Y-48133D01*
X-55296Y-48027D01*
X-55570Y-47991D01*
X-55844Y-48027D01*
X-56100Y-48133D01*
X-56319Y-48301D01*
X-56487Y-48520D01*
X-56593Y-48776D01*
X-56629Y-49050D01*
X-56593Y-49324D01*
X-56487Y-49580D01*
X-56319Y-49799D01*
X-56243Y-49857D01*
X-56294Y-50007D01*
X-56629D01*
X-56932Y-49704D01*
Y-37700D01*
X-56883Y-37667D01*
X-56778Y-37510D01*
X-56741Y-37325D01*
X-56778Y-37140D01*
X-56883Y-36983D01*
X-57040Y-36878D01*
X-57225Y-36841D01*
X-57410Y-36878D01*
X-57457Y-36909D01*
X-57607Y-36828D01*
Y-36261D01*
X-56081Y-34735D01*
X-55844Y-34833D01*
X-55570Y-34869D01*
X-55296Y-34833D01*
X-55040Y-34727D01*
X-54821Y-34559D01*
X-54653Y-34340D01*
X-54547Y-34084D01*
X-54511Y-33810D01*
X-54547Y-33536D01*
X-54653Y-33280D01*
X-54821Y-33061D01*
X-54910Y-32993D01*
X-54859Y-32843D01*
X-54310D01*
X-54198Y-32821D01*
X-54103Y-32757D01*
X-53541Y-32195D01*
X-53304Y-32293D01*
X-53030Y-32329D01*
X-52756Y-32293D01*
X-52500Y-32187D01*
X-52281Y-32019D01*
X-52113Y-31800D01*
X-52007Y-31544D01*
X-51971Y-31270D01*
X-52007Y-30996D01*
X-52113Y-30740D01*
X-52281Y-30521D01*
X-52500Y-30353D01*
X-52756Y-30247D01*
X-53030Y-30211D01*
X-53304Y-30247D01*
X-53560Y-30353D01*
X-53779Y-30521D01*
X-53947Y-30740D01*
X-54053Y-30996D01*
X-54089Y-31270D01*
X-54053Y-31544D01*
X-53955Y-31781D01*
X-54431Y-32257D01*
X-54885D01*
X-54936Y-32107D01*
X-54821Y-32019D01*
X-54653Y-31800D01*
X-54547Y-31544D01*
X-54511Y-31270D01*
X-54547Y-30996D01*
X-54653Y-30740D01*
X-54821Y-30521D01*
X-55040Y-30353D01*
X-55296Y-30247D01*
X-55570Y-30211D01*
X-55844Y-30247D01*
X-56100Y-30353D01*
X-56319Y-30521D01*
X-56487Y-30740D01*
X-56593Y-30996D01*
X-56629Y-31270D01*
X-56593Y-31544D01*
X-56495Y-31781D01*
X-59107Y-34393D01*
X-59171Y-34488D01*
X-59193Y-34600D01*
Y-52200D01*
X-59171Y-52312D01*
X-59107Y-52407D01*
X-52682Y-58832D01*
X-52587Y-58896D01*
X-52475Y-58918D01*
X-41945D01*
X-41833Y-58896D01*
X-41738Y-58832D01*
X-39401Y-56495D01*
X-39164Y-56593D01*
X-38890Y-56629D01*
X-38616Y-56593D01*
X-38380Y-56495D01*
X-35568Y-59307D01*
X-35625Y-59445D01*
X-59445D01*
Y-555D01*
X-21485D01*
X-21248Y-737D01*
D02*
G37*
G36*
X-13525Y-36390D02*
Y-37050D01*
X-13525Y-37100D01*
X-13525D01*
X-13525Y-37200D01*
X-13525D01*
Y-37380D01*
X-13675Y-37410D01*
X-16305Y-34780D01*
X-16323Y-34768D01*
X-16278Y-34618D01*
X-15297D01*
X-13525Y-36390D01*
D02*
G37*
G36*
X-11352Y-729D02*
X-11299Y-736D01*
X-11246Y-751D01*
X-11203Y-767D01*
X-11161Y-787D01*
X-11117Y-815D01*
X-11079Y-844D01*
X-11040Y-878D01*
X-11011Y-914D01*
X-10983Y-951D01*
X-10959Y-992D01*
X-10939Y-1034D01*
X-10923Y-1076D01*
X-10911Y-1127D01*
X-10904Y-1172D01*
X-10900Y-1225D01*
Y-2125D01*
X-10904Y-2180D01*
X-10912Y-2225D01*
X-10924Y-2275D01*
X-10940Y-2315D01*
X-10953Y-2348D01*
X-10978Y-2391D01*
X-11004Y-2428D01*
X-11035Y-2466D01*
X-11080Y-2507D01*
X-11120Y-2537D01*
X-11166Y-2566D01*
X-11219Y-2590D01*
X-11306Y-2616D01*
X-11400Y-2625D01*
X-13000D01*
Y-725D01*
X-11400D01*
X-11352Y-729D01*
D02*
G37*
G36*
X-555Y-59445D02*
X-12635D01*
X-12692Y-59307D01*
X-8643Y-55257D01*
X-8579Y-55162D01*
X-8557Y-55050D01*
Y-51746D01*
X-8147Y-51337D01*
X-8005Y-51407D01*
X-8016Y-51490D01*
X-6970D01*
X-5924D01*
X-5947Y-51316D01*
X-6053Y-51060D01*
X-6221Y-50841D01*
X-6316Y-50768D01*
X-6265Y-50618D01*
X-5705D01*
X-5593Y-50596D01*
X-5498Y-50532D01*
X-4940Y-49975D01*
X-4704Y-50073D01*
X-4430Y-50109D01*
X-4156Y-50073D01*
X-3900Y-49967D01*
X-3681Y-49799D01*
X-3513Y-49580D01*
X-3407Y-49324D01*
X-3371Y-49050D01*
X-3407Y-48776D01*
X-3513Y-48520D01*
X-3681Y-48301D01*
X-3900Y-48133D01*
X-4156Y-48027D01*
X-4430Y-47991D01*
X-4704Y-48027D01*
X-4960Y-48133D01*
X-5179Y-48301D01*
X-5347Y-48520D01*
X-5453Y-48776D01*
X-5489Y-49050D01*
X-5453Y-49324D01*
X-5355Y-49561D01*
X-5826Y-50032D01*
X-6278D01*
X-6329Y-49882D01*
X-6221Y-49799D01*
X-6053Y-49580D01*
X-5947Y-49324D01*
X-5911Y-49050D01*
X-5947Y-48776D01*
X-6053Y-48520D01*
X-6221Y-48301D01*
X-6297Y-48243D01*
X-6246Y-48093D01*
X-5720D01*
X-5608Y-48071D01*
X-5513Y-48007D01*
X-4940Y-47435D01*
X-4704Y-47533D01*
X-4430Y-47569D01*
X-4156Y-47533D01*
X-3900Y-47427D01*
X-3681Y-47259D01*
X-3513Y-47040D01*
X-3407Y-46784D01*
X-3371Y-46510D01*
X-3407Y-46236D01*
X-3513Y-45980D01*
X-3681Y-45761D01*
X-3900Y-45593D01*
X-4156Y-45487D01*
X-4430Y-45451D01*
X-4704Y-45487D01*
X-4960Y-45593D01*
X-5179Y-45761D01*
X-5347Y-45980D01*
X-5453Y-46236D01*
X-5489Y-46510D01*
X-5453Y-46784D01*
X-5355Y-47021D01*
X-5841Y-47507D01*
X-6298D01*
X-6349Y-47357D01*
X-6221Y-47259D01*
X-6053Y-47040D01*
X-5947Y-46784D01*
X-5911Y-46510D01*
X-5947Y-46236D01*
X-6053Y-45980D01*
X-6221Y-45761D01*
X-6440Y-45593D01*
X-6696Y-45487D01*
X-6970Y-45451D01*
X-7244Y-45487D01*
X-7371Y-45540D01*
X-16577Y-36333D01*
X-16566Y-36275D01*
X-16603Y-36090D01*
X-16708Y-35933D01*
X-16865Y-35828D01*
X-17050Y-35791D01*
X-17186Y-35818D01*
X-17282Y-35692D01*
X-17278Y-35685D01*
X-17241Y-35500D01*
X-17254Y-35431D01*
X-17134Y-35281D01*
X-16634D01*
X-13982Y-37932D01*
X-13887Y-37996D01*
X-13775Y-38018D01*
X-13525D01*
Y-38250D01*
X-13525Y-38250D01*
X-13525D01*
X-13528Y-38399D01*
X-13547Y-38427D01*
X-13584Y-38613D01*
X-13547Y-38798D01*
X-13442Y-38955D01*
X-13285Y-39060D01*
X-13100Y-39097D01*
X-13042Y-39085D01*
X-10545Y-41582D01*
X-10450Y-41646D01*
X-10338Y-41668D01*
X-9775D01*
X-9742Y-41717D01*
X-9585Y-41822D01*
X-9400Y-41859D01*
X-9215Y-41822D01*
X-9058Y-41717D01*
X-8953Y-41560D01*
X-8916Y-41375D01*
X-8953Y-41190D01*
X-9058Y-41033D01*
X-9215Y-40928D01*
X-9400Y-40891D01*
X-9585Y-40928D01*
X-9742Y-41033D01*
X-9775Y-41082D01*
X-10216D01*
X-12535Y-38763D01*
X-12533Y-38686D01*
X-12398Y-38574D01*
X-12363Y-38581D01*
X-10234D01*
X-7895Y-40919D01*
X-7993Y-41156D01*
X-8029Y-41430D01*
X-7993Y-41704D01*
X-7887Y-41960D01*
X-7719Y-42179D01*
X-7500Y-42347D01*
X-7244Y-42453D01*
X-6970Y-42489D01*
X-6696Y-42453D01*
X-6440Y-42347D01*
X-6221Y-42179D01*
X-6053Y-41960D01*
X-5947Y-41704D01*
X-5911Y-41430D01*
X-5947Y-41156D01*
X-6053Y-40900D01*
X-6221Y-40681D01*
X-6323Y-40603D01*
X-6272Y-40453D01*
X-5821D01*
X-5355Y-40919D01*
X-5453Y-41156D01*
X-5489Y-41430D01*
X-5453Y-41704D01*
X-5347Y-41960D01*
X-5179Y-42179D01*
X-4960Y-42347D01*
X-4704Y-42453D01*
X-4430Y-42489D01*
X-4156Y-42453D01*
X-3900Y-42347D01*
X-3681Y-42179D01*
X-3513Y-41960D01*
X-3407Y-41704D01*
X-3371Y-41430D01*
X-3407Y-41156D01*
X-3513Y-40900D01*
X-3681Y-40681D01*
X-3900Y-40513D01*
X-4156Y-40407D01*
X-4430Y-40371D01*
X-4704Y-40407D01*
X-4940Y-40505D01*
X-5493Y-39953D01*
X-5588Y-39889D01*
X-5700Y-39867D01*
X-6272D01*
X-6323Y-39717D01*
X-6221Y-39639D01*
X-6053Y-39420D01*
X-5947Y-39164D01*
X-5911Y-38890D01*
X-5947Y-38616D01*
X-6053Y-38360D01*
X-6221Y-38141D01*
X-6440Y-37973D01*
X-6696Y-37867D01*
X-6970Y-37831D01*
X-7244Y-37867D01*
X-7500Y-37973D01*
X-7719Y-38141D01*
X-7887Y-38360D01*
X-7993Y-38616D01*
X-8029Y-38890D01*
X-8021Y-38952D01*
X-8163Y-39023D01*
X-10243Y-36943D01*
X-10278Y-36760D01*
X-10241Y-36575D01*
X-10278Y-36390D01*
X-10383Y-36233D01*
X-10540Y-36128D01*
X-10725Y-36091D01*
X-10910Y-36128D01*
X-10975Y-36171D01*
X-11125Y-36091D01*
Y-36050D01*
X-12325D01*
Y-36050D01*
X-12325D01*
Y-36050D01*
X-13036D01*
X-13967Y-35119D01*
X-13893Y-34981D01*
X-13875Y-34984D01*
X-13690Y-34947D01*
X-13533Y-34842D01*
X-13428Y-34685D01*
X-13391Y-34500D01*
X-13428Y-34315D01*
X-13533Y-34158D01*
X-13690Y-34053D01*
X-13837Y-34023D01*
X-13979Y-33882D01*
X-13921Y-33743D01*
X-9496D01*
X-7957Y-35282D01*
X-7862Y-35346D01*
X-7750Y-35368D01*
X-7662D01*
X-7611Y-35518D01*
X-7719Y-35601D01*
X-7887Y-35820D01*
X-7993Y-36076D01*
X-8029Y-36350D01*
X-7993Y-36624D01*
X-7887Y-36880D01*
X-7719Y-37099D01*
X-7500Y-37267D01*
X-7244Y-37373D01*
X-6970Y-37409D01*
X-6696Y-37373D01*
X-6440Y-37267D01*
X-6221Y-37099D01*
X-6053Y-36880D01*
X-5947Y-36624D01*
X-5911Y-36350D01*
X-5947Y-36076D01*
X-6053Y-35820D01*
X-6221Y-35601D01*
X-6329Y-35518D01*
X-6278Y-35368D01*
X-5695D01*
X-5583Y-35346D01*
X-5488Y-35282D01*
X-4940Y-34735D01*
X-4704Y-34833D01*
X-4430Y-34869D01*
X-4156Y-34833D01*
X-3900Y-34727D01*
X-3681Y-34559D01*
X-3513Y-34340D01*
X-3407Y-34084D01*
X-3371Y-33810D01*
X-3407Y-33536D01*
X-3513Y-33280D01*
X-3681Y-33061D01*
X-3900Y-32893D01*
X-4156Y-32787D01*
X-4430Y-32751D01*
X-4704Y-32787D01*
X-4960Y-32893D01*
X-5179Y-33061D01*
X-5347Y-33280D01*
X-5453Y-33536D01*
X-5489Y-33810D01*
X-5453Y-34084D01*
X-5355Y-34320D01*
X-5816Y-34782D01*
X-6265D01*
X-6316Y-34632D01*
X-6221Y-34559D01*
X-6053Y-34340D01*
X-5947Y-34084D01*
X-5911Y-33810D01*
X-5947Y-33536D01*
X-6053Y-33280D01*
X-6221Y-33061D01*
X-6310Y-32993D01*
X-6259Y-32843D01*
X-5710D01*
X-5598Y-32821D01*
X-5503Y-32757D01*
X-4940Y-32195D01*
X-4704Y-32293D01*
X-4430Y-32329D01*
X-4156Y-32293D01*
X-3900Y-32187D01*
X-3681Y-32019D01*
X-3513Y-31800D01*
X-3407Y-31544D01*
X-3371Y-31270D01*
X-3407Y-30996D01*
X-3513Y-30740D01*
X-3681Y-30521D01*
X-3900Y-30353D01*
X-4156Y-30247D01*
X-4430Y-30211D01*
X-4704Y-30247D01*
X-4960Y-30353D01*
X-5179Y-30521D01*
X-5347Y-30740D01*
X-5453Y-30996D01*
X-5489Y-31270D01*
X-5453Y-31544D01*
X-5355Y-31781D01*
X-5831Y-32257D01*
X-6285D01*
X-6336Y-32107D01*
X-6221Y-32019D01*
X-6053Y-31800D01*
X-5947Y-31544D01*
X-5911Y-31270D01*
X-5947Y-30996D01*
X-6053Y-30740D01*
X-6221Y-30521D01*
X-6440Y-30353D01*
X-6696Y-30247D01*
X-6970Y-30211D01*
X-7244Y-30247D01*
X-7500Y-30353D01*
X-7719Y-30521D01*
X-7887Y-30740D01*
X-7985Y-30977D01*
X-8170D01*
X-8282Y-30999D01*
X-8377Y-31063D01*
X-9471Y-32157D01*
X-14771D01*
X-14829Y-32018D01*
X-10279Y-27468D01*
X-9850D01*
X-9817Y-27517D01*
X-9660Y-27622D01*
X-9475Y-27659D01*
X-9290Y-27622D01*
X-9133Y-27517D01*
X-9028Y-27360D01*
X-8991Y-27175D01*
X-9028Y-26990D01*
X-9133Y-26833D01*
X-9290Y-26728D01*
X-9475Y-26691D01*
X-9660Y-26728D01*
X-9817Y-26833D01*
X-9850Y-26882D01*
X-10280D01*
X-10342Y-26732D01*
X-7979Y-24368D01*
X-6765D01*
X-6653Y-24346D01*
X-6558Y-24282D01*
X-5962Y-23686D01*
X-5889Y-23716D01*
X-5700Y-23741D01*
X-5511Y-23716D01*
X-5334Y-23643D01*
X-5183Y-23527D01*
X-5160Y-23497D01*
X-4970D01*
X-4947Y-23527D01*
X-4796Y-23643D01*
X-4619Y-23716D01*
X-4430Y-23741D01*
X-4241Y-23716D01*
X-4064Y-23643D01*
X-3913Y-23527D01*
X-3890Y-23497D01*
X-3700D01*
X-3677Y-23527D01*
X-3526Y-23643D01*
X-3349Y-23716D01*
X-3260Y-23728D01*
Y-23010D01*
X-3160D01*
Y-22910D01*
X-2442D01*
X-2454Y-22821D01*
X-2527Y-22644D01*
X-2643Y-22493D01*
X-2673Y-22470D01*
Y-22280D01*
X-2643Y-22257D01*
X-2527Y-22106D01*
X-2454Y-21929D01*
X-2429Y-21740D01*
X-2454Y-21551D01*
X-2527Y-21374D01*
X-2643Y-21223D01*
X-2794Y-21107D01*
X-2971Y-21034D01*
X-3160Y-21009D01*
X-3349Y-21034D01*
X-3422Y-21064D01*
X-4868Y-19618D01*
X-4963Y-19554D01*
X-5075Y-19532D01*
X-9125D01*
X-9237Y-19554D01*
X-9332Y-19618D01*
X-10757Y-21043D01*
X-10821Y-21138D01*
X-10843Y-21250D01*
Y-23654D01*
X-14168Y-26979D01*
X-14307Y-26921D01*
Y-26450D01*
X-14329Y-26338D01*
X-14393Y-26243D01*
X-14560Y-26075D01*
X-14559Y-26014D01*
X-14510Y-25914D01*
X-14445Y-25908D01*
X-14310Y-25997D01*
X-14125Y-26034D01*
X-13940Y-25997D01*
X-13783Y-25892D01*
X-13678Y-25735D01*
X-13641Y-25550D01*
X-13652Y-25491D01*
X-13517Y-25401D01*
X-13485Y-25422D01*
X-13300Y-25459D01*
X-13115Y-25422D01*
X-12958Y-25317D01*
X-12853Y-25160D01*
X-12816Y-24975D01*
X-12853Y-24790D01*
X-12958Y-24633D01*
X-13115Y-24528D01*
X-13300Y-24491D01*
X-13485Y-24528D01*
X-13540Y-24564D01*
X-13675Y-24474D01*
X-13666Y-24425D01*
X-13703Y-24240D01*
X-13808Y-24083D01*
X-13857Y-24050D01*
Y-17971D01*
X-7754Y-11868D01*
X-3596D01*
X-3273Y-12192D01*
X-3284Y-12250D01*
X-3247Y-12435D01*
X-3142Y-12592D01*
X-2985Y-12697D01*
X-2800Y-12734D01*
X-2615Y-12697D01*
X-2458Y-12592D01*
X-2353Y-12435D01*
X-2316Y-12250D01*
X-2353Y-12065D01*
X-2458Y-11908D01*
X-2615Y-11803D01*
X-2800Y-11766D01*
X-2858Y-11777D01*
X-3268Y-11368D01*
X-3363Y-11304D01*
X-3475Y-11282D01*
X-7875D01*
X-7881Y-11283D01*
X-7955Y-11145D01*
X-6966Y-10156D01*
X-6803Y-10205D01*
X-6797Y-10235D01*
X-6692Y-10392D01*
X-6535Y-10497D01*
X-6350Y-10534D01*
X-6165Y-10497D01*
X-6008Y-10392D01*
X-5903Y-10235D01*
X-5866Y-10050D01*
X-5877Y-9992D01*
X-5193Y-9307D01*
X-5129Y-9212D01*
X-5107Y-9100D01*
Y-6900D01*
X-5129Y-6788D01*
X-5193Y-6693D01*
X-7950Y-3935D01*
Y-2750D01*
X-9550D01*
Y-4350D01*
X-8365D01*
X-5693Y-7021D01*
Y-8979D01*
X-5868Y-9153D01*
X-5984Y-9058D01*
X-5903Y-8935D01*
X-5866Y-8750D01*
X-5903Y-8565D01*
X-6008Y-8408D01*
X-6165Y-8303D01*
X-6350Y-8266D01*
X-6535Y-8303D01*
X-6692Y-8408D01*
X-6797Y-8565D01*
X-6834Y-8750D01*
X-6797Y-8935D01*
X-6708Y-9069D01*
X-10405Y-12765D01*
X-10543Y-12708D01*
Y-12421D01*
X-10453Y-12285D01*
X-10416Y-12100D01*
X-10453Y-11915D01*
X-10558Y-11758D01*
X-10715Y-11653D01*
X-10900Y-11616D01*
X-10980Y-11632D01*
X-11054Y-11493D01*
X-10393Y-10832D01*
X-10329Y-10737D01*
X-10307Y-10625D01*
Y-9250D01*
X-10329Y-9138D01*
X-10393Y-9043D01*
X-10775Y-8660D01*
Y-8559D01*
X-10768Y-8525D01*
Y-8050D01*
X-10575D01*
Y-6950D01*
X-10575D01*
X-10656Y-6800D01*
X-10641Y-6725D01*
X-10678Y-6540D01*
X-10768Y-6404D01*
Y-6396D01*
X-10678Y-6260D01*
X-10641Y-6075D01*
X-10678Y-5890D01*
X-10783Y-5733D01*
X-10940Y-5628D01*
X-11125Y-5591D01*
X-11310Y-5628D01*
X-11467Y-5733D01*
X-11572Y-5890D01*
X-11609Y-6075D01*
X-11572Y-6260D01*
X-11482Y-6396D01*
Y-6404D01*
X-11572Y-6540D01*
X-11609Y-6725D01*
X-11594Y-6800D01*
X-11675Y-6950D01*
X-11675D01*
Y-8050D01*
X-11675D01*
X-11675Y-8100D01*
X-11675D01*
Y-9150D01*
Y-9475D01*
X-11225D01*
Y-9575D01*
X-11125D01*
Y-10100D01*
X-10893D01*
Y-10504D01*
X-12221Y-11832D01*
X-12525D01*
X-12558Y-11783D01*
X-12715Y-11678D01*
X-12900Y-11641D01*
X-13085Y-11678D01*
X-13242Y-11783D01*
X-13347Y-11940D01*
X-13384Y-12125D01*
X-13347Y-12310D01*
X-13242Y-12467D01*
X-13193Y-12500D01*
Y-12804D01*
X-13475Y-13085D01*
X-13613Y-13028D01*
Y-11751D01*
X-13523Y-11615D01*
X-13486Y-11430D01*
X-13523Y-11245D01*
X-13628Y-11088D01*
X-13785Y-10983D01*
X-13970Y-10946D01*
X-14155Y-10983D01*
X-14239Y-11038D01*
X-14389Y-10958D01*
Y-10200D01*
X-13066D01*
Y-10200D01*
X-12957Y-10100D01*
X-12625D01*
Y-9575D01*
X-12525D01*
Y-9475D01*
X-12075D01*
Y-9150D01*
Y-8100D01*
X-11975Y-8050D01*
Y-6950D01*
X-13075D01*
X-13075Y-6950D01*
X-13216Y-6927D01*
X-13275Y-6916D01*
X-13316Y-6924D01*
X-13466Y-6900D01*
Y-6900D01*
X-13466Y-6900D01*
X-13943D01*
Y-5567D01*
X-13793Y-5493D01*
X-13741Y-5533D01*
X-13564Y-5606D01*
X-13375Y-5631D01*
X-13186Y-5606D01*
X-13009Y-5533D01*
X-12858Y-5417D01*
X-12742Y-5266D01*
X-12669Y-5089D01*
X-12644Y-4900D01*
Y-4700D01*
X-12669Y-4511D01*
X-12742Y-4334D01*
X-12858Y-4183D01*
X-13009Y-4067D01*
X-13018Y-4063D01*
Y-3650D01*
X-11850D01*
Y-2831D01*
X-11394D01*
X-11346Y-2825D01*
X-11287Y-2819D01*
X-11274Y-2815D01*
X-11213Y-2807D01*
X-11140Y-2777D01*
X-11135Y-2776D01*
X-11111Y-2765D01*
X-11044Y-2737D01*
X-10899Y-2626D01*
X-10847Y-2558D01*
X-10846Y-2557D01*
X-10846Y-2557D01*
X-10788Y-2481D01*
X-10764Y-2424D01*
X-10763Y-2423D01*
X-10756Y-2403D01*
X-10718Y-2312D01*
X-10711Y-2258D01*
X-10703Y-2216D01*
X-10703Y-2205D01*
X-10701Y-2195D01*
X-10698Y-2164D01*
X-10694Y-2131D01*
Y-1219D01*
X-10699Y-1184D01*
X-10701Y-1157D01*
X-10703Y-1149D01*
X-10703Y-1141D01*
X-10710Y-1096D01*
X-10711Y-1092D01*
X-10717Y-1046D01*
X-10716Y-1036D01*
X-10646Y-935D01*
X-10608Y-910D01*
X-10600Y-911D01*
X-10264Y-866D01*
X-9951Y-737D01*
X-9714Y-555D01*
X-9661D01*
X-9550Y-650D01*
X-9550Y-705D01*
Y-2250D01*
X-7950D01*
Y-2036D01*
X-7800Y-1956D01*
X-7785Y-1965D01*
X-7600Y-2002D01*
X-7450Y-1972D01*
X-7300Y-2055D01*
Y-2250D01*
X-5700D01*
Y-705D01*
X-5700Y-650D01*
X-5589Y-555D01*
X-555D01*
Y-59445D01*
D02*
G37*
G36*
X-18200Y-2625D02*
X-19800D01*
X-19848Y-2621D01*
X-19901Y-2614D01*
X-19954Y-2599D01*
X-19997Y-2583D01*
X-20039Y-2563D01*
X-20083Y-2535D01*
X-20121Y-2506D01*
X-20160Y-2472D01*
X-20189Y-2436D01*
X-20217Y-2399D01*
X-20241Y-2358D01*
X-20261Y-2316D01*
X-20277Y-2274D01*
X-20289Y-2223D01*
X-20296Y-2178D01*
X-20300Y-2125D01*
Y-1225D01*
X-20296Y-1170D01*
X-20288Y-1125D01*
X-20276Y-1075D01*
X-20260Y-1035D01*
X-20247Y-1002D01*
X-20222Y-959D01*
X-20196Y-922D01*
X-20165Y-884D01*
X-20120Y-843D01*
X-20080Y-813D01*
X-20034Y-784D01*
X-19981Y-760D01*
X-19894Y-734D01*
X-19800Y-725D01*
X-18200D01*
Y-2625D01*
D02*
G37*
%LPC*%
G36*
X-38923Y-35175D02*
X-39404D01*
Y-35656D01*
X-38923D01*
Y-35175D01*
D02*
G37*
G36*
X-4330Y-27684D02*
Y-28630D01*
X-3384D01*
X-3407Y-28456D01*
X-3513Y-28200D01*
X-3681Y-27981D01*
X-3900Y-27813D01*
X-4156Y-27707D01*
X-4330Y-27684D01*
D02*
G37*
G36*
X-38772Y-36485D02*
X-39322D01*
Y-36885D01*
X-38772D01*
Y-36485D01*
D02*
G37*
G36*
Y-35885D02*
X-39322D01*
Y-36285D01*
X-38772D01*
Y-35885D01*
D02*
G37*
G36*
X-39075Y-37175D02*
X-39875D01*
Y-37850D01*
X-39075D01*
Y-37175D01*
D02*
G37*
G36*
X-40075D02*
X-40875D01*
Y-37850D01*
X-40075D01*
Y-37175D01*
D02*
G37*
G36*
X-4900Y-24866D02*
X-5085Y-24903D01*
X-5242Y-25008D01*
X-5347Y-25165D01*
X-5384Y-25350D01*
X-5358Y-25482D01*
X-5450Y-25632D01*
X-7304D01*
X-7527Y-25408D01*
X-7516Y-25350D01*
X-7553Y-25165D01*
X-7658Y-25008D01*
X-7815Y-24903D01*
X-8000Y-24866D01*
X-8185Y-24903D01*
X-8342Y-25008D01*
X-8447Y-25165D01*
X-8484Y-25350D01*
X-8447Y-25535D01*
X-8342Y-25692D01*
X-8185Y-25797D01*
X-8000Y-25834D01*
X-7942Y-25823D01*
X-7632Y-26132D01*
X-7537Y-26196D01*
X-7425Y-26218D01*
X-5450D01*
X-5358Y-26368D01*
X-5384Y-26500D01*
X-5347Y-26685D01*
X-5242Y-26842D01*
X-5085Y-26947D01*
X-4900Y-26984D01*
X-4715Y-26947D01*
X-4558Y-26842D01*
X-4453Y-26685D01*
X-4416Y-26500D01*
X-4442Y-26368D01*
X-4350Y-26218D01*
X-3596D01*
X-2043Y-27771D01*
Y-52129D01*
X-2651Y-52737D01*
X-4063D01*
X-4093Y-52587D01*
X-3900Y-52507D01*
X-3681Y-52339D01*
X-3513Y-52120D01*
X-3407Y-51864D01*
X-3371Y-51590D01*
X-3407Y-51316D01*
X-3513Y-51060D01*
X-3681Y-50841D01*
X-3900Y-50673D01*
X-4156Y-50567D01*
X-4430Y-50531D01*
X-4704Y-50567D01*
X-4960Y-50673D01*
X-5179Y-50841D01*
X-5347Y-51060D01*
X-5453Y-51316D01*
X-5489Y-51590D01*
X-5453Y-51864D01*
X-5347Y-52120D01*
X-5179Y-52339D01*
X-4960Y-52507D01*
X-4767Y-52587D01*
X-4797Y-52737D01*
X-5325D01*
X-5358Y-52688D01*
X-5515Y-52583D01*
X-5700Y-52546D01*
X-5885Y-52583D01*
X-6042Y-52688D01*
X-6147Y-52845D01*
X-6184Y-53030D01*
X-6147Y-53215D01*
X-6042Y-53372D01*
X-5885Y-53477D01*
X-5700Y-53514D01*
X-5515Y-53477D01*
X-5358Y-53372D01*
X-5325Y-53323D01*
X-2540D01*
X-2535Y-53322D01*
X-2530Y-53323D01*
X-2418Y-53301D01*
X-2323Y-53237D01*
X-1543Y-52457D01*
X-1479Y-52362D01*
X-1457Y-52250D01*
Y-27650D01*
X-1479Y-27538D01*
X-1543Y-27443D01*
X-3268Y-25718D01*
X-3363Y-25654D01*
X-3475Y-25632D01*
X-4350D01*
X-4442Y-25482D01*
X-4416Y-25350D01*
X-4453Y-25165D01*
X-4558Y-25008D01*
X-4715Y-24903D01*
X-4900Y-24866D01*
D02*
G37*
G36*
X-52930Y-27684D02*
Y-28630D01*
X-51984D01*
X-52007Y-28456D01*
X-52113Y-28200D01*
X-52281Y-27981D01*
X-52500Y-27813D01*
X-52756Y-27707D01*
X-52930Y-27684D01*
D02*
G37*
G36*
X-4430Y-35291D02*
X-4704Y-35327D01*
X-4960Y-35433D01*
X-5179Y-35601D01*
X-5347Y-35820D01*
X-5453Y-36076D01*
X-5489Y-36350D01*
X-5453Y-36624D01*
X-5347Y-36880D01*
X-5179Y-37099D01*
X-4960Y-37267D01*
X-4704Y-37373D01*
X-4430Y-37409D01*
X-4156Y-37373D01*
X-3900Y-37267D01*
X-3681Y-37099D01*
X-3513Y-36880D01*
X-3407Y-36624D01*
X-3371Y-36350D01*
X-3407Y-36076D01*
X-3513Y-35820D01*
X-3681Y-35601D01*
X-3900Y-35433D01*
X-4156Y-35327D01*
X-4430Y-35291D01*
D02*
G37*
G36*
X-55570D02*
X-55844Y-35327D01*
X-56100Y-35433D01*
X-56319Y-35601D01*
X-56487Y-35820D01*
X-56593Y-36076D01*
X-56629Y-36350D01*
X-56593Y-36624D01*
X-56487Y-36880D01*
X-56319Y-37099D01*
X-56100Y-37267D01*
X-55844Y-37373D01*
X-55570Y-37409D01*
X-55296Y-37373D01*
X-55040Y-37267D01*
X-54821Y-37099D01*
X-54653Y-36880D01*
X-54547Y-36624D01*
X-54511Y-36350D01*
X-54547Y-36076D01*
X-54653Y-35820D01*
X-54821Y-35601D01*
X-55040Y-35433D01*
X-55296Y-35327D01*
X-55570Y-35291D01*
D02*
G37*
G36*
X-53130Y-27684D02*
X-53304Y-27707D01*
X-53560Y-27813D01*
X-53779Y-27981D01*
X-53947Y-28200D01*
X-54053Y-28456D01*
X-54076Y-28630D01*
X-53130D01*
Y-27684D01*
D02*
G37*
G36*
X-3384Y-28830D02*
X-4330D01*
Y-29776D01*
X-4156Y-29753D01*
X-3900Y-29647D01*
X-3681Y-29479D01*
X-3513Y-29260D01*
X-3407Y-29004D01*
X-3384Y-28830D01*
D02*
G37*
G36*
X-8300Y-26691D02*
X-8485Y-26728D01*
X-8642Y-26833D01*
X-8747Y-26990D01*
X-8784Y-27175D01*
X-8747Y-27360D01*
X-8642Y-27517D01*
X-8485Y-27622D01*
X-8300Y-27659D01*
X-8236Y-27647D01*
X-8089Y-27674D01*
X-8020Y-27740D01*
X-8020Y-27740D01*
X-8020Y-27790D01*
X-8020D01*
X-8020Y-27793D01*
Y-29780D01*
X-5920D01*
Y-27680D01*
X-7893D01*
X-7931Y-27680D01*
X-7960Y-27583D01*
X-7960Y-27583D01*
Y-27583D01*
D01*
X-7912Y-27450D01*
X-7853Y-27360D01*
X-7816Y-27175D01*
X-7853Y-26990D01*
X-7958Y-26833D01*
X-8115Y-26728D01*
X-8300Y-26691D01*
D02*
G37*
G36*
X-55570Y-27671D02*
X-55844Y-27707D01*
X-56100Y-27813D01*
X-56319Y-27981D01*
X-56487Y-28200D01*
X-56593Y-28456D01*
X-56629Y-28730D01*
X-56593Y-29004D01*
X-56487Y-29260D01*
X-56319Y-29479D01*
X-56100Y-29647D01*
X-55844Y-29753D01*
X-55570Y-29789D01*
X-55296Y-29753D01*
X-55040Y-29647D01*
X-54821Y-29479D01*
X-54653Y-29260D01*
X-54547Y-29004D01*
X-54511Y-28730D01*
X-54547Y-28456D01*
X-54653Y-28200D01*
X-54821Y-27981D01*
X-55040Y-27813D01*
X-55296Y-27707D01*
X-55570Y-27671D01*
D02*
G37*
G36*
X-51984Y-28830D02*
X-52930D01*
Y-29776D01*
X-52756Y-29753D01*
X-52500Y-29647D01*
X-52281Y-29479D01*
X-52113Y-29260D01*
X-52007Y-29004D01*
X-51984Y-28830D01*
D02*
G37*
G36*
X-4530Y-28830D02*
X-5476D01*
X-5453Y-29004D01*
X-5347Y-29260D01*
X-5179Y-29479D01*
X-4960Y-29647D01*
X-4704Y-29753D01*
X-4530Y-29776D01*
Y-28830D01*
D02*
G37*
G36*
X-53130Y-28830D02*
X-54076D01*
X-54053Y-29004D01*
X-53947Y-29260D01*
X-53779Y-29479D01*
X-53560Y-29647D01*
X-53304Y-29753D01*
X-53130Y-29776D01*
Y-28830D01*
D02*
G37*
G36*
X-45300Y-35400D02*
X-45409Y-35500D01*
X-45450D01*
X-46100D01*
Y-36500D01*
Y-37500D01*
X-45409D01*
X-45300Y-37600D01*
X-45191Y-37600D01*
X-44200D01*
Y-36600D01*
Y-35850D01*
X-44750D01*
Y-35750D01*
X-44850D01*
Y-35400D01*
X-45300D01*
D02*
G37*
G36*
X-44650Y-35400D02*
Y-35650D01*
X-44200D01*
Y-35400D01*
X-44650D01*
D02*
G37*
G36*
X-38243Y-35175D02*
X-38723D01*
Y-35656D01*
X-38243D01*
Y-35175D01*
D02*
G37*
G36*
X-4530Y-27684D02*
X-4704Y-27707D01*
X-4960Y-27813D01*
X-5179Y-27981D01*
X-5347Y-28200D01*
X-5453Y-28456D01*
X-5476Y-28630D01*
X-4530D01*
Y-27684D01*
D02*
G37*
G36*
X-38243Y-34494D02*
X-38723D01*
Y-34975D01*
X-38243D01*
Y-34494D01*
D02*
G37*
G36*
X-38923D02*
X-39404D01*
Y-34975D01*
X-38923D01*
Y-34494D01*
D02*
G37*
G36*
X-41530Y-51984D02*
X-41704Y-52007D01*
X-41960Y-52113D01*
X-42179Y-52281D01*
X-42347Y-52500D01*
X-42453Y-52756D01*
X-42476Y-52930D01*
X-41530D01*
Y-51984D01*
D02*
G37*
G36*
X-40384Y-53130D02*
X-41330D01*
Y-54076D01*
X-41156Y-54053D01*
X-40900Y-53947D01*
X-40681Y-53779D01*
X-40513Y-53560D01*
X-40407Y-53304D01*
X-40384Y-53130D01*
D02*
G37*
G36*
X-41530D02*
X-42476D01*
X-42453Y-53304D01*
X-42347Y-53560D01*
X-42179Y-53779D01*
X-41960Y-53947D01*
X-41704Y-54053D01*
X-41530Y-54076D01*
Y-53130D01*
D02*
G37*
G36*
X-41330Y-51984D02*
Y-52930D01*
X-40384D01*
X-40407Y-52756D01*
X-40513Y-52500D01*
X-40681Y-52281D01*
X-40900Y-52113D01*
X-41156Y-52007D01*
X-41330Y-51984D01*
D02*
G37*
G36*
X-54524Y-51690D02*
X-55470D01*
Y-52636D01*
X-55296Y-52613D01*
X-55040Y-52507D01*
X-54821Y-52339D01*
X-54653Y-52120D01*
X-54547Y-51864D01*
X-54524Y-51690D01*
D02*
G37*
G36*
X-55670D02*
X-56616D01*
X-56593Y-51864D01*
X-56487Y-52120D01*
X-56319Y-52339D01*
X-56100Y-52507D01*
X-55844Y-52613D01*
X-55670Y-52636D01*
Y-51690D01*
D02*
G37*
G36*
X-5924Y-51690D02*
X-6870D01*
Y-52636D01*
X-6696Y-52613D01*
X-6440Y-52507D01*
X-6221Y-52339D01*
X-6053Y-52120D01*
X-5947Y-51864D01*
X-5924Y-51690D01*
D02*
G37*
G36*
X-21110Y-54511D02*
X-21384Y-54547D01*
X-21640Y-54653D01*
X-21859Y-54821D01*
X-22027Y-55040D01*
X-22133Y-55296D01*
X-22169Y-55570D01*
X-22133Y-55844D01*
X-22027Y-56100D01*
X-21859Y-56319D01*
X-21640Y-56487D01*
X-21384Y-56593D01*
X-21110Y-56629D01*
X-20836Y-56593D01*
X-20580Y-56487D01*
X-20361Y-56319D01*
X-20193Y-56100D01*
X-20087Y-55844D01*
X-20051Y-55570D01*
X-20087Y-55296D01*
X-20193Y-55040D01*
X-20361Y-54821D01*
X-20580Y-54653D01*
X-20836Y-54547D01*
X-21110Y-54511D01*
D02*
G37*
G36*
X-23650D02*
X-23924Y-54547D01*
X-24180Y-54653D01*
X-24399Y-54821D01*
X-24567Y-55040D01*
X-24673Y-55296D01*
X-24709Y-55570D01*
X-24673Y-55844D01*
X-24567Y-56100D01*
X-24399Y-56319D01*
X-24180Y-56487D01*
X-23924Y-56593D01*
X-23650Y-56629D01*
X-23376Y-56593D01*
X-23120Y-56487D01*
X-22901Y-56319D01*
X-22733Y-56100D01*
X-22627Y-55844D01*
X-22591Y-55570D01*
X-22627Y-55296D01*
X-22733Y-55040D01*
X-22901Y-54821D01*
X-23120Y-54653D01*
X-23376Y-54547D01*
X-23650Y-54511D01*
D02*
G37*
G36*
X-26190D02*
X-26464Y-54547D01*
X-26720Y-54653D01*
X-26939Y-54821D01*
X-27107Y-55040D01*
X-27213Y-55296D01*
X-27249Y-55570D01*
X-27213Y-55844D01*
X-27107Y-56100D01*
X-26939Y-56319D01*
X-26720Y-56487D01*
X-26464Y-56593D01*
X-26190Y-56629D01*
X-25916Y-56593D01*
X-25660Y-56487D01*
X-25441Y-56319D01*
X-25273Y-56100D01*
X-25167Y-55844D01*
X-25131Y-55570D01*
X-25167Y-55296D01*
X-25273Y-55040D01*
X-25441Y-54821D01*
X-25660Y-54653D01*
X-25916Y-54547D01*
X-26190Y-54511D01*
D02*
G37*
G36*
X-18670Y-55670D02*
X-19616D01*
X-19593Y-55844D01*
X-19487Y-56100D01*
X-19319Y-56319D01*
X-19100Y-56487D01*
X-18844Y-56593D01*
X-18670Y-56616D01*
Y-55670D01*
D02*
G37*
G36*
X-18470Y-54524D02*
Y-55470D01*
X-17524D01*
X-17547Y-55296D01*
X-17653Y-55040D01*
X-17821Y-54821D01*
X-18040Y-54653D01*
X-18296Y-54547D01*
X-18470Y-54524D01*
D02*
G37*
G36*
X-18670D02*
X-18844Y-54547D01*
X-19100Y-54653D01*
X-19319Y-54821D01*
X-19487Y-55040D01*
X-19593Y-55296D01*
X-19616Y-55470D01*
X-18670D01*
Y-54524D01*
D02*
G37*
G36*
X-17524Y-55670D02*
X-18470D01*
Y-56616D01*
X-18296Y-56593D01*
X-18040Y-56487D01*
X-17821Y-56319D01*
X-17653Y-56100D01*
X-17547Y-55844D01*
X-17524Y-55670D01*
D02*
G37*
G36*
X-7070Y-51690D02*
X-8016D01*
X-7993Y-51864D01*
X-7887Y-52120D01*
X-7719Y-52339D01*
X-7500Y-52507D01*
X-7244Y-52613D01*
X-7070Y-52636D01*
Y-51690D01*
D02*
G37*
G36*
X-55570Y-37831D02*
X-55844Y-37867D01*
X-56100Y-37973D01*
X-56319Y-38141D01*
X-56487Y-38360D01*
X-56593Y-38616D01*
X-56629Y-38890D01*
X-56593Y-39164D01*
X-56487Y-39420D01*
X-56319Y-39639D01*
X-56100Y-39807D01*
X-55844Y-39913D01*
X-55570Y-39949D01*
X-55296Y-39913D01*
X-55040Y-39807D01*
X-54821Y-39639D01*
X-54653Y-39420D01*
X-54547Y-39164D01*
X-54511Y-38890D01*
X-54547Y-38616D01*
X-54653Y-38360D01*
X-54821Y-38141D01*
X-55040Y-37973D01*
X-55296Y-37867D01*
X-55570Y-37831D01*
D02*
G37*
G36*
X-17725Y-39600D02*
X-18275D01*
Y-40000D01*
X-17725D01*
Y-39600D01*
D02*
G37*
G36*
X-55570Y-40371D02*
X-55844Y-40407D01*
X-56100Y-40513D01*
X-56319Y-40681D01*
X-56487Y-40900D01*
X-56593Y-41156D01*
X-56629Y-41430D01*
X-56593Y-41704D01*
X-56487Y-41960D01*
X-56319Y-42179D01*
X-56100Y-42347D01*
X-55844Y-42453D01*
X-55570Y-42489D01*
X-55296Y-42453D01*
X-55040Y-42347D01*
X-54821Y-42179D01*
X-54653Y-41960D01*
X-54547Y-41704D01*
X-54511Y-41430D01*
X-54547Y-41156D01*
X-54653Y-40900D01*
X-54821Y-40681D01*
X-55040Y-40513D01*
X-55296Y-40407D01*
X-55570Y-40371D01*
D02*
G37*
G36*
X-4430Y-37831D02*
X-4704Y-37867D01*
X-4960Y-37973D01*
X-5179Y-38141D01*
X-5347Y-38360D01*
X-5453Y-38616D01*
X-5489Y-38890D01*
X-5453Y-39164D01*
X-5347Y-39420D01*
X-5179Y-39639D01*
X-4960Y-39807D01*
X-4704Y-39913D01*
X-4430Y-39949D01*
X-4156Y-39913D01*
X-3900Y-39807D01*
X-3681Y-39639D01*
X-3513Y-39420D01*
X-3407Y-39164D01*
X-3371Y-38890D01*
X-3407Y-38616D01*
X-3513Y-38360D01*
X-3681Y-38141D01*
X-3900Y-37973D01*
X-4156Y-37867D01*
X-4430Y-37831D01*
D02*
G37*
G36*
X-45000Y-37825D02*
X-45550D01*
Y-38225D01*
X-45000D01*
Y-37825D01*
D02*
G37*
G36*
Y-38425D02*
X-45550D01*
Y-38825D01*
X-45000D01*
Y-38425D01*
D02*
G37*
G36*
X-17725Y-39000D02*
X-18275D01*
Y-39400D01*
X-17725D01*
Y-39000D01*
D02*
G37*
G36*
X-20800Y-45925D02*
X-22400D01*
Y-47275D01*
X-20800D01*
Y-45925D01*
D02*
G37*
G36*
X-19000Y-47475D02*
X-20600D01*
Y-48825D01*
X-19000D01*
Y-47475D01*
D02*
G37*
G36*
X-20800D02*
X-22400D01*
Y-48825D01*
X-20800D01*
Y-47475D01*
D02*
G37*
G36*
X-19000Y-45925D02*
X-20600D01*
Y-47275D01*
X-19000D01*
Y-45925D01*
D02*
G37*
G36*
X-4430Y-42911D02*
X-4704Y-42947D01*
X-4960Y-43053D01*
X-5179Y-43221D01*
X-5347Y-43440D01*
X-5453Y-43696D01*
X-5489Y-43970D01*
X-5453Y-44244D01*
X-5347Y-44500D01*
X-5179Y-44719D01*
X-4960Y-44887D01*
X-4704Y-44993D01*
X-4430Y-45029D01*
X-4156Y-44993D01*
X-3900Y-44887D01*
X-3681Y-44719D01*
X-3513Y-44500D01*
X-3407Y-44244D01*
X-3371Y-43970D01*
X-3407Y-43696D01*
X-3513Y-43440D01*
X-3681Y-43221D01*
X-3900Y-43053D01*
X-4156Y-42947D01*
X-4430Y-42911D01*
D02*
G37*
G36*
X-6970D02*
X-7244Y-42947D01*
X-7500Y-43053D01*
X-7719Y-43221D01*
X-7887Y-43440D01*
X-7993Y-43696D01*
X-8029Y-43970D01*
X-7993Y-44244D01*
X-7887Y-44500D01*
X-7719Y-44719D01*
X-7500Y-44887D01*
X-7244Y-44993D01*
X-6970Y-45029D01*
X-6696Y-44993D01*
X-6440Y-44887D01*
X-6221Y-44719D01*
X-6053Y-44500D01*
X-5947Y-44244D01*
X-5911Y-43970D01*
X-5947Y-43696D01*
X-6053Y-43440D01*
X-6221Y-43221D01*
X-6440Y-43053D01*
X-6696Y-42947D01*
X-6970Y-42911D01*
D02*
G37*
G36*
X-55570D02*
X-55844Y-42947D01*
X-56100Y-43053D01*
X-56319Y-43221D01*
X-56487Y-43440D01*
X-56593Y-43696D01*
X-56629Y-43970D01*
X-56593Y-44244D01*
X-56487Y-44500D01*
X-56319Y-44719D01*
X-56100Y-44887D01*
X-55844Y-44993D01*
X-55570Y-45029D01*
X-55296Y-44993D01*
X-55040Y-44887D01*
X-54821Y-44719D01*
X-54653Y-44500D01*
X-54547Y-44244D01*
X-54511Y-43970D01*
X-54547Y-43696D01*
X-54653Y-43440D01*
X-54821Y-43221D01*
X-55040Y-43053D01*
X-55296Y-42947D01*
X-55570Y-42911D01*
D02*
G37*
G36*
X-17375Y-7475D02*
X-17725D01*
Y-7900D01*
X-17375D01*
Y-7475D01*
D02*
G37*
G36*
X-35100Y-7750D02*
X-35700D01*
Y-8028D01*
X-35850Y-8108D01*
X-35877Y-8090D01*
X-36062Y-8053D01*
X-36248Y-8090D01*
X-36405Y-8195D01*
X-36510Y-8352D01*
X-36547Y-8538D01*
X-36510Y-8723D01*
X-36405Y-8880D01*
X-36248Y-8985D01*
X-36062Y-9022D01*
X-35877Y-8985D01*
X-35850Y-8967D01*
X-35700Y-8975D01*
X-35700Y-8975D01*
X-35700Y-8975D01*
X-35100D01*
Y-7750D01*
D02*
G37*
G36*
X-27300Y-7750D02*
X-27900D01*
Y-8975D01*
X-27300D01*
Y-7750D01*
D02*
G37*
G36*
X-18825Y-7500D02*
X-19200D01*
Y-7900D01*
X-18825D01*
Y-7500D01*
D02*
G37*
G36*
X-34300Y-6325D02*
X-34900D01*
Y-7550D01*
X-34300D01*
Y-6325D01*
D02*
G37*
G36*
X-35100D02*
X-35700D01*
Y-7550D01*
X-35100D01*
Y-6325D01*
D02*
G37*
G36*
X-5700Y-2750D02*
X-7300D01*
Y-4350D01*
X-6115D01*
X-3007Y-7457D01*
X-2912Y-7521D01*
X-2800Y-7543D01*
X-1575D01*
X-1542Y-7592D01*
X-1385Y-7697D01*
X-1200Y-7734D01*
X-1015Y-7697D01*
X-858Y-7592D01*
X-753Y-7435D01*
X-716Y-7250D01*
X-753Y-7065D01*
X-858Y-6908D01*
X-1015Y-6803D01*
X-1200Y-6766D01*
X-1385Y-6803D01*
X-1542Y-6908D01*
X-1575Y-6957D01*
X-2679D01*
X-5700Y-3935D01*
Y-2750D01*
D02*
G37*
G36*
X-4550Y-9316D02*
X-4735Y-9353D01*
X-4892Y-9458D01*
X-4997Y-9615D01*
X-5034Y-9800D01*
X-4997Y-9985D01*
X-4892Y-10142D01*
X-4735Y-10247D01*
X-4550Y-10284D01*
X-4365Y-10247D01*
X-4208Y-10142D01*
X-4103Y-9985D01*
X-4066Y-9800D01*
X-4103Y-9615D01*
X-4208Y-9458D01*
X-4365Y-9353D01*
X-4550Y-9316D01*
D02*
G37*
G36*
X-24175Y-10775D02*
X-24600D01*
Y-11125D01*
X-24175D01*
Y-10775D01*
D02*
G37*
G36*
X-28800Y-10491D02*
X-28985Y-10528D01*
X-29142Y-10633D01*
X-29247Y-10790D01*
X-29284Y-10975D01*
X-29247Y-11160D01*
X-29142Y-11317D01*
X-28985Y-11422D01*
X-28800Y-11459D01*
X-28615Y-11422D01*
X-28458Y-11317D01*
X-28353Y-11160D01*
X-28316Y-10975D01*
X-28353Y-10790D01*
X-28458Y-10633D01*
X-28615Y-10528D01*
X-28800Y-10491D01*
D02*
G37*
G36*
X-12075Y-9675D02*
X-12425D01*
Y-10100D01*
X-12075D01*
Y-9675D01*
D02*
G37*
G36*
X-28100Y-7750D02*
X-28700D01*
Y-8975D01*
X-28100D01*
Y-7750D01*
D02*
G37*
G36*
X-34300Y-7750D02*
X-34900D01*
Y-8975D01*
X-34300D01*
Y-7750D01*
D02*
G37*
G36*
X-11325Y-9675D02*
X-11675D01*
Y-10100D01*
X-11325D01*
Y-9675D01*
D02*
G37*
G36*
X-27300Y-2250D02*
X-27900D01*
Y-3475D01*
X-27300D01*
Y-2250D01*
D02*
G37*
G36*
X-28100D02*
X-28700D01*
Y-3475D01*
X-28100D01*
Y-2250D01*
D02*
G37*
G36*
X-34300Y-2250D02*
X-34900D01*
Y-3475D01*
X-34300D01*
Y-2250D01*
D02*
G37*
G36*
X-35100Y-825D02*
X-35700D01*
Y-2050D01*
X-35100D01*
Y-825D01*
D02*
G37*
G36*
X-27300D02*
X-27900D01*
Y-2050D01*
X-27300D01*
Y-825D01*
D02*
G37*
G36*
X-28100D02*
X-28700D01*
Y-2050D01*
X-28100D01*
Y-825D01*
D02*
G37*
G36*
X-34300D02*
X-34900D01*
Y-2050D01*
X-34300D01*
Y-825D01*
D02*
G37*
G36*
X-16416Y-6900D02*
X-17066D01*
Y-7500D01*
X-16416D01*
Y-6900D01*
D02*
G37*
G36*
X-27300Y-6325D02*
X-27900D01*
Y-7550D01*
X-27300D01*
Y-6325D01*
D02*
G37*
G36*
X-28100D02*
X-28700D01*
Y-7550D01*
X-28100D01*
Y-6325D01*
D02*
G37*
G36*
X-32400Y-5466D02*
X-32585Y-5503D01*
X-32742Y-5608D01*
X-32847Y-5765D01*
X-32884Y-5950D01*
X-32847Y-6135D01*
X-32742Y-6292D01*
X-32585Y-6397D01*
X-32400Y-6434D01*
X-32215Y-6397D01*
X-32058Y-6292D01*
X-31953Y-6135D01*
X-31916Y-5950D01*
X-31953Y-5765D01*
X-32058Y-5608D01*
X-32215Y-5503D01*
X-32400Y-5466D01*
D02*
G37*
G36*
X-35100Y-2250D02*
X-35700D01*
Y-3475D01*
X-35100D01*
Y-2250D01*
D02*
G37*
G36*
X-32400Y-3866D02*
X-32585Y-3903D01*
X-32742Y-4008D01*
X-32847Y-4165D01*
X-32884Y-4350D01*
X-32847Y-4535D01*
X-32742Y-4692D01*
X-32585Y-4797D01*
X-32400Y-4834D01*
X-32215Y-4797D01*
X-32058Y-4692D01*
X-31953Y-4535D01*
X-31916Y-4350D01*
X-31953Y-4165D01*
X-32058Y-4008D01*
X-32215Y-3903D01*
X-32400Y-3866D01*
D02*
G37*
G36*
X-33300Y-4666D02*
X-33485Y-4703D01*
X-33642Y-4808D01*
X-33747Y-4965D01*
X-33784Y-5150D01*
X-33747Y-5335D01*
X-33642Y-5492D01*
X-33485Y-5597D01*
X-33300Y-5634D01*
X-33115Y-5597D01*
X-32958Y-5492D01*
X-32853Y-5335D01*
X-32816Y-5150D01*
X-32853Y-4965D01*
X-32958Y-4808D01*
X-33115Y-4703D01*
X-33300Y-4666D01*
D02*
G37*
G36*
X-40220Y-9900D02*
X-42320D01*
Y-12000D01*
X-40220D01*
Y-9900D01*
D02*
G37*
G36*
X-6970Y-14971D02*
X-7244Y-15007D01*
X-7500Y-15113D01*
X-7719Y-15281D01*
X-7887Y-15500D01*
X-7993Y-15756D01*
X-8029Y-16030D01*
X-7993Y-16304D01*
X-7887Y-16560D01*
X-7719Y-16779D01*
X-7500Y-16947D01*
X-7244Y-17053D01*
X-6970Y-17089D01*
X-6696Y-17053D01*
X-6440Y-16947D01*
X-6221Y-16779D01*
X-6053Y-16560D01*
X-5947Y-16304D01*
X-5911Y-16030D01*
X-5947Y-15756D01*
X-6053Y-15500D01*
X-6221Y-15281D01*
X-6440Y-15113D01*
X-6696Y-15007D01*
X-6970Y-14971D01*
D02*
G37*
G36*
X-58130Y-17511D02*
X-58404Y-17547D01*
X-58660Y-17653D01*
X-58879Y-17821D01*
X-59047Y-18040D01*
X-59153Y-18296D01*
X-59189Y-18570D01*
X-59153Y-18844D01*
X-59047Y-19100D01*
X-58879Y-19319D01*
X-58660Y-19487D01*
X-58404Y-19593D01*
X-58130Y-19629D01*
X-57856Y-19593D01*
X-57600Y-19487D01*
X-57381Y-19319D01*
X-57213Y-19100D01*
X-57107Y-18844D01*
X-57071Y-18570D01*
X-57107Y-18296D01*
X-57213Y-18040D01*
X-57381Y-17821D01*
X-57600Y-17653D01*
X-57856Y-17547D01*
X-58130Y-17511D01*
D02*
G37*
G36*
X-37375Y-18841D02*
X-37560Y-18878D01*
X-37717Y-18983D01*
X-37822Y-19140D01*
X-37859Y-19325D01*
X-37822Y-19510D01*
X-37717Y-19667D01*
X-37560Y-19772D01*
X-37375Y-19809D01*
X-37190Y-19772D01*
X-37033Y-19667D01*
X-36928Y-19510D01*
X-36891Y-19325D01*
X-36928Y-19140D01*
X-37033Y-18983D01*
X-37190Y-18878D01*
X-37375Y-18841D01*
D02*
G37*
G36*
X-4430Y-14971D02*
X-4704Y-15007D01*
X-4960Y-15113D01*
X-5179Y-15281D01*
X-5347Y-15500D01*
X-5453Y-15756D01*
X-5489Y-16030D01*
X-5453Y-16304D01*
X-5347Y-16560D01*
X-5179Y-16779D01*
X-4960Y-16947D01*
X-4704Y-17053D01*
X-4430Y-17089D01*
X-4156Y-17053D01*
X-3900Y-16947D01*
X-3681Y-16779D01*
X-3513Y-16560D01*
X-3407Y-16304D01*
X-3371Y-16030D01*
X-3407Y-15756D01*
X-3513Y-15500D01*
X-3681Y-15281D01*
X-3900Y-15113D01*
X-4156Y-15007D01*
X-4430Y-14971D01*
D02*
G37*
G36*
X-58230Y-13590D02*
X-59176D01*
X-59153Y-13764D01*
X-59047Y-14020D01*
X-58879Y-14239D01*
X-58660Y-14407D01*
X-58404Y-14513D01*
X-58230Y-14536D01*
Y-13590D01*
D02*
G37*
G36*
X-5920Y-12440D02*
X-8020D01*
Y-14540D01*
X-5920D01*
Y-12440D01*
D02*
G37*
G36*
X-29350Y-15591D02*
X-29535Y-15628D01*
X-29692Y-15733D01*
X-29797Y-15890D01*
X-29834Y-16075D01*
X-29826Y-16118D01*
X-30427Y-16719D01*
X-33058D01*
X-33083Y-16683D01*
X-33240Y-16578D01*
X-33425Y-16541D01*
X-33610Y-16578D01*
X-33767Y-16683D01*
X-33872Y-16840D01*
X-33909Y-17025D01*
X-33872Y-17210D01*
X-33767Y-17367D01*
X-33610Y-17472D01*
X-33425Y-17509D01*
X-33240Y-17472D01*
X-33083Y-17367D01*
X-33058Y-17331D01*
X-30300D01*
X-30300Y-17331D01*
X-30183Y-17308D01*
X-30084Y-17241D01*
X-29393Y-16551D01*
X-29350Y-16559D01*
X-29165Y-16522D01*
X-29008Y-16417D01*
X-28903Y-16260D01*
X-28866Y-16075D01*
X-28903Y-15890D01*
X-29008Y-15733D01*
X-29165Y-15628D01*
X-29350Y-15591D01*
D02*
G37*
G36*
X-2442Y-23110D02*
X-3060D01*
Y-23728D01*
X-2971Y-23716D01*
X-2794Y-23643D01*
X-2643Y-23527D01*
X-2527Y-23376D01*
X-2454Y-23199D01*
X-2442Y-23110D01*
D02*
G37*
G36*
X-46920Y-22600D02*
X-49020D01*
Y-24700D01*
X-46920D01*
Y-22600D01*
D02*
G37*
G36*
X-57080Y-22600D02*
X-59180D01*
Y-24700D01*
X-57080D01*
Y-22600D01*
D02*
G37*
G36*
X-58130Y-20051D02*
X-58404Y-20087D01*
X-58660Y-20193D01*
X-58879Y-20361D01*
X-59047Y-20580D01*
X-59153Y-20836D01*
X-59189Y-21110D01*
X-59153Y-21384D01*
X-59047Y-21640D01*
X-58879Y-21859D01*
X-58660Y-22027D01*
X-58404Y-22133D01*
X-58130Y-22169D01*
X-57856Y-22133D01*
X-57600Y-22027D01*
X-57381Y-21859D01*
X-57213Y-21640D01*
X-57107Y-21384D01*
X-57071Y-21110D01*
X-57107Y-20836D01*
X-57213Y-20580D01*
X-57381Y-20361D01*
X-57600Y-20193D01*
X-57856Y-20087D01*
X-58130Y-20051D01*
D02*
G37*
G36*
X-33900Y-19516D02*
X-34085Y-19553D01*
X-34242Y-19658D01*
X-34347Y-19815D01*
X-34384Y-20000D01*
X-34347Y-20185D01*
X-34242Y-20342D01*
X-34085Y-20447D01*
X-33900Y-20484D01*
X-33715Y-20447D01*
X-33558Y-20342D01*
X-33453Y-20185D01*
X-33416Y-20000D01*
X-33453Y-19815D01*
X-33558Y-19658D01*
X-33715Y-19553D01*
X-33900Y-19516D01*
D02*
G37*
G36*
X-31525Y-20941D02*
X-31710Y-20978D01*
X-31867Y-21083D01*
X-31972Y-21240D01*
X-32009Y-21425D01*
X-31972Y-21610D01*
X-31867Y-21767D01*
X-31710Y-21872D01*
X-31525Y-21909D01*
X-31340Y-21872D01*
X-31183Y-21767D01*
X-31078Y-21610D01*
X-31041Y-21425D01*
X-31078Y-21240D01*
X-31183Y-21083D01*
X-31340Y-20978D01*
X-31525Y-20941D01*
D02*
G37*
G36*
X-47970Y-20051D02*
X-48244Y-20087D01*
X-48500Y-20193D01*
X-48719Y-20361D01*
X-48887Y-20580D01*
X-48993Y-20836D01*
X-49029Y-21110D01*
X-48993Y-21384D01*
X-48887Y-21640D01*
X-48719Y-21859D01*
X-48500Y-22027D01*
X-48244Y-22133D01*
X-47970Y-22169D01*
X-47696Y-22133D01*
X-47440Y-22027D01*
X-47221Y-21859D01*
X-47053Y-21640D01*
X-46947Y-21384D01*
X-46911Y-21110D01*
X-46947Y-20836D01*
X-47053Y-20580D01*
X-47221Y-20361D01*
X-47440Y-20193D01*
X-47696Y-20087D01*
X-47970Y-20051D01*
D02*
G37*
G36*
X-48070Y-12444D02*
X-48244Y-12467D01*
X-48500Y-12573D01*
X-48719Y-12741D01*
X-48887Y-12960D01*
X-48993Y-13216D01*
X-49016Y-13390D01*
X-48070D01*
Y-12444D01*
D02*
G37*
G36*
X-58030Y-12444D02*
Y-13390D01*
X-57084D01*
X-57107Y-13216D01*
X-57213Y-12960D01*
X-57381Y-12741D01*
X-57600Y-12573D01*
X-57856Y-12467D01*
X-58030Y-12444D01*
D02*
G37*
G36*
X-58230D02*
X-58404Y-12467D01*
X-58660Y-12573D01*
X-58879Y-12741D01*
X-59047Y-12960D01*
X-59153Y-13216D01*
X-59176Y-13390D01*
X-58230D01*
Y-12444D01*
D02*
G37*
G36*
X-47870Y-12444D02*
Y-13390D01*
X-46924D01*
X-46947Y-13216D01*
X-47053Y-12960D01*
X-47221Y-12741D01*
X-47440Y-12573D01*
X-47696Y-12467D01*
X-47870Y-12444D01*
D02*
G37*
G36*
X-27775Y-11241D02*
X-27960Y-11278D01*
X-28117Y-11383D01*
X-28222Y-11540D01*
X-28259Y-11725D01*
X-28222Y-11910D01*
X-28117Y-12067D01*
X-27960Y-12172D01*
X-27775Y-12209D01*
X-27590Y-12172D01*
X-27433Y-12067D01*
X-27328Y-11910D01*
X-27291Y-11725D01*
X-27328Y-11540D01*
X-27433Y-11383D01*
X-27590Y-11278D01*
X-27775Y-11241D01*
D02*
G37*
G36*
X-37680Y-9900D02*
X-39780D01*
Y-12000D01*
X-37680D01*
Y-11643D01*
X-36306D01*
X-36200Y-11749D01*
X-36200Y-11950D01*
X-36200Y-12138D01*
X-36306Y-12244D01*
X-36925D01*
X-36925Y-12244D01*
X-37042Y-12267D01*
X-37141Y-12334D01*
X-37141Y-12334D01*
X-37532Y-12724D01*
X-37575Y-12716D01*
X-37760Y-12753D01*
X-37917Y-12858D01*
X-38022Y-13015D01*
X-38059Y-13200D01*
X-38022Y-13385D01*
X-37917Y-13542D01*
X-37760Y-13647D01*
X-37575Y-13684D01*
X-37390Y-13647D01*
X-37233Y-13542D01*
X-37128Y-13385D01*
X-37091Y-13200D01*
X-37099Y-13157D01*
X-36798Y-12856D01*
X-36200D01*
Y-13150D01*
X-35150D01*
Y-12656D01*
X-34950D01*
Y-12800D01*
X-33350D01*
Y-11200D01*
X-34950D01*
Y-11923D01*
X-35000Y-11946D01*
X-35150Y-11850D01*
Y-10750D01*
X-36200D01*
Y-11057D01*
X-37680D01*
Y-9900D01*
D02*
G37*
G36*
X-28800Y-11991D02*
X-28985Y-12028D01*
X-29142Y-12133D01*
X-29247Y-12290D01*
X-29284Y-12475D01*
X-29247Y-12660D01*
X-29142Y-12817D01*
X-28985Y-12922D01*
X-28800Y-12959D01*
X-28615Y-12922D01*
X-28458Y-12817D01*
X-28353Y-12660D01*
X-28316Y-12475D01*
X-28353Y-12290D01*
X-28458Y-12133D01*
X-28615Y-12028D01*
X-28800Y-11991D01*
D02*
G37*
G36*
X-4530Y-13590D02*
X-5476D01*
X-5453Y-13764D01*
X-5347Y-14020D01*
X-5179Y-14239D01*
X-4960Y-14407D01*
X-4704Y-14513D01*
X-4530Y-14536D01*
Y-13590D01*
D02*
G37*
G36*
X-3384D02*
X-4330D01*
Y-14536D01*
X-4156Y-14513D01*
X-3900Y-14407D01*
X-3681Y-14239D01*
X-3513Y-14020D01*
X-3407Y-13764D01*
X-3384Y-13590D01*
D02*
G37*
G36*
X-57084Y-13590D02*
X-58030D01*
Y-14536D01*
X-57856Y-14513D01*
X-57600Y-14407D01*
X-57381Y-14239D01*
X-57213Y-14020D01*
X-57107Y-13764D01*
X-57084Y-13590D01*
D02*
G37*
G36*
X-46924Y-13590D02*
X-47870D01*
Y-14536D01*
X-47696Y-14513D01*
X-47440Y-14407D01*
X-47221Y-14239D01*
X-47053Y-14020D01*
X-46947Y-13764D01*
X-46924Y-13590D01*
D02*
G37*
G36*
X-4330Y-12444D02*
Y-13390D01*
X-3384D01*
X-3407Y-13216D01*
X-3513Y-12960D01*
X-3681Y-12741D01*
X-3900Y-12573D01*
X-4156Y-12467D01*
X-4330Y-12444D01*
D02*
G37*
G36*
X-4530D02*
X-4704Y-12467D01*
X-4960Y-12573D01*
X-5179Y-12741D01*
X-5347Y-12960D01*
X-5453Y-13216D01*
X-5476Y-13390D01*
X-4530D01*
Y-12444D01*
D02*
G37*
G36*
X-48070Y-13590D02*
X-49016D01*
X-48993Y-13764D01*
X-48887Y-14020D01*
X-48719Y-14239D01*
X-48500Y-14407D01*
X-48244Y-14513D01*
X-48070Y-14536D01*
Y-13590D01*
D02*
G37*
%LPD*%
D10*
X-15016Y-9722D02*
G03*
X-15085Y-9889I167J-166D01*
G01*
X-14216Y-9300D02*
G03*
X-14861Y-9567I0J-913D01*
G01*
X-15085Y-8711D02*
G03*
X-15016Y-8878I236J0D01*
G01*
X-14861Y-9033D02*
G03*
X-14216Y-9300I645J645D01*
G01*
X-15689Y-9564D02*
G03*
X-16260Y-9300I-645J-645D01*
G01*
D02*
G03*
X-16334Y-9297I-74J-910D01*
G01*
X-15465Y-9886D02*
G03*
X-15534Y-9719I-236J0D01*
G01*
X-16334Y-9303D02*
G03*
X-16260Y-9300I0J913D01*
G01*
D02*
G03*
X-15689Y-9036I-74J910D01*
G01*
X-15534Y-8881D02*
G03*
X-15465Y-8714I-167J166D01*
G01*
X-15085Y-5380D02*
X-14950Y-5245D01*
Y-4475D01*
X-14475Y-9300D02*
X-14475D01*
X-15600Y-5245D02*
Y-4475D01*
X-15465Y-8714D02*
Y-5380D01*
X-15600Y-5245D02*
X-15465Y-5380D01*
X-15016Y-9722D02*
X-14861Y-9567D01*
X-15085Y-8711D02*
Y-5380D01*
X-15016Y-8878D02*
X-14861Y-9033D01*
X-15689Y-9564D02*
X-15534Y-9719D01*
X-15689Y-9036D02*
X-15534Y-8881D01*
X-15465Y-12915D02*
Y-9886D01*
X-15085Y-13072D02*
Y-9886D01*
X-19600Y-18200D02*
Y-17050D01*
X-15465Y-12915D01*
X-19100Y-17400D02*
Y-17087D01*
X-15085Y-13072D01*
D11*
X-8302Y-32775D02*
G03*
X-8000Y-32650I0J427D01*
G01*
X-7759Y-32550D02*
G03*
X-8000Y-32650I0J-341D01*
G01*
X-24475Y-39625D02*
Y-39300D01*
X-25050D02*
X-24475D01*
X-26350Y-38000D02*
X-25050Y-39300D01*
X-48975Y-37550D02*
Y-36625D01*
X-48600Y-36250D01*
X-47650D01*
X-49800Y-37550D02*
Y-36625D01*
X-48925Y-35750D01*
X-47650D01*
X-35275Y-35000D02*
X-33400D01*
X-35275Y-33900D02*
X-35263Y-33912D01*
X-33400Y-34000D02*
Y-33912D01*
X-34300Y-34450D02*
X-34250Y-34500D01*
X-33400D01*
X-34300Y-35550D02*
X-34250Y-35500D01*
X-33400D01*
X-34300Y-39000D02*
X-33400D01*
X-34325D02*
X-34300D01*
X-26190Y-45410D02*
Y-39740D01*
X-8750Y-3550D02*
X-5400Y-6900D01*
Y-9100D02*
Y-6900D01*
X-6350Y-10050D02*
X-5400Y-9100D01*
X-29175Y-21750D02*
Y-20300D01*
X-38330Y-11350D02*
X-35675D01*
X-38730Y-10950D02*
X-38330Y-11350D01*
X-24100Y-9800D02*
X-24000Y-9700D01*
Y-7650D01*
Y-2150D01*
Y-1800D01*
X-24300Y-1500D02*
X-24000Y-1800D01*
X-24925Y-1500D02*
X-24300D01*
X-23125Y-10675D02*
Y-9825D01*
X-35000Y-7650D02*
Y-2150D01*
X-6500Y-3550D02*
X-2800Y-7250D01*
X-1200D01*
X-23100Y-9800D02*
X-21911D01*
X-3475Y-11575D02*
X-2800Y-12250D01*
X-6970Y-49050D02*
Y-48730D01*
X-20900Y-40350D02*
Y-39500D01*
Y-40350D02*
X-20875Y-40375D01*
X-19475Y-41050D02*
Y-39500D01*
X-18375D02*
X-17275D01*
X-20700Y-47375D02*
X-18400D01*
X-23000D02*
X-20700D01*
X-23513Y-21894D02*
X-23075Y-21456D01*
X-24587Y-20987D02*
X-24587Y-20988D01*
X-6765Y-24075D02*
X-5700Y-23010D01*
X-11225Y-8625D02*
X-10600Y-9250D01*
Y-10625D02*
Y-9250D01*
X-6350Y-9125D02*
Y-8750D01*
X-12900Y-12925D02*
Y-12125D01*
X-12100D01*
X-10600Y-10625D01*
X-19775Y-22215D02*
X-17265Y-24725D01*
X-8000Y-25350D02*
X-7425Y-25925D01*
X-2530Y-53030D02*
X-1750Y-52250D01*
X-56750Y-50300D02*
X-54320D01*
X-23325Y-40500D02*
X-22700Y-41125D01*
X-22000D01*
X-30020Y-46700D02*
X-28730Y-45410D01*
X-34725Y-46700D02*
X-30020D01*
X-28500Y-33100D02*
Y-32438D01*
X-28000Y-33100D02*
Y-32638D01*
X-7680Y-33100D02*
X-6970Y-33810D01*
X-5695Y-35075D02*
X-4430Y-33810D01*
X-26600Y-34513D02*
Y-34500D01*
Y-34000D02*
X-26550Y-33950D01*
X-25700D01*
X-26600Y-34513D02*
X-26587Y-34500D01*
X-26600Y-35000D02*
X-25750D01*
X-25700Y-35050D01*
X-26190Y-39740D02*
X-25925Y-39475D01*
Y-38885D01*
X-26600Y-35562D02*
Y-35500D01*
X-25488Y-35562D02*
X-25188Y-35262D01*
Y-35252D01*
X-24948Y-35013D01*
X-26600Y-36000D02*
X-25125D01*
X-24725Y-35600D01*
X-24450D01*
X-26600Y-38500D02*
X-26310D01*
X-25925Y-38885D01*
X-26600Y-38000D02*
X-26350D01*
X-26600Y-37500D02*
X-26200D01*
X-24975Y-38725D01*
X-26600Y-37000D02*
X-26225D01*
X-25975Y-37250D01*
X-25200D01*
X-24600Y-37850D01*
X-24650Y-36700D02*
X-24450D01*
X-25200Y-37250D02*
X-24650Y-36700D01*
X-26587Y-34500D02*
X-25100D01*
X-33400Y-38500D02*
Y-38487D01*
X-34512D02*
X-33400D01*
X-34484Y-38000D02*
X-33400D01*
Y-36088D02*
Y-36000D01*
Y-37112D02*
Y-37000D01*
X-36275Y-37850D02*
X-35537Y-37112D01*
X-37725Y-37850D02*
X-36275D01*
X-37725Y-37850D02*
X-37725Y-37850D01*
X-35537Y-37112D02*
X-33400D01*
X-40025Y-40875D02*
Y-39650D01*
X-39075Y-40875D02*
X-37975D01*
Y-40900D02*
Y-40875D01*
X-36300Y-36088D02*
X-33400D01*
X-29500Y-40421D02*
Y-39900D01*
X-31781Y-42702D02*
X-29500Y-40421D01*
X-35138Y-38653D02*
X-34484Y-38000D01*
X-34812Y-38788D02*
X-34512Y-38487D01*
X-32675Y-39725D02*
X-32500Y-39900D01*
X-34275Y-39725D02*
X-32675D01*
X-33810Y-45410D02*
X-32600Y-44200D01*
X-33348Y-42702D02*
X-31781D01*
X-34123Y-42700D02*
X-33611Y-42188D01*
X-33175Y-41625D02*
X-33127Y-41673D01*
X-30000Y-40375D02*
Y-39900D01*
X-30500Y-40415D02*
Y-39900D01*
X-32300Y-41775D02*
X-31860D01*
X-31000Y-40456D02*
Y-39900D01*
X-32775Y-41225D02*
X-31769D01*
X-32000Y-42375D02*
X-30000Y-40375D01*
X-31860Y-41775D02*
X-30500Y-40415D01*
X-31769Y-41225D02*
X-31000Y-40456D01*
X-32250Y-40525D02*
X-32000Y-40275D01*
Y-39900D01*
X-33029Y-40850D02*
X-32000D01*
X-31500Y-40350D01*
Y-39900D01*
X-34812Y-41672D02*
Y-38788D01*
X-33206Y-40525D02*
X-32250D01*
X-33127Y-41673D02*
X-33127D01*
X-33611Y-42188D02*
X-33138D01*
X-32950Y-42375D01*
X-32000D01*
X-33350Y-42700D02*
X-33348Y-42702D01*
X-24948Y-35013D02*
X-24888D01*
X-23875Y-34000D01*
X-33175Y-41625D02*
X-32775Y-41225D01*
X-26600Y-35562D02*
X-25488D01*
X-55570Y-46510D02*
X-54325Y-47755D01*
X-49195D01*
X-47950Y-46510D01*
X-32525Y-54285D02*
X-31270Y-53030D01*
Y-55570D02*
X-31175Y-55475D01*
X-35525Y-35000D02*
X-35275D01*
X-35615Y-34450D02*
X-34300D01*
X-35263Y-33912D02*
X-33400D01*
X-37600Y-32775D02*
X-37290D01*
X-35615Y-34450D01*
X-37175Y-33350D02*
X-35525Y-35000D01*
X-36825Y-32350D02*
X-35275Y-33900D01*
X-37775Y-33350D02*
X-37175D01*
X-36875Y-32400D02*
X-36825Y-32350D01*
X-30000Y-56725D02*
Y-54300D01*
X-28730Y-53030D01*
X-32000Y-33100D02*
Y-32785D01*
X-31500Y-33100D02*
Y-32525D01*
X-5700Y-40160D02*
X-4430Y-41430D01*
X-12350Y-37150D02*
X-10450D01*
X-7440Y-40160D01*
X-32525Y-57500D02*
Y-54285D01*
X-2535Y-53025D02*
X-2530Y-53030D01*
X-5720Y-47800D02*
X-4430Y-46510D01*
X-9275Y-54810D02*
Y-51355D01*
X-6970Y-49050D01*
X-5705Y-50325D02*
X-4430Y-49050D01*
X-7550Y-47800D02*
X-5720D01*
X-54320Y-50300D02*
X-53030Y-51590D01*
X-40150Y-54290D02*
X-38890Y-53030D01*
X-54310Y-32550D02*
X-53030Y-31270D01*
X-36350Y-55570D02*
Y-55110D01*
X-37600Y-53860D02*
X-36350Y-55110D01*
X-43225Y-52425D02*
X-42275Y-51475D01*
X-43225Y-55925D02*
Y-52425D01*
X-35700Y-30900D02*
X-35375Y-31225D01*
X-29000Y-33100D02*
Y-32325D01*
X-31000Y-33100D02*
Y-32275D01*
X-7425Y-25925D02*
X-3475D01*
X-1750Y-27650D01*
Y-52250D02*
Y-27650D01*
X-24450Y-35600D02*
X-24413D01*
X-22000Y-39500D02*
Y-39486D01*
X-23325D02*
X-22000D01*
X-24435Y-39625D02*
X-23325D01*
X-24975Y-38725D02*
X-21675D01*
X-20775Y-37825D01*
X-19475Y-39500D02*
Y-39125D01*
X-20775Y-37825D02*
X-19475Y-39125D01*
X-23200Y-37850D02*
X-22575D01*
X-22275Y-37550D01*
X-30150Y-10650D02*
Y-9850D01*
X-30150Y-9850D01*
X-22175Y-34775D02*
X-22138D01*
X-20775Y-36625D02*
Y-36598D01*
X-22750Y-34925D02*
Y-34175D01*
X-23875Y-34000D02*
Y-33975D01*
X-22750Y-34925D02*
X-22387Y-35287D01*
X-22086D01*
X-20775Y-36598D01*
X-22138Y-34775D02*
X-20926Y-35987D01*
X-21176Y-34977D02*
X-20490Y-35662D01*
X-12925Y-36575D02*
X-12350Y-37150D01*
X-15175Y-34325D02*
X-12925Y-36575D01*
X-20375Y-34325D02*
X-15175D01*
X-32050Y-12000D02*
X-30900D01*
X-22750Y-34175D02*
X-22350Y-33775D01*
X-14500D01*
X-25025Y-31200D02*
X-24425Y-31800D01*
X-53030Y-33810D02*
X-52685D01*
X-46050Y-30850D02*
X-35700D01*
X-30150Y-12950D02*
Y-10650D01*
X-31325Y-14125D02*
X-30150Y-12950D01*
X-39560Y-14125D02*
X-31325D01*
X-42710Y-17275D02*
X-39560Y-14125D01*
X-56885Y-17275D02*
X-42710D01*
X-58130Y-16030D02*
X-56885Y-17275D01*
X-35675Y-35550D02*
X-34300D01*
X-37275Y-33950D02*
X-35675Y-35550D01*
X-37600Y-33950D02*
X-37275D01*
X-24075Y-10675D02*
X-24050Y-10700D01*
Y-11525D02*
Y-10700D01*
X-37572Y-36385D02*
X-36598D01*
X-36300Y-36088D01*
X-37423Y-35285D02*
X-37102D01*
X-36300Y-36088D01*
X-27940Y-27940D02*
X-27215D01*
X-41800Y-29500D02*
X-33775D01*
X-31000Y-32275D01*
X-33000Y-27900D02*
X-29625Y-31275D01*
X-30480Y-23780D02*
X-28663Y-21962D01*
X-27215Y-27940D02*
X-25675Y-26400D01*
X-27940Y-26670D02*
Y-23415D01*
X-25400Y-27940D02*
X-24540Y-28800D01*
X-17780Y-16510D02*
X-16485D01*
X-28000Y-32638D02*
X-27812Y-32450D01*
X-29000Y-32325D02*
X-28475Y-31800D01*
X-30000Y-33100D02*
Y-32375D01*
X-29500Y-33100D02*
Y-32334D01*
X-28500Y-31334D01*
X-30000Y-32375D02*
X-29012Y-31387D01*
X-43441Y-28413D02*
X-33341D01*
X-30526Y-31227D01*
X-36500Y-31625D02*
X-36200Y-31925D01*
X-33675D01*
X-32500Y-33100D01*
X-30480Y-26670D02*
Y-23780D01*
X-7440Y-40160D02*
X-5700D01*
X-14500Y-33775D02*
X-13875Y-34400D01*
Y-34500D02*
Y-34400D01*
X-22347Y-26637D02*
X-21045Y-27940D01*
X-20320D01*
X-20425Y-31250D02*
X-20000Y-30825D01*
X-21575Y-31250D02*
X-20575Y-30250D01*
X-23875Y-31250D02*
X-21900Y-29275D01*
X-22100Y-22350D02*
X-17780Y-26670D01*
X-29175Y-21750D02*
X-29175D01*
X-27940Y-23415D02*
X-26325Y-21800D01*
X-23725Y-20775D02*
X-23724Y-20776D01*
X-23288Y-20956D02*
Y-20594D01*
X-23725Y-20156D02*
X-23288Y-20594D01*
X-24250Y-21302D02*
X-23724Y-20776D01*
X-16485Y-16510D02*
X-12900Y-12925D01*
X-15475Y-16400D02*
X-13625D01*
X-6350Y-9125D01*
X-7875Y-11575D02*
X-3475D01*
X-14150Y-24425D02*
Y-17850D01*
X-7875Y-11575D01*
X-24587Y-22544D02*
X-24587Y-22544D01*
X-23525Y-17250D02*
X-21675Y-19100D01*
X-23075Y-21456D02*
Y-21425D01*
X-23725Y-20156D02*
Y-20125D01*
X-24587Y-20987D02*
X-24375Y-20775D01*
X-23837Y-21506D02*
X-23288Y-20956D01*
X-24587Y-22544D02*
Y-20988D01*
X-25675Y-26400D02*
Y-20125D01*
X-26325Y-21800D02*
Y-20125D01*
X-28663Y-21163D02*
X-25675Y-18175D01*
X-27675Y-13450D02*
X-22050D01*
X-23525Y-16625D02*
X-20575Y-19575D01*
Y-22325D02*
Y-19575D01*
X-19450Y-21225D02*
Y-19750D01*
X-19775Y-22215D02*
Y-19885D01*
X-19450Y-21225D02*
X-18737Y-21938D01*
X-17265Y-24725D02*
X-17225D01*
X-28500Y-32438D02*
X-28188Y-32125D01*
X-9200Y-22700D02*
X-8240Y-21740D01*
X-8656Y-20675D02*
X-6765D01*
X-5700Y-21740D01*
X-23700Y-19475D02*
X-22575Y-20600D01*
X-25025Y-19475D02*
X-23700D01*
X-23725Y-18825D02*
X-22100Y-20450D01*
Y-22350D02*
Y-20450D01*
X-21900Y-29275D02*
X-16050D01*
X-24540Y-28800D02*
X-16175D01*
X-20575Y-30250D02*
X-15675D01*
X-20000Y-30825D02*
X-15575D01*
X-9200Y-24450D01*
Y-22700D01*
X-24425Y-31800D02*
X-15825D01*
X-8100Y-24075D01*
X-6765D01*
X-15350Y-32125D02*
X-10400Y-27175D01*
X-9475D01*
X-22725Y-31250D02*
X-21250Y-29775D01*
X-15875D01*
X-15675Y-30250D02*
X-9650Y-24225D01*
Y-21669D01*
X-8656Y-20675D01*
X-15875Y-29775D02*
X-10125Y-24025D01*
X-16050Y-29275D02*
X-10550Y-23775D01*
X-10125Y-24025D02*
Y-21475D01*
X-10550Y-23775D02*
Y-21250D01*
X-10125Y-21475D02*
X-8900Y-20250D01*
X-5920D01*
X-4430Y-21740D01*
X-10550Y-21250D02*
X-9125Y-19825D01*
X-5075D01*
X-3160Y-21740D01*
X-9725Y-54625D02*
Y-49975D01*
X-7550Y-47800D01*
X-8850Y-55050D02*
Y-51625D01*
X-7550Y-50325D01*
X-5705D01*
X-44850Y-57550D02*
X-43225Y-55925D01*
X-52075Y-57550D02*
X-44850D01*
X-57225Y-49825D02*
X-56750Y-50300D01*
X-57225Y-49825D02*
Y-37325D01*
X-56125Y-32550D02*
X-54310D01*
X-53030Y-41430D02*
X-51675Y-40075D01*
Y-33975D01*
X-48525Y-30825D01*
X-53030Y-43970D02*
X-51125Y-42065D01*
Y-34675D01*
X-47275Y-30825D01*
X-50525Y-38625D02*
X-46325Y-42825D01*
X-50525Y-38625D02*
Y-35325D01*
X-46050Y-30850D01*
X-47950Y-49050D02*
X-46325Y-47425D01*
Y-42825D01*
X-48525Y-30825D02*
X-47750Y-30050D01*
X-33975D01*
X-31500Y-32525D01*
X-47275Y-30825D02*
X-46900Y-30450D01*
X-34335D01*
X-32000Y-32785D01*
X-42650Y-27900D02*
X-33000D01*
X-27125Y-29150D02*
X-25025Y-31250D01*
X-57225Y-26950D02*
X-33150D01*
X-30450Y-29650D01*
X-27350D01*
X-36625Y-26000D02*
X-33200D01*
X-30050Y-29150D01*
X-27125D01*
X-30500Y-33100D02*
Y-32100D01*
X-52685Y-33810D02*
X-47775Y-28900D01*
X-33700D02*
X-30500Y-32100D01*
X-47775Y-28900D02*
X-33700D01*
X-43602Y-28251D02*
X-43441Y-28413D01*
X-20325Y-35100D02*
X-20212Y-34987D01*
X-17050Y-36275D02*
X-6970Y-46355D01*
Y-46510D02*
Y-46355D01*
X-17888Y-35662D02*
X-17725Y-35500D01*
X-20490Y-35662D02*
X-17888D01*
X-20775Y-36625D02*
X-20400Y-37000D01*
X-17500D01*
X-20926Y-35987D02*
X-19962D01*
X-19675Y-36275D01*
X-17205D01*
X-16850Y-56625D02*
Y-52450D01*
X-17410Y-49800D02*
X-16847Y-49237D01*
X-14688Y-51287D02*
X-13750Y-50350D01*
X-16400Y-50800D02*
X-15675Y-50075D01*
X-17025Y-50300D02*
X-16475Y-49750D01*
X-34452Y-49300D02*
X-17800D01*
X-16847Y-49237D02*
X-14800D01*
X-34600Y-49800D02*
X-17410D01*
X-34800Y-50300D02*
X-17025D01*
X-35000Y-50800D02*
X-16400D01*
X-35400Y-51800D02*
X-16230D01*
X-42275Y-51475D02*
X-38625D01*
X-37600Y-52500D01*
Y-53860D02*
Y-52500D01*
X-38890Y-53310D02*
Y-53030D01*
Y-53310D02*
X-37625Y-54575D01*
X-35200Y-46225D02*
X-34725Y-46700D01*
X-35700Y-48052D02*
X-34452Y-49300D01*
X-35700Y-48052D02*
Y-44440D01*
X-34810Y-43550D01*
X-36200Y-48200D02*
X-34600Y-49800D01*
X-36200Y-48200D02*
Y-44481D01*
X-34944Y-43225D01*
X-36700Y-48400D02*
X-34800Y-50300D01*
X-36700Y-48400D02*
Y-44521D01*
X-33029Y-40850D01*
X-37200Y-48600D02*
X-35000Y-50800D01*
X-37200Y-48600D02*
Y-44519D01*
X-33206Y-40525D01*
X-37700Y-48800D02*
Y-44560D01*
X-34812Y-41672D01*
X-38200Y-49000D02*
X-35400Y-51800D01*
X-38700Y-50680D02*
X-36350Y-53030D01*
X-47970Y-18570D02*
X-43270D01*
X-39300Y-14600D01*
X-28825D01*
X-27675Y-13450D01*
X-20200Y-13800D02*
X-19600Y-13200D01*
X-29175Y-20300D02*
X-23075Y-14200D01*
X-21200Y-18460D02*
X-19775Y-19885D01*
X-20700Y-18500D02*
X-19450Y-19750D01*
X-20700Y-18500D02*
Y-13000D01*
X-20350Y-12650D01*
X-21811Y-9800D02*
X-21200Y-10411D01*
Y-18460D02*
Y-10411D01*
X-20200Y-18500D02*
Y-13800D01*
Y-18500D02*
X-18013Y-20688D01*
X-31270Y-55570D02*
X-31250Y-55590D01*
X-13415Y-58950D02*
X-9275Y-54810D01*
X-13175Y-59375D02*
X-8850Y-55050D01*
X-13600Y-58500D02*
X-9725Y-54625D01*
X-36350Y-55570D02*
X-33420Y-58500D01*
X-13600D01*
X-31300Y-55640D02*
X-31250Y-55590D01*
X-31300Y-57800D02*
Y-55640D01*
X-2540Y-53030D02*
X-2535Y-53025D01*
X-5700Y-53030D02*
X-2540D01*
X-12925Y-37725D02*
X-12363Y-38288D01*
X-10112D01*
X-6970Y-41430D01*
X-30000Y-56725D02*
X-28725Y-58000D01*
X-18225D01*
X-16850Y-56625D01*
X-52475Y-58625D02*
X-41945D01*
X-38890Y-55570D01*
X-52265Y-58100D02*
X-42056D01*
X-40150Y-56194D01*
Y-54290D01*
X-38890Y-55570D02*
X-35085Y-59375D01*
X-13175D01*
X-37625Y-56075D02*
Y-54575D01*
Y-56075D02*
X-34750Y-58950D01*
X-13415D01*
X-24475Y-41625D02*
Y-40825D01*
Y-41625D02*
X-20925Y-45175D01*
X-16575D01*
X-22575Y-23145D02*
Y-20600D01*
Y-23145D02*
X-19050Y-26670D01*
X-23837Y-23188D02*
Y-21506D01*
Y-23188D02*
X-21590Y-25435D01*
Y-26670D02*
Y-25435D01*
X-23513Y-22888D02*
Y-21894D01*
Y-22888D02*
X-20320Y-26080D01*
Y-26670D02*
Y-26080D01*
X-24250Y-23450D02*
Y-21302D01*
Y-23450D02*
X-22347Y-25353D01*
Y-26637D02*
Y-25353D01*
X-24587Y-23812D02*
Y-22544D01*
Y-23812D02*
X-22860Y-25540D01*
Y-26670D02*
Y-25540D01*
X-21675Y-22025D02*
Y-19100D01*
Y-22025D02*
X-17030Y-26670D01*
X-16510D01*
X-20575Y-22325D02*
X-17300Y-25600D01*
X-16310D01*
X-15240Y-26670D01*
X-16175Y-28800D02*
X-14600Y-27225D01*
Y-26450D01*
X-18575Y-22475D02*
X-14600Y-26450D01*
X-18737Y-21938D02*
X-18362D01*
X-14750Y-25550D01*
X-14125D01*
X-18013Y-21487D02*
Y-20688D01*
Y-21487D02*
X-14525Y-24975D01*
X-13300D01*
X-16700Y-48200D02*
X-14900D01*
X-17800Y-49300D02*
X-16700Y-48200D01*
X-37700Y-48800D02*
X-35213Y-51287D01*
X-14688D01*
X-24038Y-35138D02*
X-23751Y-34852D01*
X-24413Y-35600D02*
X-24038Y-35225D01*
Y-35138D01*
X-43602Y-31377D02*
X-43600Y-31379D01*
X-28475Y-31800D02*
X-25725D01*
X-28188Y-32125D02*
X-25860D01*
X-27812Y-32450D02*
X-25994D01*
X-27350Y-29650D02*
X-24875Y-32125D01*
X-15350D01*
X-25725Y-31800D02*
X-25075Y-32450D01*
X-25860Y-32125D02*
X-25210Y-32775D01*
X-25994Y-32450D02*
X-25344Y-33100D01*
X-25825Y-33100D02*
X-25475Y-33450D01*
X-27500Y-33100D02*
X-25825D01*
X-29012Y-31387D02*
Y-30912D01*
X-28700Y-30600D01*
X-27950D01*
X-27300Y-31250D01*
X-39000Y-32125D02*
X-37775Y-33350D01*
X-20212Y-34987D02*
X-16513D01*
X-13775Y-37725D01*
X-12925D01*
X-28663Y-21962D02*
Y-21163D01*
X-28100Y-21250D02*
X-25025Y-18175D01*
X-29210Y-26670D02*
Y-23210D01*
X-28100Y-22100D01*
Y-21250D01*
X-43600Y-44185D02*
Y-31379D01*
Y-44185D02*
X-41067Y-46717D01*
X-42650Y-43735D02*
Y-31375D01*
Y-43735D02*
X-40367Y-46017D01*
X-41800Y-43385D02*
Y-31375D01*
Y-43385D02*
X-39942Y-45242D01*
X-25210Y-32775D02*
X-8302D01*
X-25475Y-33450D02*
X-9375D01*
X-7750Y-35075D01*
X-5695D01*
X-7759Y-32550D02*
X-5710D01*
X-4430Y-31270D01*
X-25344Y-33100D02*
X-7680D01*
X-8170Y-31270D02*
X-6970D01*
X-25075Y-32450D02*
X-9350D01*
X-8170Y-31270D01*
X-13100Y-38613D02*
X-10338Y-41375D01*
X-9400D01*
X-57900Y-51725D02*
X-52075Y-57550D01*
X-57900Y-51725D02*
Y-36140D01*
X-55570Y-33810D01*
X-58400Y-51965D02*
X-52265Y-58100D01*
X-58400Y-51965D02*
Y-34825D01*
X-56125Y-32550D01*
X-58900Y-52200D02*
X-52475Y-58625D01*
X-58900Y-52200D02*
Y-34600D01*
X-55570Y-31270D01*
X-28730Y-45410D02*
Y-44130D01*
X-27900Y-43300D01*
X-31270Y-45410D02*
X-30910D01*
X-26600Y-41100D01*
Y-39000D01*
X-32600Y-44200D02*
X-30400D01*
X-27500Y-41300D01*
Y-39900D01*
X-30775Y-43875D02*
X-28000Y-41100D01*
Y-39900D01*
X-34810Y-43550D02*
X-31150D01*
X-28500Y-40900D01*
Y-39900D01*
X-34944Y-43225D02*
X-31625D01*
X-29000Y-40600D01*
Y-39900D01*
X-25525Y-43075D02*
Y-40000D01*
Y-43075D02*
X-24300Y-44300D01*
X-37975Y-40900D02*
X-37388Y-41487D01*
X-35987D01*
X-38200Y-49000D02*
Y-44400D01*
X-35138Y-41338D01*
Y-38653D01*
X-35987Y-41487D02*
X-35600Y-41100D01*
Y-38400D01*
X-34700Y-37500D01*
X-33400D01*
X-38700Y-50680D02*
Y-43900D01*
X-36800Y-42000D01*
X-35200Y-46225D02*
Y-44700D01*
X-34375Y-43875D01*
X-30775D01*
D12*
X-37775Y-37950D02*
D03*
X-39975D02*
D03*
Y-39550D02*
D03*
X-37775D02*
D03*
D13*
X-19475Y-39500D02*
D03*
X-18375D02*
D03*
X-22000D02*
D03*
X-20900D02*
D03*
X-38672Y-36385D02*
D03*
X-37572D02*
D03*
X-23350Y-36700D02*
D03*
X-24450D02*
D03*
X-23350Y-35600D02*
D03*
X-24450D02*
D03*
X-45650Y-38325D02*
D03*
X-46750D02*
D03*
D14*
X-36925Y-40875D02*
D03*
X-37975Y-40875D02*
D03*
D15*
X-21811Y-9800D02*
D03*
X-20811D02*
D03*
X-23100D02*
D03*
X-24100D02*
D03*
X-30150Y-9850D02*
D03*
X-31150D02*
D03*
D16*
X-12525Y-8625D02*
D03*
Y-9575D02*
D03*
X-11225Y-8625D02*
D03*
Y-9575D02*
D03*
X-17825Y-7375D02*
D03*
Y-6425D02*
D03*
X-23325Y-39550D02*
D03*
Y-40500D02*
D03*
D17*
X-20775Y-37825D02*
D03*
Y-36625D02*
D03*
X-35675Y-12550D02*
D03*
Y-11350D02*
D03*
X-24475Y-39625D02*
D03*
Y-40825D02*
D03*
D18*
X-6500Y-3550D02*
D03*
Y-1450D02*
D03*
X-8750Y-3550D02*
D03*
Y-1450D02*
D03*
D19*
X-32050Y-12000D02*
D03*
X-34150D02*
D03*
D20*
X-24075Y-10675D02*
D03*
X-23125D02*
D03*
X-39075Y-40875D02*
D03*
X-40025D02*
D03*
D21*
X-11725Y-36575D02*
D03*
X-12925D02*
D03*
X-11725Y-37725D02*
D03*
X-12925D02*
D03*
D22*
X-38824Y-35075D02*
D03*
X-37426D02*
D03*
D23*
X-36275Y-37850D02*
D03*
X-36275Y-38900D02*
D03*
D24*
X-24600Y-37850D02*
D03*
X-23200D02*
D03*
X-12525Y-7500D02*
D03*
X-11125D02*
D03*
D25*
X-18725Y-6400D02*
D03*
Y-7400D02*
D03*
D26*
X-14216Y-7400D02*
D03*
Y-9300D02*
D03*
X-16316D02*
D03*
D27*
Y-7600D02*
D03*
D28*
X-30000Y-36500D02*
D03*
D29*
X-26600Y-34500D02*
D03*
Y-35000D02*
D03*
Y-35500D02*
D03*
Y-36000D02*
D03*
Y-36500D02*
D03*
Y-37000D02*
D03*
Y-37500D02*
D03*
Y-38000D02*
D03*
Y-38500D02*
D03*
Y-39000D02*
D03*
X-33400D02*
D03*
Y-38500D02*
D03*
Y-38000D02*
D03*
Y-37500D02*
D03*
Y-37000D02*
D03*
Y-36500D02*
D03*
Y-36000D02*
D03*
Y-35500D02*
D03*
Y-35000D02*
D03*
Y-34500D02*
D03*
Y-34000D02*
D03*
X-26600D02*
D03*
D30*
X-27500Y-39900D02*
D03*
X-28000D02*
D03*
X-28500D02*
D03*
X-29000D02*
D03*
X-29500D02*
D03*
X-30000D02*
D03*
X-30500D02*
D03*
X-31000D02*
D03*
X-31500D02*
D03*
X-32000D02*
D03*
X-32500D02*
D03*
Y-33100D02*
D03*
X-27500D02*
D03*
X-28000D02*
D03*
X-28500D02*
D03*
X-29000D02*
D03*
X-29500D02*
D03*
X-30000D02*
D03*
X-30500D02*
D03*
X-31000D02*
D03*
X-31500D02*
D03*
X-32000D02*
D03*
D31*
X-19400Y-41125D02*
D03*
X-22000D02*
D03*
D32*
X-20700Y-47375D02*
D03*
D33*
X-16900Y-4475D02*
D03*
X-16250D02*
D03*
X-15600D02*
D03*
X-14950D02*
D03*
X-14300D02*
D03*
D34*
X-47650Y-37250D02*
D03*
Y-36750D02*
D03*
Y-36250D02*
D03*
Y-35750D02*
D03*
X-44750D02*
D03*
Y-36250D02*
D03*
Y-36750D02*
D03*
Y-37250D02*
D03*
D35*
X-46200Y-36500D02*
D03*
D36*
X-24000Y-7650D02*
D03*
Y-2150D02*
D03*
X-28000D02*
D03*
Y-7650D02*
D03*
X-31000D02*
D03*
Y-2150D02*
D03*
X-35000D02*
D03*
Y-7650D02*
D03*
D37*
X-48125Y-37850D02*
X-47650Y-38325D01*
X-48125Y-37850D02*
Y-37525D01*
X-47850Y-37250D01*
X-47650D01*
X-45450Y-35750D02*
X-44750D01*
X-46200Y-36500D02*
X-45450Y-35750D01*
X-44750D02*
Y-34850D01*
X-45650Y-38325D02*
X-44750D01*
X-47650D02*
X-46750D01*
X-11725Y-36575D02*
X-10725D01*
X-11725Y-37725D02*
X-10725D01*
X-29125Y-1425D02*
X-28150D01*
Y-1525D02*
X-28000Y-1675D01*
Y-2150D02*
Y-1675D01*
X-34500Y-12350D02*
X-34150Y-12000D01*
X-35475Y-12350D02*
X-34500D01*
X-35675Y-12550D02*
X-35475Y-12350D01*
X-31000Y-7650D02*
Y-2150D01*
X-8756Y-1518D02*
X-7600D01*
X-6470D01*
X-31000Y-2150D02*
X-30900Y-2050D01*
Y-1425D01*
X-30800Y-1525D01*
X-31000Y-9700D02*
Y-7650D01*
X-31150Y-9850D02*
X-31000Y-9700D01*
X-28000Y-7650D02*
Y-2150D01*
X-33425Y-17025D02*
X-30300D01*
X-18725Y-7400D02*
X-17850D01*
X-12525Y-9775D02*
X-11875D01*
X-11225D01*
X-12625Y-8725D02*
Y-8625D01*
X-18725Y-8825D02*
Y-7400D01*
X-16316Y-7600D02*
Y-6584D01*
X-16700Y-6200D02*
X-16316Y-6584D01*
X-26600Y-36500D02*
X-25850D01*
X-25700Y-36650D01*
X-34200Y-36500D02*
X-33400D01*
X-34300Y-36600D02*
X-34200Y-36500D01*
X-36925Y-40875D02*
X-36125D01*
X-36125Y-40875D01*
X-37725Y-39650D02*
X-36300D01*
X-36275Y-39625D02*
Y-38900D01*
X-36300Y-39650D02*
X-36275Y-39625D01*
X-39785Y-36385D02*
X-38672D01*
X-39800Y-36400D02*
X-39785Y-36385D01*
X-41225Y-37925D02*
Y-37825D01*
X-41150Y-37850D02*
X-40025D01*
X-41225Y-37925D02*
X-41150Y-37850D01*
X-16900Y-5075D02*
Y-4475D01*
Y-5075D02*
X-16700Y-5275D01*
Y-6200D02*
Y-5275D01*
X-38825Y-34025D02*
X-38820Y-34030D01*
Y-35285D02*
Y-34030D01*
X-33400Y-36500D02*
X-30000D01*
X-26600D01*
X-36925Y-12550D02*
X-35675D01*
X-37575Y-13200D02*
X-36925Y-12550D01*
X-30300Y-17025D02*
X-29350Y-16075D01*
X-20811Y-9800D02*
X-19625Y-10986D01*
Y-12125D02*
Y-10986D01*
X-23350Y-35600D02*
X-22725D01*
X-22275Y-36700D02*
X-22200Y-36775D01*
Y-36800D02*
Y-36775D01*
X-22725Y-35600D02*
X-22225Y-36100D01*
X-22200D01*
D38*
X-33412Y-35013D02*
X-33400Y-35000D01*
X-35000Y-2150D02*
X-34125D01*
X-30800Y-1525D02*
X-30075D01*
D39*
X-19141Y-1675D02*
X-17825Y-2991D01*
Y-4800D02*
Y-2991D01*
X-19688Y-1675D02*
X-19141D01*
X-13375Y-2991D02*
X-12059Y-1675D01*
X-13375Y-4800D02*
Y-2991D01*
X-12059Y-1675D02*
X-11512D01*
X-17850Y-6400D02*
X-17825Y-6375D01*
Y-4800D01*
Y-6425D02*
Y-6375D01*
X-18725Y-6400D02*
X-17850D01*
X-14225Y-7400D02*
X-13275D01*
X-14300D02*
Y-5150D01*
X-19688Y-1675D02*
X-11512D01*
X-13275Y-7400D02*
X-12625D01*
X-11225Y-8625D02*
X-11125Y-8525D01*
Y-7500D01*
X-11125Y-7500D02*
X-11125Y-7500D01*
X-11125Y-7500D02*
Y-6075D01*
X-12525Y-8625D02*
Y-7500D01*
X-13750Y-15800D02*
X-10900Y-12950D01*
Y-12100D01*
X-13970Y-13270D02*
Y-11430D01*
Y-11895D02*
Y-11430D01*
X-15750Y-15050D02*
X-13970Y-13270D01*
X-14000Y-15800D02*
X-13750D01*
D40*
X-23325Y-40225D02*
Y-39850D01*
X-39750Y-40875D02*
X-39375D01*
D41*
X-14450Y-1675D02*
D03*
X-16750D02*
D03*
D42*
X-4430Y-13490D02*
D03*
Y-16030D02*
D03*
X-6970D02*
D03*
X-47950Y-46510D02*
D03*
X-41430Y-55570D02*
D03*
X-31270Y-53030D02*
D03*
Y-55570D02*
D03*
X-33810D02*
D03*
Y-53030D02*
D03*
X-36350Y-55570D02*
D03*
Y-53030D02*
D03*
X-38890Y-55570D02*
D03*
Y-53030D02*
D03*
X-41430D02*
D03*
X-28730D02*
D03*
X-26190D02*
D03*
Y-55570D02*
D03*
X-23650Y-53030D02*
D03*
Y-55570D02*
D03*
X-21110Y-53030D02*
D03*
Y-55570D02*
D03*
X-18570D02*
D03*
X-28730D02*
D03*
X-55570Y-28730D02*
D03*
X-53030Y-38890D02*
D03*
X-55570D02*
D03*
Y-36350D02*
D03*
X-53030D02*
D03*
X-55570Y-33810D02*
D03*
X-53030D02*
D03*
X-55570Y-31270D02*
D03*
X-53030D02*
D03*
Y-28730D02*
D03*
Y-41430D02*
D03*
Y-43970D02*
D03*
X-55570D02*
D03*
X-53030Y-46510D02*
D03*
X-55570D02*
D03*
X-53030Y-49050D02*
D03*
X-55570D02*
D03*
Y-51590D02*
D03*
Y-41430D02*
D03*
X-47970Y-13490D02*
D03*
Y-16030D02*
D03*
Y-18570D02*
D03*
Y-21110D02*
D03*
X-4430Y-38890D02*
D03*
Y-28730D02*
D03*
Y-31270D02*
D03*
X-6970D02*
D03*
X-4430Y-33810D02*
D03*
X-6970D02*
D03*
X-4430Y-36350D02*
D03*
X-6970D02*
D03*
Y-38890D02*
D03*
Y-51590D02*
D03*
Y-49050D02*
D03*
X-4430D02*
D03*
X-6970Y-46510D02*
D03*
X-4430D02*
D03*
X-6970Y-43970D02*
D03*
X-4430D02*
D03*
Y-41430D02*
D03*
X-6970D02*
D03*
X-4430Y-51590D02*
D03*
X-58130Y-21110D02*
D03*
Y-18570D02*
D03*
Y-16030D02*
D03*
Y-13490D02*
D03*
X-28730Y-45410D02*
D03*
X-31270D02*
D03*
X-33810D02*
D03*
X-26190Y-47950D02*
D03*
X-28730D02*
D03*
X-31270D02*
D03*
X-33810D02*
D03*
D43*
X-6970Y-13490D02*
D03*
X-47950Y-49050D02*
D03*
X-53030Y-51590D02*
D03*
X-47970Y-23650D02*
D03*
X-6970Y-28730D02*
D03*
X-58130Y-23650D02*
D03*
X-25925Y-12125D02*
D03*
D44*
X-57650Y-57650D02*
D03*
X-2350D02*
D03*
X-57650Y-2350D02*
D03*
X-2350D02*
D03*
D45*
X-18570Y-53030D02*
D03*
X-41270Y-10950D02*
D03*
X-38730D02*
D03*
X-26190Y-45410D02*
D03*
D46*
X-11950Y-1675D02*
D03*
X-19250D02*
D03*
D47*
X-17825Y-4800D02*
D03*
X-13375D02*
D03*
D48*
X-3160Y-21740D02*
D03*
X-4430D02*
D03*
X-5700D02*
D03*
X-6970D02*
D03*
Y-23010D02*
D03*
X-5700D02*
D03*
X-4430D02*
D03*
X-3160D02*
D03*
X-8240D02*
D03*
Y-21740D02*
D03*
D49*
X-16575Y-45175D02*
D03*
X-49400Y-38200D02*
D03*
X-44750Y-34850D02*
D03*
Y-38325D02*
D03*
X-47650D02*
D03*
X-48975Y-37550D02*
D03*
X-49800D02*
D03*
X-35375Y-31225D02*
D03*
X-35275Y-35000D02*
D03*
Y-33900D02*
D03*
X-34300Y-35550D02*
D03*
Y-34450D02*
D03*
Y-39000D02*
D03*
X-27300Y-31250D02*
D03*
X-28500D02*
D03*
X-27300Y-42600D02*
D03*
X-27775Y-11725D02*
D03*
X-10725Y-36575D02*
D03*
X-10725Y-37725D02*
D03*
X-36062Y-8538D02*
D03*
X-22975Y-8975D02*
D03*
X-33425Y-17025D02*
D03*
X-29125Y-1425D02*
D03*
X-29850Y-20250D02*
D03*
X-33900Y-20000D02*
D03*
X-17800Y-19100D02*
D03*
X-4550Y-9800D02*
D03*
X-3875Y-7025D02*
D03*
X-33300Y-5150D02*
D03*
X-32400Y-5950D02*
D03*
Y-4350D02*
D03*
X-4900Y-26500D02*
D03*
X-7600Y-1518D02*
D03*
X-34125Y-2150D02*
D03*
X-24925Y-1500D02*
D03*
X-30075Y-1525D02*
D03*
X-27425Y-4225D02*
D03*
X-26925Y-6750D02*
D03*
Y-7975D02*
D03*
X-2800Y-12250D02*
D03*
X-6350Y-10050D02*
D03*
Y-8750D02*
D03*
X-1200Y-7250D02*
D03*
X-16125Y-20275D02*
D03*
X-30875Y-23175D02*
D03*
X-24900Y-24825D02*
D03*
X-26800Y-15100D02*
D03*
X-32975Y-18900D02*
D03*
X-31525Y-21425D02*
D03*
X-40500Y-1500D02*
D03*
X-28800Y-10975D02*
D03*
Y-12475D02*
D03*
X-26525Y-24825D02*
D03*
X-18575Y-22475D02*
D03*
X-20875Y-40375D02*
D03*
X-17275Y-39500D02*
D03*
X-18400Y-47375D02*
D03*
X-23000D02*
D03*
X-13275Y-7400D02*
D03*
X-18725Y-8825D02*
D03*
X-11875Y-9775D02*
D03*
X-11125Y-6725D02*
D03*
Y-6075D02*
D03*
X-16700Y-6200D02*
D03*
X-22725Y-31250D02*
D03*
X-23875D02*
D03*
X-27940Y-27940D02*
D03*
X-36225Y-19325D02*
D03*
X-37375D02*
D03*
X-12900Y-12125D02*
D03*
X-10900Y-12100D02*
D03*
X-9425Y-14100D02*
D03*
X-10375Y-11500D02*
D03*
X-4900Y-25350D02*
D03*
X-8300Y-27175D02*
D03*
X-8000Y-25350D02*
D03*
X-25700Y-33950D02*
D03*
Y-35050D02*
D03*
Y-36650D02*
D03*
X-25100Y-34500D02*
D03*
X-34300Y-36600D02*
D03*
X-36300Y-36050D02*
D03*
X-36125Y-40875D02*
D03*
X-36300Y-39650D02*
D03*
X-39800Y-36400D02*
D03*
X-34123Y-42700D02*
D03*
X-34275Y-39725D02*
D03*
X-32300Y-41775D02*
D03*
X-15675Y-50075D02*
D03*
X-33127Y-41673D02*
D03*
X-33350Y-42700D02*
D03*
X-37600Y-32775D02*
D03*
X-36875Y-32300D02*
D03*
X-37575Y-31725D02*
D03*
X-33225Y-32450D02*
D03*
X-13750Y-50350D02*
D03*
X-9400Y-41375D02*
D03*
X-32525Y-57500D02*
D03*
X-16475Y-49750D02*
D03*
X-57225Y-37325D02*
D03*
Y-26950D02*
D03*
X-41800Y-29500D02*
D03*
X-42650Y-27900D02*
D03*
X-29625Y-31275D02*
D03*
X-32450Y-31575D02*
D03*
X-30526Y-31276D02*
D03*
X-25525Y-40000D02*
D03*
X-22275Y-37550D02*
D03*
X-30150Y-10650D02*
D03*
X-17500Y-37000D02*
D03*
X-22175Y-34775D02*
D03*
X-21575Y-31250D02*
D03*
X-20425D02*
D03*
X-23875Y-33975D02*
D03*
X-23751Y-34852D02*
D03*
X-21176Y-34977D02*
D03*
X-20325Y-35100D02*
D03*
X-20375Y-34325D02*
D03*
X-13300Y-24975D02*
D03*
X-30900Y-12000D02*
D03*
X-47275Y-30825D02*
D03*
X-48525D02*
D03*
X-36500Y-31625D02*
D03*
X-41225Y-37875D02*
D03*
X-37600Y-33950D02*
D03*
X-24050Y-11525D02*
D03*
X-38825Y-34025D02*
D03*
X-20320Y-27940D02*
D03*
X-15240Y-26670D02*
D03*
X-16510D02*
D03*
X-17780D02*
D03*
X-19050D02*
D03*
X-20320D02*
D03*
X-21590D02*
D03*
X-22860D02*
D03*
X-36625Y-26000D02*
D03*
X-27940Y-26670D02*
D03*
X-25400Y-27940D02*
D03*
X-17780Y-16510D02*
D03*
X-13970Y-11430D02*
D03*
X-29210Y-26670D02*
D03*
X-30480D02*
D03*
X-37575Y-13200D02*
D03*
X-13875Y-34500D02*
D03*
X-19625Y-12125D02*
D03*
X-14150Y-24425D02*
D03*
X-25025Y-31250D02*
D03*
X-15750Y-15050D02*
D03*
X-15475Y-16400D02*
D03*
X-29350Y-16075D02*
D03*
X-29175Y-21750D02*
D03*
X-14000Y-15800D02*
D03*
Y-15000D02*
D03*
X-24500Y-14375D02*
D03*
X-22100Y-15100D02*
D03*
X-21100Y-21425D02*
D03*
X-22050Y-13450D02*
D03*
X-20350Y-12650D02*
D03*
X-18525Y-21425D02*
D03*
X-14125Y-25550D02*
D03*
X-17225Y-24725D02*
D03*
X-9475Y-27175D02*
D03*
X-43602Y-28251D02*
D03*
X-17050Y-36275D02*
D03*
X-17725Y-35500D02*
D03*
X-16850Y-52450D02*
D03*
X-14800Y-49237D02*
D03*
X-39942Y-45242D02*
D03*
X-19600Y-13200D02*
D03*
X-23075Y-14200D02*
D03*
X-31300Y-57800D02*
D03*
X-5700Y-53030D02*
D03*
X-12900Y-44600D02*
D03*
X-2950Y-40200D02*
D03*
X-50400Y-25400D02*
D03*
X-55700D02*
D03*
X-58400Y-32100D02*
D03*
X-13100Y-38613D02*
D03*
X-23600Y-43800D02*
D03*
X-18900Y-18100D02*
D03*
X-14900Y-48200D02*
D03*
X-16300Y-51800D02*
D03*
X-22200Y-36800D02*
D03*
Y-36100D02*
D03*
X-44400Y-31400D02*
D03*
X-43602Y-31377D02*
D03*
X-42650Y-31375D02*
D03*
X-41800D02*
D03*
X-43300Y-27600D02*
D03*
X-15500Y-51800D02*
D03*
X-13200Y-50900D02*
D03*
X-15100Y-47500D02*
D03*
X-16800Y-44400D02*
D03*
X-12500Y-24600D02*
D03*
X-36500Y-13400D02*
D03*
X-39000Y-32125D02*
D03*
X-14700Y-35900D02*
D03*
X-41942Y-47042D02*
D03*
X-41067Y-46717D02*
D03*
X-40342Y-46042D02*
D03*
X-1600Y-11950D02*
D03*
X-16825Y-37375D02*
D03*
X-27900Y-43300D02*
D03*
X-24300Y-44300D02*
D03*
X-36800Y-42000D02*
D03*
D50*
X-26325Y-22725D02*
D03*
X-23725Y-20775D02*
D03*
X-19600Y-18200D02*
D03*
X-25675Y-18175D02*
D03*
X-25025Y-22725D02*
D03*
Y-18175D02*
D03*
X-23075Y-18825D02*
D03*
X-23525Y-16625D02*
D03*
Y-17250D02*
D03*
X-23075Y-21425D02*
D03*
X-23075Y-22075D02*
D03*
X-23725Y-20125D02*
D03*
X-23725Y-18825D02*
D03*
X-24375Y-20775D02*
D03*
X-25025Y-21425D02*
D03*
X-25025Y-20775D02*
D03*
Y-19475D02*
D03*
Y-20125D02*
D03*
X-25675Y-20125D02*
D03*
X-26325D02*
D03*
X-26975Y-18825D02*
D03*
X-19100Y-17400D02*
D03*
M02*
