M48
;Layer_Color=9474304
;FILE_FORMAT=4:3
METRIC,TZ
;TYPE=PLATED
T1F00S00C0.200
T2F00S00C0.250
T3F00S00C0.650
T6F00S00C1.000
T7F00S00C1.200
T8F00S00C2.700
%
T01
X-26325Y-22725
Y-20125
X-25675
X-25675Y-18175
X-26975Y-18825
X-25025Y-19475
Y-20125
Y-20775
X-24375
X-23725
X-23725Y-20125
X-23725Y-18825
X-23075Y-18825
X-23525Y-17250
Y-16625
X-25025Y-18175
X-25025Y-21425
X-25025Y-22725
X-23075Y-22075
X-23075Y-21425
X-19600Y-18200
X-19100Y-17400
T02
X-23000Y-47375
X-23600Y-43800
X-24300Y-44300
X-16800Y-44400
X-16575Y-45175
X-15100Y-47500
X-14900Y-48200
X-14800Y-49237
X-15675Y-50075
X-16475Y-49750
X-16300Y-51800
X-15500
X-16850Y-52450
X-13750Y-50350
X-13200Y-50900
X-12900Y-44600
X-18400Y-47375
X-5700Y-53030
X-31300Y-57800
X-32525Y-57500
X-40342Y-46042
X-39942Y-45242
X-41067Y-46717
X-41942Y-47042
X-41225Y-37875
X-39800Y-36400
X-38825Y-34025
X-37600Y-33950
Y-32775
X-37575Y-31725
X-36500Y-31625
X-36875Y-32300
X-39000Y-32125
X-41800Y-31375
X-42650
X-43602Y-31377
X-44400Y-31400
X-47275Y-30825
X-48525
X-48975Y-37550
X-49800
X-49400Y-38200
X-47650Y-38325
X-44750
Y-34850
X-43602Y-28251
X-43300Y-27600
X-42650Y-27900
X-41800Y-29500
X-35375Y-31225
X-35275Y-33900
Y-35000
X-34300Y-35550
Y-36600
Y-34450
X-33225Y-32450
X-32450Y-31575
X-30526Y-31276
X-29625Y-31275
X-28500Y-31250
X-27300
X-27940Y-27940
Y-26670
X-29210
X-30480
X-30875Y-23175
X-31525Y-21425
X-29175Y-21750
X-29850Y-20250
X-33900Y-20000
X-32975Y-18900
X-33425Y-17025
X-29350Y-16075
X-26800Y-15100
X-27775Y-11725
X-28800Y-10975
Y-12475
X-30900Y-12000
X-30150Y-10650
X-26925Y-7975
Y-6750
X-27425Y-4225
X-32400Y-4350
Y-5950
X-33300Y-5150
X-36062Y-8538
X-36500Y-13400
X-37575Y-13200
X-37375Y-19325
X-36225
X-36625Y-26000
X-36300Y-36050
Y-39650
X-36125Y-40875
X-36800Y-42000
X-34123Y-42700
X-33350
X-33127Y-41673
X-32300Y-41775
X-34275Y-39725
X-34300Y-39000
X-27300Y-42600
X-27900Y-43300
X-25700Y-36650
Y-35050
Y-33950
X-26525Y-24825
X-50400Y-25400
X-55700
X-57225Y-26950
X-58400Y-32100
X-57225Y-37325
X-25525Y-40000
X-20875Y-40375
X-22275Y-37550
X-22200Y-36800
Y-36100
X-22175Y-34775
X-21176Y-34977
X-20325Y-35100
X-20375Y-34325
X-20425Y-31250
X-21575
X-22725
X-23875
X-25025
X-25100Y-34500
X-23751Y-34852
X-23875Y-33975
X-25400Y-27940
X-24900Y-24825
X-22860Y-26670
X-21590
X-20320
Y-27940
X-19050Y-26670
X-17780
X-16510
X-15240
X-14125Y-25550
X-14150Y-24425
X-13300Y-24975
X-12500Y-24600
X-17225Y-24725
X-18575Y-22475
X-18525Y-21425
X-21100Y-21425
X-18900Y-18100
X-17800Y-19100
X-17780Y-16510
X-15475Y-16400
X-15750Y-15050
X-14000Y-15000
Y-15800
X-13970Y-11430
X-12900Y-12125
X-10900Y-12100
X-10375Y-11500
X-11875Y-9775
X-13275Y-7400
X-11125Y-6725
Y-6075
X-16700Y-6200
X-18725Y-8825
X-19625Y-12125
X-19600Y-13200
X-20350Y-12650
X-22050Y-13450
X-22100Y-15100
X-23075Y-14200
X-24500Y-14375
X-24050Y-11525
X-22975Y-8975
X-6350Y-8750
Y-10050
X-4550Y-9800
X-3875Y-7025
X-1200Y-7250
X-1600Y-11950
X-2800Y-12250
X-9425Y-14100
X-8000Y-25350
X-8300Y-27175
X-9475
X-4900Y-26500
X-4900Y-25350
X-16125Y-20275
X-13875Y-34500
X-14700Y-35900
X-17050Y-36275
X-17500Y-37000
X-16825Y-37375
X-17275Y-39500
X-17725Y-35500
X-13100Y-38613
X-10725Y-37725
X-10725Y-36575
X-9400Y-41375
X-2950Y-40200
X-7600Y-1518
X-24925Y-1500
X-29125Y-1425
X-30075Y-1525
X-34125Y-2150
X-40500Y-1500
T03
X-8240Y-23010
X-6970
Y-21740
X-5700
X-4430
X-3160
Y-23010
X-4430
X-5700
X-8240Y-21740
T06
X-23650Y-55570
Y-53030
X-21110
X-18570
Y-55570
X-21110
X-6970Y-51590
Y-49050
X-4430
Y-46510
X-6970
Y-43970
X-4430
Y-51590
X-26190Y-53030
X-28730
X-31270
Y-55570
X-33810
Y-53030
X-36350
Y-55570
X-38890
X-41430
Y-53030
X-38890
X-28730Y-55570
X-26190
X-47950Y-49050
Y-46510
X-53030Y-46510
Y-43970
X-55570
Y-46510
Y-49050
X-53030
Y-51590
X-55570
Y-41430
Y-38890
X-53030
Y-36350
X-55570
Y-33810
X-53030
Y-31270
X-55570
Y-28730
X-53030
X-47970Y-23650
Y-21110
Y-18570
Y-16030
Y-13490
X-41270Y-10950
X-38730
X-25925Y-12125
X-58130Y-13490
Y-16030
Y-18570
Y-21110
Y-23650
X-53030Y-41430
X-6970
Y-38890
X-4430
Y-36350
Y-33810
Y-31270
Y-28730
X-6970
Y-31270
Y-33810
Y-36350
X-4430Y-41430
Y-16030
Y-13490
X-6970
Y-16030
T07
X-33810Y-47950
Y-45410
X-31270
X-28730
X-26190
Y-47950
X-28730
X-31270
T08
X-2350Y-57650
X-57650
X-2350Y-2350
X-57650
M30
