G04 Layer_Physical_Order=2*
G04 Layer_Color=32768*
%FSLAX43Y43*%
%MOMM*%
G71*
G01*
G75*
%ADD50C,0.500*%
%ADD51C,1.250*%
G04:AMPARAMS|DCode=52|XSize=2.174mm|YSize=2.174mm|CornerRadius=0mm|HoleSize=0mm|Usage=FLASHONLY|Rotation=0.000|XOffset=0mm|YOffset=0mm|HoleType=Round|Shape=Relief|Width=0.254mm|Gap=0.254mm|Entries=4|*
%AMTHD52*
7,0,0,2.174,1.666,0.254,45*
%
%ADD52THD52*%
%ADD53C,1.600*%
%ADD54C,1.800*%
G04:AMPARAMS|DCode=55|XSize=2.524mm|YSize=2.524mm|CornerRadius=0mm|HoleSize=0mm|Usage=FLASHONLY|Rotation=0.000|XOffset=0mm|YOffset=0mm|HoleType=Round|Shape=Relief|Width=0.254mm|Gap=0.254mm|Entries=4|*
%AMTHD55*
7,0,0,2.524,2.016,0.254,45*
%
%ADD55THD55*%
%ADD56O,1.250X1.450*%
%ADD57O,1.425X2.100*%
G04:AMPARAMS|DCode=58|XSize=1.8mm|YSize=1.8mm|CornerRadius=0mm|HoleSize=0mm|Usage=FLASHONLY|Rotation=0.000|XOffset=0mm|YOffset=0mm|HoleType=Round|Shape=Relief|Width=0.2mm|Gap=0.2mm|Entries=4|*
%AMTHD58*
7,0,0,1.800,1.400,0.200,45*
%
%ADD58THD58*%
%ADD59C,0.850*%
%ADD60C,0.800*%
D50*
X-10600Y-350D02*
G03*
X-9825Y-1I-0J1036D01*
G01*
X-21375Y0D02*
G03*
X-20600Y-350I776J686D01*
G01*
X-60000Y-60000D02*
X0D01*
Y0D01*
X-9825Y-1D02*
X0Y0D01*
X-20600Y-350D02*
X-10600D01*
X-60000Y0D02*
X-21375Y0D01*
X-60000Y-60000D02*
Y0D01*
D51*
X-8240Y-21740D02*
D03*
X-4430Y-23010D02*
D03*
X-5700D02*
D03*
X-6970D02*
D03*
Y-21740D02*
D03*
X-5700D02*
D03*
X-4430D02*
D03*
X-3160D02*
D03*
D52*
X-8240Y-23010D02*
D03*
X-3160D02*
D03*
D53*
X-25925Y-12125D02*
D03*
X-58130Y-16030D02*
D03*
Y-18570D02*
D03*
Y-23650D02*
D03*
Y-21110D02*
D03*
X-6970Y-28730D02*
D03*
X-4430Y-51590D02*
D03*
X-6970Y-41430D02*
D03*
X-4430D02*
D03*
Y-43970D02*
D03*
X-6970D02*
D03*
X-4430Y-46510D02*
D03*
X-6970D02*
D03*
X-4430Y-49050D02*
D03*
X-6970D02*
D03*
Y-38890D02*
D03*
Y-36350D02*
D03*
X-4430D02*
D03*
X-6970Y-33810D02*
D03*
X-4430D02*
D03*
X-6970Y-31270D02*
D03*
X-4430D02*
D03*
Y-38890D02*
D03*
X-38730Y-10950D02*
D03*
X-41270D02*
D03*
X-47970Y-21110D02*
D03*
Y-23650D02*
D03*
Y-18570D02*
D03*
Y-16030D02*
D03*
X-55570Y-41430D02*
D03*
Y-49050D02*
D03*
X-53030D02*
D03*
X-55570Y-46510D02*
D03*
X-53030D02*
D03*
X-55570Y-43970D02*
D03*
X-53030D02*
D03*
Y-41430D02*
D03*
Y-31270D02*
D03*
X-55570D02*
D03*
X-53030Y-33810D02*
D03*
X-55570D02*
D03*
X-53030Y-36350D02*
D03*
X-55570D02*
D03*
Y-38890D02*
D03*
X-53030D02*
D03*
X-55570Y-28730D02*
D03*
X-53030Y-51590D02*
D03*
X-28730Y-55570D02*
D03*
X-21110D02*
D03*
Y-53030D02*
D03*
X-23650Y-55570D02*
D03*
Y-53030D02*
D03*
X-26190Y-55570D02*
D03*
Y-53030D02*
D03*
X-28730D02*
D03*
X-38890D02*
D03*
Y-55570D02*
D03*
X-36350Y-53030D02*
D03*
Y-55570D02*
D03*
X-33810Y-53030D02*
D03*
Y-55570D02*
D03*
X-31270D02*
D03*
Y-53030D02*
D03*
X-41430Y-55570D02*
D03*
X-18570Y-53030D02*
D03*
X-47950Y-49050D02*
D03*
Y-46510D02*
D03*
X-6970Y-13490D02*
D03*
Y-16030D02*
D03*
X-4430D02*
D03*
D54*
X-33810Y-47950D02*
D03*
X-31270D02*
D03*
X-28730D02*
D03*
X-26190D02*
D03*
X-33810Y-45410D02*
D03*
X-31270D02*
D03*
X-28730D02*
D03*
X-26190D02*
D03*
D55*
X-58130Y-13490D02*
D03*
X-47970Y-13490D02*
D03*
X-55570Y-51590D02*
D03*
X-53030Y-28730D02*
D03*
X-18570Y-55570D02*
D03*
X-41430Y-53030D02*
D03*
X-4430Y-13490D02*
D03*
D56*
X-13375Y-4800D02*
D03*
X-17825D02*
D03*
D57*
X-19688Y-1675D02*
D03*
X-11512D02*
D03*
D58*
X-6970Y-51590D02*
D03*
X-4430Y-28730D02*
D03*
D59*
X-36800Y-42000D02*
D03*
X-24300Y-44300D02*
D03*
X-27900Y-43300D02*
D03*
X-40342Y-46042D02*
D03*
X-41067Y-46717D02*
D03*
X-39000Y-32125D02*
D03*
X-41800Y-31375D02*
D03*
X-42650D02*
D03*
X-43602Y-31377D02*
D03*
X-16300Y-51800D02*
D03*
X-14900Y-48200D02*
D03*
X-13100Y-38613D02*
D03*
X-5700Y-53030D02*
D03*
X-31300Y-57800D02*
D03*
X-23075Y-14200D02*
D03*
X-19600Y-13200D02*
D03*
X-39942Y-45242D02*
D03*
X-14800Y-49237D02*
D03*
X-16850Y-52450D02*
D03*
X-17725Y-35500D02*
D03*
X-17050Y-36275D02*
D03*
X-43602Y-28251D02*
D03*
X-17225Y-24725D02*
D03*
X-14125Y-25550D02*
D03*
X-20350Y-12650D02*
D03*
X-22050Y-13450D02*
D03*
X-24500Y-14375D02*
D03*
X-14000Y-15800D02*
D03*
X-29175Y-21750D02*
D03*
X-29350Y-16075D02*
D03*
X-15475Y-16400D02*
D03*
X-15750Y-15050D02*
D03*
X-25025Y-31250D02*
D03*
X-14150Y-24425D02*
D03*
X-19625Y-12125D02*
D03*
X-13875Y-34500D02*
D03*
X-37575Y-13200D02*
D03*
X-30480Y-26670D02*
D03*
X-29210D02*
D03*
X-13970Y-11430D02*
D03*
X-17780Y-16510D02*
D03*
X-25400Y-27940D02*
D03*
X-27940Y-26670D02*
D03*
X-36625Y-26000D02*
D03*
X-22860Y-26670D02*
D03*
X-21590D02*
D03*
X-20320D02*
D03*
X-19050D02*
D03*
X-17780D02*
D03*
X-16510D02*
D03*
X-15240D02*
D03*
X-20320Y-27940D02*
D03*
X-37600Y-33950D02*
D03*
X-48525Y-30825D02*
D03*
X-47275D02*
D03*
X-30900Y-12000D02*
D03*
X-13300Y-24975D02*
D03*
X-20375Y-34325D02*
D03*
X-20325Y-35100D02*
D03*
X-21176Y-34977D02*
D03*
X-23751Y-34852D02*
D03*
X-23875Y-33975D02*
D03*
X-20425Y-31250D02*
D03*
X-21575D02*
D03*
X-22175Y-34775D02*
D03*
X-17500Y-37000D02*
D03*
X-30150Y-10650D02*
D03*
X-22275Y-37550D02*
D03*
X-25525Y-40000D02*
D03*
X-30526Y-31276D02*
D03*
X-32450Y-31575D02*
D03*
X-29625Y-31275D02*
D03*
X-42650Y-27900D02*
D03*
X-41800Y-29500D02*
D03*
X-57225Y-26950D02*
D03*
Y-37325D02*
D03*
X-16475Y-49750D02*
D03*
X-32525Y-57500D02*
D03*
X-9400Y-41375D02*
D03*
X-13750Y-50350D02*
D03*
X-33225Y-32450D02*
D03*
X-36875Y-32300D02*
D03*
X-37600Y-32775D02*
D03*
X-33350Y-42700D02*
D03*
X-33127Y-41673D02*
D03*
X-15675Y-50075D02*
D03*
X-32300Y-41775D02*
D03*
X-34275Y-39725D02*
D03*
X-34123Y-42700D02*
D03*
X-36300Y-36050D02*
D03*
X-25100Y-34500D02*
D03*
X-25700Y-35050D02*
D03*
Y-33950D02*
D03*
X-8000Y-25350D02*
D03*
X-4900D02*
D03*
X-10900Y-12100D02*
D03*
X-12900Y-12125D02*
D03*
X-37375Y-19325D02*
D03*
X-27940Y-27940D02*
D03*
X-23875Y-31250D02*
D03*
X-22725D02*
D03*
X-11125Y-6075D02*
D03*
Y-6725D02*
D03*
X-13275Y-7400D02*
D03*
X-26525Y-24825D02*
D03*
X-28800Y-12475D02*
D03*
Y-10975D02*
D03*
X-31525Y-21425D02*
D03*
X-1200Y-7250D02*
D03*
X-6350Y-8750D02*
D03*
Y-10050D02*
D03*
X-2800Y-12250D02*
D03*
X-30075Y-1525D02*
D03*
X-24925Y-1500D02*
D03*
X-7600Y-1518D02*
D03*
X-4900Y-26500D02*
D03*
X-32400Y-4350D02*
D03*
Y-5950D02*
D03*
X-33300Y-5150D02*
D03*
X-4550Y-9800D02*
D03*
X-33900Y-20000D02*
D03*
X-29850Y-20250D02*
D03*
X-33425Y-17025D02*
D03*
X-36062Y-8538D02*
D03*
X-10725Y-37725D02*
D03*
X-10725Y-36575D02*
D03*
X-27775Y-11725D02*
D03*
X-28500Y-31250D02*
D03*
X-27300D02*
D03*
X-34300Y-39000D02*
D03*
Y-34450D02*
D03*
Y-35550D02*
D03*
X-35275Y-33900D02*
D03*
Y-35000D02*
D03*
X-35375Y-31225D02*
D03*
X-49800Y-37550D02*
D03*
X-48975D02*
D03*
X-47650Y-38325D02*
D03*
X-16575Y-45175D02*
D03*
X-21100Y-21425D02*
D03*
Y-22175D02*
D03*
X-9250Y-30450D02*
D03*
X-11225Y-27575D02*
D03*
X-8300Y-27175D02*
D03*
X-11275Y-26670D02*
D03*
X-17675Y-28425D02*
D03*
X-14825Y-29950D02*
D03*
X-14975Y-29250D02*
D03*
X-14650Y-28075D02*
D03*
D60*
X-19100Y-17400D02*
D03*
X-26325Y-20125D02*
D03*
X-25675D02*
D03*
X-25025Y-20125D02*
D03*
Y-19475D02*
D03*
X-25025Y-21425D02*
D03*
X-24375Y-20775D02*
D03*
X-23725Y-18825D02*
D03*
X-23725Y-20125D02*
D03*
X-23525Y-17250D02*
D03*
Y-16625D02*
D03*
X-25025Y-18175D02*
D03*
X-25675D02*
D03*
X-19600Y-18200D02*
D03*
X-23725Y-20775D02*
D03*
X-23075Y-21425D02*
D03*
M02*
