G04 Layer_Color=128*
%FSLAX43Y43*%
%MOMM*%
G71*
G01*
G75*
%ADD15R,0.650X0.500*%
%ADD27R,0.700X0.700*%
%ADD28R,0.550X0.600*%
%ADD29R,0.650X0.800*%
%ADD30R,0.500X0.650*%
%ADD32R,0.800X0.650*%
%ADD49C,0.400*%
%ADD63R,1.300X1.600*%
%ADD64C,0.800*%
%ADD67R,0.600X0.250*%
%ADD68C,0.280*%
%ADD69R,0.720X1.050*%
%ADD70R,0.350X0.300*%
%ADD71R,0.350X0.850*%
%ADD72R,0.762X0.762*%
%ADD73R,0.950X1.750*%
%ADD129R,0.200X0.100*%
D15*
X-25175Y-26400D02*
D03*
X-26125D02*
D03*
X-25175Y-25500D02*
D03*
X-26125D02*
D03*
X-19325Y-21425D02*
D03*
X-20275D02*
D03*
X-32150Y-18900D02*
D03*
X-31200D02*
D03*
X-22925Y-16000D02*
D03*
X-23875D02*
D03*
X-22925Y-15100D02*
D03*
X-23875D02*
D03*
X-25975D02*
D03*
X-25025D02*
D03*
X-25975Y-16000D02*
D03*
X-25025D02*
D03*
D27*
X-31375Y-20000D02*
D03*
X-32775D02*
D03*
D28*
X-16900Y-18400D02*
D03*
Y-17400D02*
D03*
X-20300Y-18200D02*
D03*
Y-19200D02*
D03*
Y-17200D02*
D03*
Y-16200D02*
D03*
D29*
X-20425Y-29175D02*
D03*
Y-30375D02*
D03*
X-21575Y-29175D02*
D03*
Y-30375D02*
D03*
X-22725Y-29175D02*
D03*
Y-30375D02*
D03*
X-23875Y-29175D02*
D03*
Y-30375D02*
D03*
X-25025Y-29175D02*
D03*
Y-30375D02*
D03*
X-36225Y-18225D02*
D03*
Y-17025D02*
D03*
X-37375Y-17025D02*
D03*
Y-18225D02*
D03*
X-14000Y-14100D02*
D03*
Y-12900D02*
D03*
X-31925Y-29175D02*
D03*
Y-30375D02*
D03*
X-29625Y-30375D02*
D03*
Y-29175D02*
D03*
X-10500Y-12900D02*
D03*
Y-14100D02*
D03*
X-1200Y-8600D02*
D03*
Y-9800D02*
D03*
X-5200Y-9800D02*
D03*
Y-8600D02*
D03*
X-28475Y-30375D02*
D03*
Y-29175D02*
D03*
X-27325Y-30375D02*
D03*
Y-29175D02*
D03*
X-30775Y-30375D02*
D03*
Y-29175D02*
D03*
X-34225Y-30375D02*
D03*
Y-29175D02*
D03*
X-33075Y-30375D02*
D03*
Y-29175D02*
D03*
X-35375Y-30375D02*
D03*
Y-29175D02*
D03*
X-1450Y-21775D02*
D03*
Y-22975D02*
D03*
X-26175Y-30375D02*
D03*
Y-29175D02*
D03*
X-19275Y-29175D02*
D03*
Y-30375D02*
D03*
X-18150Y-29175D02*
D03*
Y-30375D02*
D03*
X-15850Y-29175D02*
D03*
Y-30375D02*
D03*
X-17000Y-29175D02*
D03*
Y-30375D02*
D03*
D30*
X-16900Y-20275D02*
D03*
Y-19325D02*
D03*
X-30875Y-22375D02*
D03*
Y-21425D02*
D03*
X-30000Y-22375D02*
D03*
Y-21425D02*
D03*
X-17800Y-18375D02*
D03*
Y-17425D02*
D03*
X-16900Y-21225D02*
D03*
Y-22175D02*
D03*
D32*
X-11650Y-11275D02*
D03*
X-12850D02*
D03*
X-26275Y-3400D02*
D03*
X-27475D02*
D03*
X-31200Y-5150D02*
D03*
X-32400D02*
D03*
X-28900Y-10025D02*
D03*
X-27700D02*
D03*
X-5800Y-26500D02*
D03*
X-7000D02*
D03*
X-9500D02*
D03*
X-8300D02*
D03*
X-7000Y-25350D02*
D03*
X-5800D02*
D03*
X-2800Y-11100D02*
D03*
X-1600D02*
D03*
X-5300D02*
D03*
X-4100D02*
D03*
X-28800Y-3400D02*
D03*
X-30000D02*
D03*
X-13750Y-27425D02*
D03*
X-12550D02*
D03*
X-13750Y-28550D02*
D03*
X-12550D02*
D03*
X-13750Y-29700D02*
D03*
X-12550D02*
D03*
X-13750Y-30850D02*
D03*
X-12550D02*
D03*
D49*
X-27850Y-5000D02*
D03*
X-27000D02*
D03*
Y-5800D02*
D03*
X-27850D02*
D03*
X-27425Y-5400D02*
D03*
D63*
X-13100Y-22150D02*
D03*
Y-18350D02*
D03*
X-15400D02*
D03*
Y-22150D02*
D03*
D64*
X-35560Y-26670D02*
D03*
X-34290D02*
D03*
X-33020D02*
D03*
X-31750D02*
D03*
X-15925Y-10500D02*
D03*
X-26670Y-27940D02*
D03*
D67*
X-26025Y-4650D02*
D03*
Y-5150D02*
D03*
Y-6150D02*
D03*
Y-5650D02*
D03*
X-28825D02*
D03*
Y-6150D02*
D03*
Y-5150D02*
D03*
Y-4650D02*
D03*
D68*
X-27950Y-17850D02*
D03*
X-27300D02*
D03*
X-26650D02*
D03*
X-26000D02*
D03*
X-25350D02*
D03*
X-24700D02*
D03*
X-24050D02*
D03*
X-23400D02*
D03*
X-22750D02*
D03*
X-22100D02*
D03*
X-27950Y-18500D02*
D03*
X-27300D02*
D03*
X-26650D02*
D03*
X-26000D02*
D03*
X-25350D02*
D03*
X-24700D02*
D03*
X-24050D02*
D03*
X-23400D02*
D03*
X-22750D02*
D03*
X-22100D02*
D03*
X-27950Y-19150D02*
D03*
X-27300D02*
D03*
X-26650D02*
D03*
X-26000D02*
D03*
X-25350D02*
D03*
X-24700D02*
D03*
X-24050D02*
D03*
X-23400D02*
D03*
X-22750D02*
D03*
X-27950Y-19800D02*
D03*
X-27300D02*
D03*
X-26650D02*
D03*
X-26000D02*
D03*
X-25350D02*
D03*
X-24700D02*
D03*
X-24050D02*
D03*
X-23400D02*
D03*
X-22750D02*
D03*
X-27950Y-20450D02*
D03*
X-27300D02*
D03*
X-26650D02*
D03*
X-26000D02*
D03*
X-25350D02*
D03*
X-24700D02*
D03*
X-24050D02*
D03*
X-23400D02*
D03*
X-22750D02*
D03*
X-27950Y-21750D02*
D03*
X-27300D02*
D03*
X-26650D02*
D03*
X-26000D02*
D03*
X-25350D02*
D03*
X-24700D02*
D03*
X-24050D02*
D03*
X-23400D02*
D03*
X-22750D02*
D03*
X-27950Y-22400D02*
D03*
X-27300D02*
D03*
X-26650D02*
D03*
X-26000D02*
D03*
X-25350D02*
D03*
X-24700D02*
D03*
X-24050D02*
D03*
X-23400D02*
D03*
X-22750D02*
D03*
X-27950Y-23050D02*
D03*
X-27300D02*
D03*
X-26650D02*
D03*
X-26000D02*
D03*
X-25350D02*
D03*
X-24700D02*
D03*
X-24050D02*
D03*
X-23400D02*
D03*
X-22750D02*
D03*
X-27950Y-23700D02*
D03*
X-27300D02*
D03*
X-26650D02*
D03*
X-26000D02*
D03*
X-25350D02*
D03*
X-24700D02*
D03*
X-24050D02*
D03*
X-23400D02*
D03*
X-22750D02*
D03*
X-27950Y-21100D02*
D03*
X-27300D02*
D03*
X-26650D02*
D03*
X-26000D02*
D03*
X-25350D02*
D03*
X-24700D02*
D03*
X-24050D02*
D03*
X-23400D02*
D03*
X-22750D02*
D03*
X-22100D02*
D03*
Y-19150D02*
D03*
Y-19800D02*
D03*
Y-20450D02*
D03*
Y-21750D02*
D03*
Y-22400D02*
D03*
Y-23050D02*
D03*
Y-23700D02*
D03*
D69*
X-11760Y-13500D02*
D03*
X-12740Y-13500D02*
D03*
X-16240Y-13500D02*
D03*
X-15260Y-13500D02*
D03*
D70*
X-12900Y-14375D02*
D03*
X-12250D02*
D03*
X-11600D02*
D03*
Y-12625D02*
D03*
X-12250D02*
D03*
X-12900D02*
D03*
X-15100D02*
D03*
X-15750D02*
D03*
X-16400D02*
D03*
Y-14375D02*
D03*
X-15750D02*
D03*
X-15100D02*
D03*
D71*
X-3875Y-7875D02*
D03*
X-3225D02*
D03*
X-2575D02*
D03*
Y-9725D02*
D03*
X-3225D02*
D03*
X-3875D02*
D03*
D72*
X-24425Y-7074D02*
D03*
Y-5676D02*
D03*
D73*
X-28825Y-7975D02*
D03*
X-25875D02*
D03*
D129*
X-27425Y-5400D02*
D03*
M02*
