G04 Layer_Physical_Order=4*
G04 Layer_Color=16711680*
%FSLAX43Y43*%
%MOMM*%
G71*
G01*
G75*
%ADD10C,0.175*%
%ADD11C,0.180*%
%ADD15R,0.650X0.500*%
%ADD27R,0.700X0.700*%
%ADD28R,0.550X0.600*%
%ADD29R,0.650X0.800*%
%ADD30R,0.500X0.650*%
%ADD32R,0.800X0.650*%
%ADD37C,0.200*%
%ADD38C,0.300*%
%ADD39C,0.125*%
%ADD41C,1.050*%
%ADD42R,1.700X1.700*%
%ADD43C,1.700*%
%ADD44R,1.700X1.700*%
G04:AMPARAMS|DCode=45|XSize=1.05mm|YSize=1.25mm|CornerRadius=0.525mm|HoleSize=0mm|Usage=FLASHONLY|Rotation=180.000|XOffset=0mm|YOffset=0mm|HoleType=Round|Shape=RoundedRectangle|*
%AMROUNDEDRECTD45*
21,1,1.050,0.200,0,0,180.0*
21,1,0.000,1.250,0,0,180.0*
1,1,1.050,0.000,0.100*
1,1,1.050,0.000,0.100*
1,1,1.050,0.000,-0.100*
1,1,1.050,0.000,-0.100*
%
%ADD45ROUNDEDRECTD45*%
G04:AMPARAMS|DCode=46|XSize=2.1mm|YSize=1.9mm|CornerRadius=0.494mm|HoleSize=0mm|Usage=FLASHONLY|Rotation=180.000|XOffset=0mm|YOffset=0mm|HoleType=Round|Shape=RoundedRectangle|*
%AMROUNDEDRECTD46*
21,1,2.100,0.912,0,0,180.0*
21,1,1.112,1.900,0,0,180.0*
1,1,0.988,-0.556,0.456*
1,1,0.988,0.556,0.456*
1,1,0.988,0.556,-0.456*
1,1,0.988,-0.556,-0.456*
%
%ADD46ROUNDEDRECTD46*%
%ADD47C,3.600*%
%ADD48C,0.550*%
%ADD49C,0.400*%
%ADD63R,1.300X1.600*%
%ADD64C,0.800*%
%ADD65C,1.270*%
%ADD66R,1.600X1.500*%
%ADD67R,0.600X0.250*%
%ADD68C,0.280*%
%ADD69R,0.720X1.050*%
%ADD70R,0.350X0.300*%
%ADD71R,0.350X0.850*%
%ADD72R,0.762X0.762*%
%ADD73R,0.950X1.750*%
G36*
X-2893Y-44121D02*
Y-53079D01*
X-6809Y-56994D01*
X-22739D01*
X-22787Y-56877D01*
X-22193Y-56282D01*
X-22129Y-56187D01*
X-22127Y-56178D01*
X-21992Y-56146D01*
X-21859Y-56319D01*
X-21640Y-56487D01*
X-21384Y-56593D01*
X-21110Y-56629D01*
X-20836Y-56593D01*
X-20580Y-56487D01*
X-20361Y-56319D01*
X-20193Y-56100D01*
X-20087Y-55844D01*
X-20051Y-55570D01*
X-20087Y-55296D01*
X-20185Y-55060D01*
X-19618Y-54492D01*
X-19554Y-54397D01*
X-19532Y-54285D01*
Y-54080D01*
X-17520D01*
Y-53323D01*
X-6075D01*
X-6042Y-53372D01*
X-5885Y-53477D01*
X-5700Y-53514D01*
X-5515Y-53477D01*
X-5358Y-53372D01*
X-5253Y-53215D01*
X-5216Y-53030D01*
X-5253Y-52845D01*
X-5358Y-52688D01*
X-5515Y-52583D01*
X-5700Y-52546D01*
X-5885Y-52583D01*
X-6042Y-52688D01*
X-6075Y-52737D01*
X-6676D01*
X-6696Y-52613D01*
X-6440Y-52507D01*
X-6221Y-52339D01*
X-6053Y-52120D01*
X-5947Y-51864D01*
X-5924Y-51690D01*
X-6970D01*
X-8016D01*
X-7993Y-51864D01*
X-7887Y-52120D01*
X-7719Y-52339D01*
X-7500Y-52507D01*
X-7244Y-52613D01*
X-7264Y-52737D01*
X-16329D01*
X-16397Y-52610D01*
X-16366Y-52450D01*
X-16376Y-52399D01*
X-16300Y-52284D01*
X-16280Y-52280D01*
X-16115Y-52247D01*
X-15958Y-52142D01*
X-15853Y-51985D01*
X-15816Y-51800D01*
X-15827Y-51742D01*
X-14346Y-50261D01*
X-14229Y-50323D01*
X-14234Y-50350D01*
X-14197Y-50535D01*
X-14092Y-50692D01*
X-13935Y-50797D01*
X-13750Y-50834D01*
X-13565Y-50797D01*
X-13408Y-50692D01*
X-13303Y-50535D01*
X-13266Y-50350D01*
X-13277Y-50292D01*
X-8504Y-45518D01*
X-7611D01*
X-7568Y-45645D01*
X-7719Y-45761D01*
X-7887Y-45980D01*
X-7993Y-46236D01*
X-8029Y-46510D01*
X-7993Y-46784D01*
X-7887Y-47040D01*
X-7719Y-47259D01*
X-7500Y-47427D01*
X-7244Y-47533D01*
X-6970Y-47569D01*
X-6696Y-47533D01*
X-6440Y-47427D01*
X-6221Y-47259D01*
X-6053Y-47040D01*
X-5947Y-46784D01*
X-5911Y-46510D01*
X-5947Y-46236D01*
X-6053Y-45980D01*
X-6221Y-45761D01*
X-6372Y-45645D01*
X-6329Y-45518D01*
X-5685D01*
X-5573Y-45496D01*
X-5478Y-45432D01*
X-4940Y-44895D01*
X-4704Y-44993D01*
X-4430Y-45029D01*
X-4156Y-44993D01*
X-3900Y-44887D01*
X-3681Y-44719D01*
X-3513Y-44500D01*
X-3407Y-44244D01*
X-3371Y-43970D01*
X-3393Y-43801D01*
X-3273Y-43742D01*
X-2893Y-44121D01*
D02*
G37*
G36*
X-6282Y-12323D02*
X-6331Y-12440D01*
X-8020D01*
Y-12543D01*
X-9975D01*
Y-12300D01*
X-10326D01*
X-10430Y-12173D01*
X-10416Y-12100D01*
X-10453Y-11915D01*
X-10558Y-11758D01*
X-10715Y-11653D01*
X-10900Y-11616D01*
X-10952Y-11626D01*
X-11050Y-11545D01*
Y-11375D01*
X-11650D01*
Y-11175D01*
X-11050D01*
Y-10857D01*
X-7748D01*
X-6282Y-12323D01*
D02*
G37*
G36*
X-8004Y-38698D02*
X-8029Y-38890D01*
X-7993Y-39164D01*
X-7895Y-39401D01*
X-9388Y-40893D01*
X-9400Y-40891D01*
X-9585Y-40928D01*
X-9742Y-41033D01*
X-9847Y-41190D01*
X-9884Y-41375D01*
X-9847Y-41560D01*
X-9742Y-41717D01*
X-9693Y-41750D01*
Y-42579D01*
X-14842Y-47727D01*
X-14900Y-47716D01*
X-15085Y-47753D01*
X-15242Y-47858D01*
X-15255Y-47876D01*
X-15382Y-47838D01*
Y-45896D01*
X-8124Y-38639D01*
X-8004Y-38698D01*
D02*
G37*
G36*
X-51850Y-33558D02*
X-51737Y-33581D01*
X-38077D01*
X-38009Y-33708D01*
X-38047Y-33765D01*
X-38084Y-33950D01*
X-38047Y-34135D01*
X-37942Y-34292D01*
X-37785Y-34397D01*
X-37600Y-34434D01*
X-37467Y-34408D01*
X-37405Y-34525D01*
X-37475Y-34595D01*
X-37539Y-34690D01*
X-37561Y-34803D01*
Y-40932D01*
X-37539Y-41044D01*
X-37475Y-41139D01*
X-37102Y-41512D01*
X-37115Y-41639D01*
X-37142Y-41658D01*
X-37247Y-41815D01*
X-37284Y-42000D01*
X-37256Y-42142D01*
X-37332Y-42269D01*
X-38793D01*
X-46195Y-34868D01*
X-46290Y-34804D01*
X-46402Y-34782D01*
X-52363D01*
X-52406Y-34655D01*
X-52281Y-34559D01*
X-52113Y-34340D01*
X-52007Y-34084D01*
X-51971Y-33810D01*
X-51997Y-33613D01*
X-51879Y-33539D01*
X-51850Y-33558D01*
D02*
G37*
G36*
X-30416Y-6366D02*
X-30416Y-6366D01*
X-30317Y-6433D01*
X-30200Y-6456D01*
X-30200Y-6456D01*
X-29325D01*
Y-6475D01*
X-29131D01*
Y-6900D01*
X-29500D01*
Y-9050D01*
X-29182D01*
Y-9275D01*
X-31790D01*
Y-5675D01*
X-31108D01*
X-30416Y-6366D01*
D02*
G37*
G36*
X-18157Y-36482D02*
X-18062Y-36546D01*
X-17950Y-36568D01*
X-17920D01*
X-17868Y-36695D01*
X-17947Y-36815D01*
X-17984Y-37000D01*
X-17973Y-37058D01*
X-20032Y-39118D01*
X-20096Y-39213D01*
X-20118Y-39325D01*
Y-52389D01*
X-20245Y-52432D01*
X-20361Y-52281D01*
X-20580Y-52113D01*
X-20836Y-52007D01*
X-21110Y-51971D01*
X-21384Y-52007D01*
X-21620Y-52105D01*
X-25265Y-48460D01*
X-25167Y-48224D01*
X-25131Y-47950D01*
X-25167Y-47676D01*
X-25273Y-47420D01*
X-25441Y-47201D01*
X-25579Y-47095D01*
X-25536Y-46968D01*
X-25075D01*
X-24963Y-46946D01*
X-24868Y-46882D01*
X-24093Y-46107D01*
X-24029Y-46012D01*
X-24007Y-45900D01*
Y-44675D01*
X-23958Y-44642D01*
X-23853Y-44485D01*
X-23816Y-44300D01*
X-23853Y-44115D01*
X-23958Y-43958D01*
X-24115Y-43853D01*
X-24300Y-43816D01*
X-24485Y-43853D01*
X-24642Y-43958D01*
X-24747Y-44115D01*
X-24784Y-44300D01*
X-24747Y-44485D01*
X-24642Y-44642D01*
X-24593Y-44675D01*
Y-45779D01*
X-25023Y-46208D01*
X-25140Y-46160D01*
Y-44360D01*
X-25897D01*
Y-43811D01*
X-18630Y-36545D01*
X-18567Y-36450D01*
X-18544Y-36338D01*
Y-36261D01*
X-18427Y-36212D01*
X-18157Y-36482D01*
D02*
G37*
G36*
X-20179Y-12004D02*
X-20182Y-12079D01*
X-20308Y-12174D01*
X-20350Y-12166D01*
X-20535Y-12203D01*
X-20692Y-12308D01*
X-20700Y-12319D01*
X-22812D01*
X-22925Y-12342D01*
X-23020Y-12405D01*
X-23846Y-13232D01*
X-24772D01*
X-24875Y-13175D01*
Y-11161D01*
X-21022D01*
X-20179Y-12004D01*
D02*
G37*
G36*
X-56598Y-41192D02*
X-56629Y-41430D01*
X-56593Y-41704D01*
X-56487Y-41960D01*
X-56319Y-42179D01*
X-56100Y-42347D01*
X-55844Y-42453D01*
X-55570Y-42489D01*
X-55296Y-42453D01*
X-55060Y-42355D01*
X-54507Y-42907D01*
X-54412Y-42971D01*
X-54300Y-42993D01*
X-53690D01*
X-53647Y-43120D01*
X-53779Y-43221D01*
X-53947Y-43440D01*
X-54053Y-43696D01*
X-54089Y-43970D01*
X-54053Y-44244D01*
X-53947Y-44500D01*
X-53779Y-44719D01*
X-53560Y-44887D01*
X-53304Y-44993D01*
X-53030Y-45029D01*
X-52756Y-44993D01*
X-52500Y-44887D01*
X-52281Y-44719D01*
X-52113Y-44500D01*
X-52007Y-44244D01*
X-51971Y-43970D01*
X-52007Y-43696D01*
X-52113Y-43440D01*
X-52281Y-43221D01*
X-52413Y-43120D01*
X-52370Y-42993D01*
X-50721D01*
X-50325Y-43390D01*
X-52520Y-45585D01*
X-52756Y-45487D01*
X-53030Y-45451D01*
X-53304Y-45487D01*
X-53560Y-45593D01*
X-53779Y-45761D01*
X-53947Y-45980D01*
X-54053Y-46236D01*
X-54089Y-46510D01*
X-54053Y-46784D01*
X-53947Y-47040D01*
X-53779Y-47259D01*
X-53654Y-47355D01*
X-53697Y-47482D01*
X-54295D01*
X-54407Y-47504D01*
X-54502Y-47568D01*
X-55060Y-48125D01*
X-55296Y-48027D01*
X-55570Y-47991D01*
X-55844Y-48027D01*
X-56100Y-48133D01*
X-56319Y-48301D01*
X-56487Y-48520D01*
X-56593Y-48776D01*
X-56629Y-49050D01*
X-56593Y-49324D01*
X-56487Y-49580D01*
X-56319Y-49799D01*
X-56100Y-49967D01*
X-55844Y-50073D01*
X-55570Y-50109D01*
X-55296Y-50073D01*
X-55040Y-49967D01*
X-54821Y-49799D01*
X-54653Y-49580D01*
X-54547Y-49324D01*
X-54511Y-49050D01*
X-54547Y-48776D01*
X-54645Y-48540D01*
X-54174Y-48068D01*
X-53684D01*
X-53641Y-48195D01*
X-53779Y-48301D01*
X-53947Y-48520D01*
X-54053Y-48776D01*
X-54089Y-49050D01*
X-54053Y-49324D01*
X-53947Y-49580D01*
X-53779Y-49799D01*
X-53560Y-49967D01*
X-53304Y-50073D01*
X-53030Y-50109D01*
X-52756Y-50073D01*
X-52500Y-49967D01*
X-52281Y-49799D01*
X-52113Y-49580D01*
X-52007Y-49324D01*
X-51971Y-49050D01*
X-52007Y-48776D01*
X-52105Y-48540D01*
X-48059Y-44493D01*
X-34537D01*
X-34497Y-44613D01*
X-34559Y-44661D01*
X-34727Y-44880D01*
X-34833Y-45136D01*
X-34869Y-45410D01*
X-34833Y-45684D01*
X-34727Y-45940D01*
X-34559Y-46159D01*
X-34340Y-46327D01*
X-34084Y-46433D01*
X-33810Y-46469D01*
X-33536Y-46433D01*
X-33515Y-46424D01*
X-33032Y-46907D01*
X-32937Y-46971D01*
X-32825Y-46993D01*
X-31956D01*
X-31913Y-47120D01*
X-32019Y-47201D01*
X-32187Y-47420D01*
X-32293Y-47676D01*
X-32329Y-47950D01*
X-32293Y-48224D01*
X-32187Y-48480D01*
X-32019Y-48699D01*
X-31800Y-48867D01*
X-31544Y-48973D01*
X-31270Y-49009D01*
X-30996Y-48973D01*
X-30759Y-48875D01*
X-30045Y-49590D01*
X-30094Y-49707D01*
X-31639D01*
X-32885Y-48460D01*
X-32787Y-48224D01*
X-32751Y-47950D01*
X-32787Y-47676D01*
X-32893Y-47420D01*
X-33061Y-47201D01*
X-33280Y-47033D01*
X-33536Y-46927D01*
X-33810Y-46891D01*
X-34084Y-46927D01*
X-34340Y-47033D01*
X-34559Y-47201D01*
X-34727Y-47420D01*
X-34833Y-47676D01*
X-34869Y-47950D01*
X-34833Y-48224D01*
X-34727Y-48480D01*
X-34559Y-48699D01*
X-34340Y-48867D01*
X-34084Y-48973D01*
X-33810Y-49009D01*
X-33536Y-48973D01*
X-33299Y-48875D01*
X-31967Y-50207D01*
X-31872Y-50271D01*
X-31760Y-50293D01*
X-30046D01*
X-28461Y-51878D01*
X-28521Y-51999D01*
X-28730Y-51971D01*
X-29004Y-52007D01*
X-29260Y-52113D01*
X-29479Y-52281D01*
X-29592Y-52428D01*
X-29727Y-52396D01*
X-29729Y-52388D01*
X-29793Y-52293D01*
X-31293Y-50793D01*
X-31388Y-50729D01*
X-31500Y-50707D01*
X-34063D01*
X-39470Y-45301D01*
X-39458Y-45242D01*
X-39495Y-45057D01*
X-39600Y-44900D01*
X-39757Y-44795D01*
X-39942Y-44758D01*
X-40128Y-44795D01*
X-40285Y-44900D01*
X-40390Y-45057D01*
X-40427Y-45242D01*
X-40390Y-45428D01*
X-40384Y-45437D01*
X-40442Y-45578D01*
X-40528Y-45595D01*
X-40685Y-45700D01*
X-40790Y-45857D01*
X-40827Y-46042D01*
X-40801Y-46171D01*
X-40834Y-46211D01*
X-40906Y-46265D01*
X-41067Y-46233D01*
X-41253Y-46270D01*
X-41410Y-46375D01*
X-41515Y-46532D01*
X-41552Y-46717D01*
X-41515Y-46903D01*
X-41410Y-47060D01*
X-41253Y-47165D01*
X-41067Y-47202D01*
X-41009Y-47190D01*
X-36350Y-51849D01*
X-36401Y-51978D01*
X-36624Y-52007D01*
X-36880Y-52113D01*
X-37099Y-52281D01*
X-37267Y-52500D01*
X-37373Y-52756D01*
X-37409Y-53030D01*
X-37373Y-53304D01*
X-37267Y-53560D01*
X-37099Y-53779D01*
X-36880Y-53947D01*
X-36624Y-54053D01*
X-36350Y-54089D01*
X-36076Y-54053D01*
X-35820Y-53947D01*
X-35601Y-53779D01*
X-35520Y-53673D01*
X-35393Y-53716D01*
Y-54280D01*
X-35371Y-54392D01*
X-35307Y-54487D01*
X-34735Y-55060D01*
X-34833Y-55296D01*
X-34869Y-55570D01*
X-34833Y-55844D01*
X-34727Y-56100D01*
X-34559Y-56319D01*
X-34349Y-56480D01*
X-34349Y-56494D01*
X-34427Y-56607D01*
X-35733D01*
X-35811Y-56494D01*
X-35811Y-56480D01*
X-35601Y-56319D01*
X-35433Y-56100D01*
X-35327Y-55844D01*
X-35291Y-55570D01*
X-35327Y-55296D01*
X-35433Y-55040D01*
X-35601Y-54821D01*
X-35820Y-54653D01*
X-36076Y-54547D01*
X-36350Y-54511D01*
X-36624Y-54547D01*
X-36880Y-54653D01*
X-37099Y-54821D01*
X-37267Y-55040D01*
X-37373Y-55296D01*
X-37409Y-55570D01*
X-37373Y-55844D01*
X-37267Y-56100D01*
X-37099Y-56319D01*
X-36889Y-56480D01*
X-36889Y-56494D01*
X-36967Y-56607D01*
X-38273D01*
X-38351Y-56494D01*
X-38351Y-56480D01*
X-38141Y-56319D01*
X-37973Y-56100D01*
X-37867Y-55844D01*
X-37831Y-55570D01*
X-37867Y-55296D01*
X-37973Y-55040D01*
X-38141Y-54821D01*
X-38360Y-54653D01*
X-38616Y-54547D01*
X-38890Y-54511D01*
X-39164Y-54547D01*
X-39420Y-54653D01*
X-39639Y-54821D01*
X-39807Y-55040D01*
X-39913Y-55296D01*
X-39949Y-55570D01*
X-39913Y-55844D01*
X-39807Y-56100D01*
X-39639Y-56319D01*
X-39429Y-56480D01*
X-39429Y-56494D01*
X-39507Y-56607D01*
X-40813D01*
X-40891Y-56494D01*
X-40891Y-56480D01*
X-40681Y-56319D01*
X-40513Y-56100D01*
X-40407Y-55844D01*
X-40371Y-55570D01*
X-40407Y-55296D01*
X-40513Y-55040D01*
X-40681Y-54821D01*
X-40900Y-54653D01*
X-41156Y-54547D01*
X-41430Y-54511D01*
X-41704Y-54547D01*
X-41960Y-54653D01*
X-42179Y-54821D01*
X-42347Y-55040D01*
X-42453Y-55296D01*
X-42489Y-55570D01*
X-42453Y-55844D01*
X-42347Y-56100D01*
X-42179Y-56319D01*
X-41969Y-56480D01*
X-41969Y-56494D01*
X-42047Y-56607D01*
X-52454D01*
X-56757Y-52304D01*
Y-45571D01*
X-56081Y-44895D01*
X-55844Y-44993D01*
X-55570Y-45029D01*
X-55296Y-44993D01*
X-55040Y-44887D01*
X-54821Y-44719D01*
X-54653Y-44500D01*
X-54547Y-44244D01*
X-54511Y-43970D01*
X-54547Y-43696D01*
X-54653Y-43440D01*
X-54821Y-43221D01*
X-55040Y-43053D01*
X-55296Y-42947D01*
X-55570Y-42911D01*
X-55844Y-42947D01*
X-56100Y-43053D01*
X-56319Y-43221D01*
X-56487Y-43440D01*
X-56593Y-43696D01*
X-56629Y-43970D01*
X-56593Y-44244D01*
X-56495Y-44480D01*
X-57180Y-45165D01*
X-57307Y-45113D01*
Y-41721D01*
X-56711Y-41125D01*
X-56598Y-41192D01*
D02*
G37*
G36*
X-17893Y-15722D02*
X-17932Y-15862D01*
X-17997Y-15878D01*
X-18558Y-15318D01*
X-18653Y-15254D01*
X-18765Y-15232D01*
X-20675D01*
X-20787Y-15254D01*
X-20882Y-15318D01*
X-22307Y-16743D01*
X-22371Y-16838D01*
X-22393Y-16950D01*
Y-17544D01*
X-22455Y-17577D01*
X-22520Y-17595D01*
X-22617Y-17530D01*
X-22750Y-17503D01*
X-22807Y-17456D01*
Y-17075D01*
X-22807Y-17075D01*
X-22828Y-16973D01*
X-22886Y-16886D01*
X-22886Y-16886D01*
X-23122Y-16649D01*
X-23117Y-16625D01*
X-23127Y-16577D01*
X-23025Y-16453D01*
Y-16000D01*
X-22925D01*
Y-15900D01*
X-22400D01*
Y-15677D01*
X-22400Y-15550D01*
X-22400D01*
Y-15550D01*
X-22400D01*
Y-15200D01*
X-22925D01*
Y-15000D01*
X-22400D01*
Y-14650D01*
X-22560D01*
X-22577Y-14637D01*
X-22625Y-14523D01*
X-22596Y-14493D01*
X-19121D01*
X-17893Y-15722D01*
D02*
G37*
G36*
X-14403Y-11863D02*
X-14327Y-11913D01*
Y-12300D01*
X-14525D01*
Y-13500D01*
X-14525D01*
Y-13500D01*
X-14525D01*
Y-14000D01*
X-13475D01*
Y-13992D01*
X-13355Y-13902D01*
X-13300Y-13919D01*
Y-14225D01*
X-13275D01*
Y-14725D01*
X-12799D01*
X-12750Y-14842D01*
X-13402Y-15494D01*
X-13633D01*
X-13658Y-15458D01*
X-13815Y-15353D01*
X-14000Y-15316D01*
X-14185Y-15353D01*
X-14342Y-15458D01*
X-14461Y-15406D01*
X-14794Y-15073D01*
Y-14725D01*
X-14725D01*
Y-14225D01*
X-14700D01*
Y-12775D01*
X-14725D01*
Y-12275D01*
X-15126D01*
X-15175Y-12158D01*
X-14753Y-11736D01*
X-14487D01*
X-14403Y-11863D01*
D02*
G37*
G36*
X-17350Y-22140D02*
Y-22700D01*
X-16450D01*
Y-22468D01*
X-16250D01*
Y-22944D01*
X-18716D01*
X-19143Y-22518D01*
X-19238Y-22454D01*
X-19350Y-22432D01*
X-20559D01*
X-20642Y-22305D01*
X-20616Y-22175D01*
X-20650Y-22002D01*
X-20644Y-21968D01*
X-20594Y-21875D01*
X-19425D01*
Y-21425D01*
X-19325D01*
Y-21325D01*
X-18800D01*
Y-21093D01*
X-18396D01*
X-17350Y-22140D01*
D02*
G37*
G36*
X-16143Y-33850D02*
X-16121Y-33962D01*
X-16057Y-34057D01*
X-12393Y-37721D01*
Y-40579D01*
X-16517Y-44702D01*
X-16575Y-44691D01*
X-16760Y-44728D01*
X-16917Y-44833D01*
X-17022Y-44990D01*
X-17059Y-45175D01*
X-17048Y-45233D01*
X-17507Y-45693D01*
X-17571Y-45788D01*
X-17593Y-45900D01*
Y-51980D01*
X-19532D01*
Y-39446D01*
X-17558Y-37473D01*
X-17500Y-37484D01*
X-17315Y-37447D01*
X-17158Y-37342D01*
X-17053Y-37185D01*
X-17016Y-37000D01*
X-17040Y-36877D01*
X-17046Y-36810D01*
X-16950Y-36739D01*
X-16865Y-36722D01*
X-16708Y-36617D01*
X-16603Y-36460D01*
X-16566Y-36275D01*
X-16603Y-36090D01*
X-16708Y-35933D01*
X-16865Y-35828D01*
X-17050Y-35791D01*
X-17217Y-35824D01*
X-17263Y-35783D01*
X-17301Y-35721D01*
X-17278Y-35685D01*
X-17241Y-35500D01*
X-17278Y-35315D01*
X-17383Y-35158D01*
X-17432Y-35125D01*
Y-34861D01*
X-17315Y-34813D01*
X-13573Y-38554D01*
X-13584Y-38613D01*
X-13547Y-38798D01*
X-13442Y-38955D01*
X-13285Y-39060D01*
X-13100Y-39097D01*
X-12915Y-39060D01*
X-12758Y-38955D01*
X-12653Y-38798D01*
X-12616Y-38613D01*
X-12653Y-38427D01*
X-12758Y-38270D01*
X-12915Y-38165D01*
X-13100Y-38128D01*
X-13158Y-38140D01*
X-17007Y-34291D01*
Y-30975D01*
X-16475D01*
Y-30975D01*
X-16375D01*
Y-30975D01*
X-16143D01*
Y-33850D01*
D02*
G37*
G36*
X-22642Y-34686D02*
X-22659Y-34775D01*
X-22622Y-34960D01*
X-22517Y-35117D01*
X-22360Y-35222D01*
X-22175Y-35259D01*
X-21990Y-35222D01*
X-21833Y-35117D01*
X-21778Y-35036D01*
X-21643Y-35063D01*
X-21623Y-35162D01*
X-21518Y-35319D01*
X-21361Y-35424D01*
X-21176Y-35461D01*
X-20991Y-35424D01*
X-20873Y-35346D01*
X-20831Y-35320D01*
X-20715Y-35371D01*
X-20667Y-35442D01*
X-20510Y-35547D01*
X-20325Y-35584D01*
X-20233Y-35566D01*
X-20128Y-35648D01*
X-20122Y-35783D01*
X-21707Y-37368D01*
X-21850Y-37331D01*
X-21933Y-37208D01*
X-22090Y-37103D01*
X-22275Y-37066D01*
X-22460Y-37103D01*
X-22617Y-37208D01*
X-22722Y-37365D01*
X-22759Y-37550D01*
X-22722Y-37735D01*
X-22617Y-37892D01*
X-22494Y-37975D01*
X-22457Y-38118D01*
X-27346Y-43007D01*
X-27525D01*
X-27558Y-42958D01*
X-27715Y-42853D01*
X-27900Y-42816D01*
X-28085Y-42853D01*
X-28242Y-42958D01*
X-28347Y-43115D01*
X-28384Y-43300D01*
X-28347Y-43485D01*
X-28242Y-43642D01*
X-28149Y-43705D01*
X-28188Y-43832D01*
X-29985D01*
X-30097Y-43854D01*
X-30192Y-43918D01*
X-30759Y-44485D01*
X-30996Y-44387D01*
X-31270Y-44351D01*
X-31370Y-44364D01*
X-31429Y-44244D01*
X-25935Y-38750D01*
X-25818Y-38799D01*
Y-39625D01*
X-25867Y-39658D01*
X-25972Y-39815D01*
X-26009Y-40000D01*
X-25972Y-40185D01*
X-25867Y-40342D01*
X-25710Y-40447D01*
X-25525Y-40484D01*
X-25340Y-40447D01*
X-25183Y-40342D01*
X-25078Y-40185D01*
X-25041Y-40000D01*
X-25078Y-39815D01*
X-25183Y-39658D01*
X-25232Y-39625D01*
Y-38746D01*
X-23543Y-37057D01*
X-23479Y-36962D01*
X-23457Y-36850D01*
Y-35226D01*
X-23409Y-35194D01*
X-23304Y-35037D01*
X-23267Y-34852D01*
X-23304Y-34666D01*
X-23409Y-34509D01*
X-23500Y-34448D01*
X-23531Y-34325D01*
X-23518Y-34295D01*
X-23428Y-34160D01*
X-23414Y-34093D01*
X-23276Y-34052D01*
X-22642Y-34686D01*
D02*
G37*
G36*
X-39549Y-42802D02*
X-39598Y-42919D01*
X-49966D01*
X-50393Y-42493D01*
X-50488Y-42429D01*
X-50600Y-42407D01*
X-52370D01*
X-52413Y-42280D01*
X-52281Y-42179D01*
X-52113Y-41960D01*
X-52007Y-41704D01*
X-51971Y-41430D01*
X-52007Y-41156D01*
X-52113Y-40900D01*
X-52281Y-40681D01*
X-52500Y-40513D01*
X-52756Y-40407D01*
X-53030Y-40371D01*
X-53304Y-40407D01*
X-53560Y-40513D01*
X-53779Y-40681D01*
X-53947Y-40900D01*
X-54053Y-41156D01*
X-54089Y-41430D01*
X-54053Y-41704D01*
X-53947Y-41960D01*
X-53779Y-42179D01*
X-53647Y-42280D01*
X-53690Y-42407D01*
X-54179D01*
X-54645Y-41940D01*
X-54547Y-41704D01*
X-54511Y-41430D01*
X-54547Y-41156D01*
X-54653Y-40900D01*
X-54821Y-40681D01*
X-54953Y-40580D01*
X-54910Y-40453D01*
X-54300D01*
X-54188Y-40431D01*
X-54093Y-40367D01*
X-53541Y-39815D01*
X-53304Y-39913D01*
X-53030Y-39949D01*
X-52756Y-39913D01*
X-52500Y-39807D01*
X-52281Y-39639D01*
X-52113Y-39420D01*
X-52007Y-39164D01*
X-51971Y-38890D01*
X-51983Y-38798D01*
X-51029Y-37843D01*
X-50175D01*
X-50142Y-37892D01*
X-49985Y-37997D01*
X-49800Y-38034D01*
X-49615Y-37997D01*
X-49466Y-37898D01*
X-49428Y-37883D01*
X-49347D01*
X-49309Y-37898D01*
X-49160Y-37997D01*
X-48975Y-38034D01*
X-48790Y-37997D01*
X-48633Y-37892D01*
X-48528Y-37735D01*
X-48491Y-37550D01*
X-48528Y-37365D01*
X-48633Y-37208D01*
X-48790Y-37103D01*
X-48906Y-37079D01*
X-49215Y-36770D01*
X-49163Y-36643D01*
X-45708D01*
X-39549Y-42802D01*
D02*
G37*
G36*
X-11025Y-12949D02*
X-11025Y-13500D01*
X-11025Y-13627D01*
Y-14000D01*
X-9975D01*
Y-13627D01*
X-9975Y-13500D01*
X-9975Y-13347D01*
X-9885Y-13257D01*
X-8020D01*
Y-14540D01*
X-6172D01*
X-6120Y-14667D01*
X-6529Y-15076D01*
X-6696Y-15007D01*
X-6970Y-14971D01*
X-7244Y-15007D01*
X-7500Y-15113D01*
X-7719Y-15281D01*
X-7887Y-15500D01*
X-7980Y-15724D01*
X-10193D01*
X-11225Y-14692D01*
Y-14225D01*
X-11200D01*
Y-12978D01*
X-11073Y-12914D01*
X-11025Y-12949D01*
D02*
G37*
G36*
X-33660Y-32654D02*
X-33567Y-32792D01*
X-33518Y-32825D01*
Y-35554D01*
X-33682Y-35718D01*
X-33827Y-35686D01*
X-33839Y-35667D01*
X-33816Y-35550D01*
X-33853Y-35365D01*
X-33958Y-35208D01*
X-34115Y-35103D01*
X-34300Y-35066D01*
X-34485Y-35103D01*
X-34642Y-35208D01*
X-34747Y-35365D01*
X-34784Y-35550D01*
X-34747Y-35735D01*
X-34680Y-35837D01*
X-34745Y-35880D01*
X-35970Y-37105D01*
X-36033Y-37200D01*
X-36056Y-37312D01*
Y-39912D01*
X-36033Y-40025D01*
X-35970Y-40120D01*
X-35328Y-40762D01*
X-35340Y-40888D01*
X-35347Y-40893D01*
X-35673Y-41219D01*
X-36472D01*
X-36476Y-41217D01*
X-36588Y-41194D01*
X-36591D01*
X-36975Y-40811D01*
Y-34924D01*
X-35873Y-33823D01*
X-35756Y-33885D01*
X-35759Y-33900D01*
X-35722Y-34085D01*
X-35617Y-34242D01*
X-35460Y-34347D01*
X-35365Y-34366D01*
X-35362Y-34368D01*
X-35304Y-34508D01*
X-35315Y-34524D01*
X-35460Y-34553D01*
X-35617Y-34658D01*
X-35722Y-34815D01*
X-35759Y-35000D01*
X-35722Y-35185D01*
X-35617Y-35342D01*
X-35460Y-35447D01*
X-35275Y-35484D01*
X-35090Y-35447D01*
X-34933Y-35342D01*
X-34828Y-35185D01*
X-34791Y-35000D01*
X-34802Y-34942D01*
X-34652Y-34792D01*
X-34642Y-34792D01*
X-34485Y-34897D01*
X-34300Y-34934D01*
X-34115Y-34897D01*
X-33958Y-34792D01*
X-33853Y-34635D01*
X-33816Y-34450D01*
X-33853Y-34265D01*
X-33958Y-34108D01*
X-34007Y-34075D01*
Y-32821D01*
X-33797Y-32611D01*
X-33660Y-32654D01*
D02*
G37*
G36*
X-33183Y-682D02*
X-33218Y-686D01*
X-33421Y-771D01*
X-33596Y-904D01*
X-33729Y-1079D01*
X-33814Y-1282D01*
X-33842Y-1500D01*
X-33814Y-1718D01*
X-33729Y-1921D01*
X-33596Y-2096D01*
X-33421Y-2229D01*
X-33218Y-2314D01*
X-33000Y-2342D01*
X-32782Y-2314D01*
X-32579Y-2229D01*
X-32404Y-2096D01*
X-32271Y-1921D01*
X-32228Y-1818D01*
X-30450D01*
X-30417Y-1867D01*
X-30303Y-1944D01*
X-30341Y-2071D01*
X-31790D01*
X-31868Y-2087D01*
X-31934Y-2131D01*
X-31978Y-2197D01*
X-31994Y-2275D01*
Y-3897D01*
X-32121Y-3965D01*
X-32215Y-3903D01*
X-32400Y-3866D01*
X-32585Y-3903D01*
X-32742Y-4008D01*
X-32847Y-4165D01*
X-32884Y-4350D01*
X-32855Y-4498D01*
X-32929Y-4625D01*
X-33000D01*
Y-4644D01*
X-33093Y-4694D01*
X-33127Y-4700D01*
X-33300Y-4666D01*
X-33485Y-4703D01*
X-33642Y-4808D01*
X-33747Y-4965D01*
X-33784Y-5150D01*
X-33747Y-5335D01*
X-33642Y-5492D01*
X-33485Y-5597D01*
X-33300Y-5634D01*
X-33127Y-5600D01*
X-33093Y-5606D01*
X-33000Y-5656D01*
Y-5675D01*
X-32929D01*
X-32855Y-5802D01*
X-32884Y-5950D01*
X-32847Y-6135D01*
X-32742Y-6292D01*
X-32585Y-6397D01*
X-32400Y-6434D01*
X-32215Y-6397D01*
X-32121Y-6335D01*
X-31994Y-6403D01*
Y-9275D01*
X-31978Y-9353D01*
X-31934Y-9419D01*
X-31868Y-9463D01*
X-31790Y-9479D01*
X-29618D01*
X-29500Y-9500D01*
Y-10120D01*
X-29698Y-10318D01*
X-29808Y-10308D01*
X-29965Y-10203D01*
X-30150Y-10166D01*
X-30335Y-10203D01*
X-30492Y-10308D01*
X-30597Y-10465D01*
X-30634Y-10650D01*
X-30597Y-10835D01*
X-30492Y-10992D01*
X-30443Y-11025D01*
Y-11600D01*
X-30512Y-11635D01*
X-30570Y-11649D01*
X-30715Y-11553D01*
X-30900Y-11516D01*
X-31085Y-11553D01*
X-31242Y-11658D01*
X-31347Y-11815D01*
X-31384Y-12000D01*
X-31347Y-12185D01*
X-31242Y-12342D01*
X-31193Y-12375D01*
Y-12835D01*
X-31171Y-12947D01*
X-31107Y-13042D01*
X-30092Y-14057D01*
X-29997Y-14121D01*
X-29885Y-14143D01*
X-28163D01*
X-28124Y-14270D01*
X-28233Y-14342D01*
X-28365Y-14541D01*
X-28412Y-14775D01*
X-28365Y-15009D01*
X-28233Y-15208D01*
X-28034Y-15340D01*
X-27800Y-15387D01*
X-27566Y-15340D01*
X-27367Y-15208D01*
X-27235Y-15009D01*
X-27188Y-14775D01*
X-27200Y-14716D01*
X-27119Y-14618D01*
X-26614D01*
X-26500Y-14650D01*
Y-15000D01*
X-25975D01*
Y-15200D01*
X-26500D01*
Y-15550D01*
X-26500D01*
Y-15550D01*
X-26500D01*
Y-15900D01*
X-25975D01*
Y-16000D01*
X-25875D01*
Y-16450D01*
X-25281D01*
Y-17446D01*
X-25350Y-17503D01*
X-25483Y-17530D01*
X-25595Y-17605D01*
X-25649Y-17686D01*
X-25759Y-17699D01*
X-25794Y-17692D01*
X-25813Y-17663D01*
X-25899Y-17606D01*
X-26000Y-17586D01*
X-26101Y-17606D01*
X-26187Y-17663D01*
X-26244Y-17749D01*
X-26264Y-17850D01*
X-26244Y-17951D01*
X-26187Y-18037D01*
X-26101Y-18094D01*
X-26068Y-18101D01*
X-26083Y-18175D01*
X-26068Y-18249D01*
X-26101Y-18256D01*
X-26187Y-18313D01*
X-26244Y-18399D01*
X-26258Y-18472D01*
X-26388Y-18472D01*
X-26403Y-18398D01*
X-26461Y-18311D01*
X-26548Y-18223D01*
X-26548Y-18185D01*
X-26518Y-18074D01*
X-26463Y-18037D01*
X-26406Y-17951D01*
X-26386Y-17850D01*
X-26406Y-17749D01*
X-26463Y-17663D01*
X-26549Y-17606D01*
X-26650Y-17586D01*
X-26751Y-17606D01*
X-26837Y-17663D01*
X-26894Y-17749D01*
X-26902Y-17788D01*
X-26907Y-17791D01*
X-27021Y-17798D01*
X-27041Y-17788D01*
X-27050Y-17780D01*
X-27056Y-17749D01*
X-27113Y-17663D01*
X-27199Y-17606D01*
X-27300Y-17586D01*
X-27357Y-17539D01*
Y-17042D01*
X-27354Y-17037D01*
X-27332Y-16925D01*
X-27354Y-16813D01*
X-27418Y-16718D01*
X-28943Y-15193D01*
X-29038Y-15129D01*
X-29150Y-15107D01*
X-30454D01*
X-32232Y-13329D01*
Y-8475D01*
X-32254Y-8363D01*
X-32318Y-8268D01*
X-36675Y-3911D01*
Y-3132D01*
X-36697Y-3020D01*
X-36761Y-2925D01*
X-37840Y-1846D01*
X-37786Y-1718D01*
X-37758Y-1500D01*
X-37786Y-1282D01*
X-37871Y-1079D01*
X-38004Y-904D01*
X-38179Y-771D01*
X-38382Y-686D01*
X-38417Y-682D01*
X-38409Y-555D01*
X-33191D01*
X-33183Y-682D01*
D02*
G37*
G36*
X-11352Y-729D02*
X-11299Y-736D01*
X-11246Y-751D01*
X-11203Y-767D01*
X-11161Y-787D01*
X-11117Y-815D01*
X-11079Y-844D01*
X-11040Y-878D01*
X-11011Y-914D01*
X-10983Y-951D01*
X-10959Y-992D01*
X-10939Y-1034D01*
X-10923Y-1076D01*
X-10911Y-1127D01*
X-10904Y-1172D01*
X-10900Y-1225D01*
Y-2125D01*
X-10904Y-2180D01*
X-10912Y-2225D01*
X-10924Y-2275D01*
X-10940Y-2315D01*
X-10953Y-2348D01*
X-10978Y-2391D01*
X-11004Y-2428D01*
X-11035Y-2466D01*
X-11080Y-2507D01*
X-11120Y-2537D01*
X-11166Y-2566D01*
X-11219Y-2590D01*
X-11306Y-2616D01*
X-11400Y-2625D01*
X-13000D01*
Y-725D01*
X-11400D01*
X-11352Y-729D01*
D02*
G37*
G36*
X-38783Y-682D02*
X-38818Y-686D01*
X-39021Y-771D01*
X-39196Y-904D01*
X-39329Y-1079D01*
X-39414Y-1282D01*
X-39442Y-1500D01*
X-39414Y-1718D01*
X-39329Y-1921D01*
X-39196Y-2096D01*
X-39021Y-2229D01*
X-38818Y-2314D01*
X-38600Y-2342D01*
X-38382Y-2314D01*
X-38254Y-2260D01*
X-37261Y-3253D01*
Y-3508D01*
X-37379Y-3557D01*
X-37643Y-3293D01*
X-37738Y-3229D01*
X-37815Y-3214D01*
X-37871Y-3079D01*
X-38004Y-2904D01*
X-38179Y-2771D01*
X-38382Y-2686D01*
X-38600Y-2658D01*
X-38818Y-2686D01*
X-39021Y-2771D01*
X-39196Y-2904D01*
X-39329Y-3079D01*
X-39414Y-3282D01*
X-39442Y-3500D01*
X-39414Y-3718D01*
X-39329Y-3921D01*
X-39208Y-4080D01*
X-39237Y-4207D01*
X-40479D01*
X-40840Y-3846D01*
X-40786Y-3718D01*
X-40758Y-3500D01*
X-40786Y-3282D01*
X-40871Y-3079D01*
X-41004Y-2904D01*
X-41179Y-2771D01*
X-41382Y-2686D01*
X-41600Y-2658D01*
X-41818Y-2686D01*
X-42021Y-2771D01*
X-42196Y-2904D01*
X-42329Y-3079D01*
X-42414Y-3282D01*
X-42442Y-3500D01*
X-42414Y-3718D01*
X-42329Y-3921D01*
X-42196Y-4096D01*
X-42021Y-4229D01*
X-41818Y-4314D01*
X-41600Y-4342D01*
X-41382Y-4314D01*
X-41254Y-4260D01*
X-40807Y-4707D01*
X-40712Y-4771D01*
X-40600Y-4793D01*
X-39237D01*
X-39208Y-4920D01*
X-39329Y-5079D01*
X-39414Y-5282D01*
X-39442Y-5500D01*
X-39414Y-5718D01*
X-39329Y-5921D01*
X-39208Y-6080D01*
X-39237Y-6207D01*
X-40479D01*
X-40840Y-5846D01*
X-40786Y-5718D01*
X-40758Y-5500D01*
X-40786Y-5282D01*
X-40871Y-5079D01*
X-41004Y-4904D01*
X-41179Y-4771D01*
X-41382Y-4686D01*
X-41600Y-4658D01*
X-41818Y-4686D01*
X-42021Y-4771D01*
X-42196Y-4904D01*
X-42329Y-5079D01*
X-42414Y-5282D01*
X-42442Y-5500D01*
X-42414Y-5718D01*
X-42329Y-5921D01*
X-42196Y-6096D01*
X-42021Y-6229D01*
X-41818Y-6314D01*
X-41600Y-6342D01*
X-41382Y-6314D01*
X-41254Y-6260D01*
X-40807Y-6707D01*
X-40712Y-6771D01*
X-40600Y-6793D01*
X-39237D01*
X-39208Y-6920D01*
X-39329Y-7079D01*
X-39414Y-7282D01*
X-39442Y-7500D01*
X-39414Y-7718D01*
X-39329Y-7921D01*
X-39196Y-8096D01*
X-39021Y-8229D01*
X-38818Y-8314D01*
X-38600Y-8342D01*
X-38382Y-8314D01*
X-38179Y-8229D01*
X-38004Y-8096D01*
X-37871Y-7921D01*
X-37818Y-7793D01*
X-37221D01*
X-36535Y-8479D01*
X-36547Y-8538D01*
X-36510Y-8723D01*
X-36405Y-8880D01*
X-36386Y-8892D01*
X-36425Y-9019D01*
X-39666D01*
X-40840Y-7846D01*
X-40786Y-7718D01*
X-40758Y-7500D01*
X-40786Y-7282D01*
X-40871Y-7079D01*
X-41004Y-6904D01*
X-41179Y-6771D01*
X-41382Y-6686D01*
X-41600Y-6658D01*
X-41818Y-6686D01*
X-42021Y-6771D01*
X-42196Y-6904D01*
X-42329Y-7079D01*
X-42414Y-7282D01*
X-42442Y-7500D01*
X-42414Y-7718D01*
X-42329Y-7921D01*
X-42196Y-8096D01*
X-42021Y-8229D01*
X-41818Y-8314D01*
X-41600Y-8342D01*
X-41382Y-8314D01*
X-41254Y-8260D01*
X-39995Y-9520D01*
X-39900Y-9583D01*
X-39787Y-9606D01*
X-35284D01*
X-34893Y-9996D01*
Y-14400D01*
X-34871Y-14512D01*
X-34807Y-14607D01*
X-32940Y-16475D01*
X-33020Y-16574D01*
X-33066Y-16544D01*
X-33191Y-16460D01*
X-33425Y-16413D01*
X-33659Y-16460D01*
X-33858Y-16592D01*
X-33942Y-16719D01*
X-35700D01*
Y-16425D01*
X-36750D01*
Y-16425D01*
X-36850Y-16425D01*
Y-16425D01*
X-37900D01*
Y-17498D01*
X-37900Y-17625D01*
X-37900Y-17752D01*
Y-18825D01*
X-37681D01*
Y-18958D01*
X-37717Y-18983D01*
X-37822Y-19140D01*
X-37859Y-19325D01*
X-37822Y-19510D01*
X-37717Y-19667D01*
X-37560Y-19772D01*
X-37375Y-19809D01*
X-37190Y-19772D01*
X-37033Y-19667D01*
X-36928Y-19510D01*
X-36891Y-19325D01*
X-36928Y-19140D01*
X-37033Y-18983D01*
X-37069Y-18958D01*
Y-18825D01*
X-36877D01*
X-36850Y-18825D01*
X-36750Y-18825D01*
X-36723Y-18825D01*
X-36325D01*
Y-18225D01*
X-36225D01*
Y-18125D01*
X-35700D01*
Y-17752D01*
X-35700Y-17625D01*
X-35700Y-17498D01*
Y-17331D01*
X-33942D01*
X-33858Y-17458D01*
X-33659Y-17590D01*
X-33425Y-17637D01*
X-33191Y-17590D01*
X-32992Y-17458D01*
X-32860Y-17259D01*
X-32813Y-17025D01*
X-32860Y-16791D01*
X-32944Y-16666D01*
X-32974Y-16620D01*
X-32875Y-16540D01*
X-31082Y-18333D01*
X-31131Y-18450D01*
X-32050D01*
Y-18900D01*
X-32150D01*
Y-19000D01*
X-32675D01*
Y-19323D01*
X-32675Y-19350D01*
X-32740Y-19450D01*
X-33325D01*
Y-19707D01*
X-33525D01*
X-33558Y-19658D01*
X-33715Y-19553D01*
X-33900Y-19516D01*
X-34085Y-19553D01*
X-34242Y-19658D01*
X-34347Y-19815D01*
X-34384Y-20000D01*
X-34347Y-20185D01*
X-34242Y-20342D01*
X-34085Y-20447D01*
X-33900Y-20484D01*
X-33715Y-20447D01*
X-33558Y-20342D01*
X-33525Y-20293D01*
X-33325D01*
Y-20550D01*
X-32225D01*
Y-19477D01*
X-32225Y-19450D01*
X-32160Y-19350D01*
X-31990D01*
X-31925Y-19450D01*
Y-20550D01*
X-30825D01*
Y-20543D01*
X-30376D01*
X-30283Y-20683D01*
X-30147Y-20773D01*
X-30186Y-20900D01*
X-31325D01*
Y-20900D01*
X-31452Y-20955D01*
X-31525Y-20941D01*
X-31710Y-20978D01*
X-31867Y-21083D01*
X-31972Y-21240D01*
X-32009Y-21425D01*
X-31972Y-21610D01*
X-31867Y-21767D01*
X-31710Y-21872D01*
X-31525Y-21909D01*
X-31452Y-21895D01*
X-31402Y-21916D01*
X-31325Y-21999D01*
Y-22275D01*
X-30875D01*
Y-22375D01*
X-30775D01*
Y-22900D01*
X-30125D01*
X-30076Y-23017D01*
X-31641Y-24582D01*
X-33765D01*
X-33877Y-24604D01*
X-33972Y-24668D01*
X-35396Y-26091D01*
X-35560Y-26058D01*
X-35794Y-26105D01*
X-35993Y-26237D01*
X-36125Y-26436D01*
X-36172Y-26670D01*
X-36125Y-26904D01*
X-35993Y-27103D01*
X-35853Y-27196D01*
Y-28575D01*
X-35900D01*
Y-29775D01*
X-35900D01*
Y-29775D01*
X-35900D01*
Y-30806D01*
X-36027Y-30859D01*
X-36332Y-30554D01*
Y-26375D01*
X-36283Y-26342D01*
X-36178Y-26185D01*
X-36141Y-26000D01*
X-36178Y-25815D01*
X-36283Y-25658D01*
X-36440Y-25553D01*
X-36625Y-25516D01*
X-36810Y-25553D01*
X-36967Y-25658D01*
X-37072Y-25815D01*
X-37109Y-26000D01*
X-37072Y-26185D01*
X-36967Y-26342D01*
X-36918Y-26375D01*
Y-30675D01*
X-36896Y-30787D01*
X-36832Y-30882D01*
X-36281Y-31434D01*
Y-32202D01*
X-36408Y-32215D01*
X-36428Y-32115D01*
X-36533Y-31958D01*
X-36690Y-31853D01*
X-36875Y-31816D01*
X-37060Y-31853D01*
X-37217Y-31958D01*
X-37322Y-32115D01*
X-37344Y-32222D01*
X-37399Y-32305D01*
X-37482Y-32314D01*
X-37600Y-32291D01*
X-37785Y-32328D01*
X-37942Y-32433D01*
X-37975Y-32482D01*
X-38514D01*
X-38582Y-32355D01*
X-38553Y-32310D01*
X-38516Y-32125D01*
X-38553Y-31940D01*
X-38658Y-31783D01*
X-38815Y-31678D01*
X-39000Y-31641D01*
X-39185Y-31678D01*
X-39342Y-31783D01*
X-39375Y-31832D01*
X-41400D01*
X-41435Y-31763D01*
X-41449Y-31705D01*
X-41353Y-31560D01*
X-41316Y-31375D01*
X-41353Y-31190D01*
X-41458Y-31033D01*
X-41507Y-31000D01*
Y-29875D01*
X-41458Y-29842D01*
X-41353Y-29685D01*
X-41316Y-29500D01*
X-41353Y-29315D01*
X-41458Y-29158D01*
X-41615Y-29053D01*
X-41800Y-29016D01*
X-41985Y-29053D01*
X-42142Y-29158D01*
X-42230Y-29288D01*
X-42357Y-29263D01*
Y-28275D01*
X-42308Y-28242D01*
X-42203Y-28085D01*
X-42166Y-27900D01*
X-42203Y-27715D01*
X-42308Y-27558D01*
X-42465Y-27453D01*
X-42650Y-27416D01*
X-42835Y-27453D01*
X-42992Y-27558D01*
X-43097Y-27715D01*
X-43129Y-27875D01*
X-43209Y-27908D01*
X-43257Y-27913D01*
X-43260Y-27909D01*
X-43417Y-27804D01*
X-43602Y-27767D01*
X-43787Y-27804D01*
X-43945Y-27909D01*
X-44050Y-28066D01*
X-44086Y-28251D01*
X-44050Y-28437D01*
X-43945Y-28594D01*
X-43895Y-28627D01*
Y-31001D01*
X-43945Y-31034D01*
X-44050Y-31191D01*
X-44086Y-31377D01*
X-44050Y-31562D01*
X-43954Y-31705D01*
X-43970Y-31767D01*
X-44004Y-31832D01*
X-49929D01*
X-51968Y-29793D01*
X-52063Y-29729D01*
X-52175Y-29707D01*
X-52370D01*
X-52413Y-29580D01*
X-52281Y-29479D01*
X-52113Y-29260D01*
X-52007Y-29004D01*
X-51984Y-28830D01*
X-53030D01*
X-54076D01*
X-54053Y-29004D01*
X-53947Y-29260D01*
X-53779Y-29479D01*
X-53647Y-29580D01*
X-53690Y-29707D01*
X-54300D01*
X-54412Y-29729D01*
X-54507Y-29793D01*
X-55060Y-30345D01*
X-55296Y-30247D01*
X-55570Y-30211D01*
X-55844Y-30247D01*
X-56100Y-30353D01*
X-56319Y-30521D01*
X-56487Y-30740D01*
X-56593Y-30996D01*
X-56629Y-31270D01*
X-56593Y-31544D01*
X-56487Y-31800D01*
X-56319Y-32019D01*
X-56100Y-32187D01*
X-55844Y-32293D01*
X-55570Y-32329D01*
X-55296Y-32293D01*
X-55040Y-32187D01*
X-54821Y-32019D01*
X-54653Y-31800D01*
X-54547Y-31544D01*
X-54511Y-31270D01*
X-54547Y-30996D01*
X-54645Y-30760D01*
X-54179Y-30293D01*
X-53690D01*
X-53647Y-30420D01*
X-53779Y-30521D01*
X-53947Y-30740D01*
X-54053Y-30996D01*
X-54089Y-31270D01*
X-54053Y-31544D01*
X-53947Y-31800D01*
X-53779Y-32019D01*
X-53634Y-32130D01*
X-53677Y-32257D01*
X-54310D01*
X-54422Y-32279D01*
X-54517Y-32343D01*
X-55060Y-32885D01*
X-55296Y-32787D01*
X-55570Y-32751D01*
X-55844Y-32787D01*
X-56100Y-32893D01*
X-56319Y-33061D01*
X-56487Y-33280D01*
X-56593Y-33536D01*
X-56629Y-33810D01*
X-56593Y-34084D01*
X-56487Y-34340D01*
X-56319Y-34559D01*
X-56100Y-34727D01*
X-55844Y-34833D01*
X-55570Y-34869D01*
X-55296Y-34833D01*
X-55040Y-34727D01*
X-54821Y-34559D01*
X-54653Y-34340D01*
X-54547Y-34084D01*
X-54511Y-33810D01*
X-54547Y-33536D01*
X-54645Y-33299D01*
X-54189Y-32843D01*
X-53703D01*
X-53660Y-32970D01*
X-53779Y-33061D01*
X-53947Y-33280D01*
X-54053Y-33536D01*
X-54089Y-33810D01*
X-54053Y-34084D01*
X-53947Y-34340D01*
X-53779Y-34559D01*
X-53654Y-34655D01*
X-53697Y-34782D01*
X-54295D01*
X-54407Y-34804D01*
X-54502Y-34868D01*
X-55060Y-35425D01*
X-55296Y-35327D01*
X-55570Y-35291D01*
X-55844Y-35327D01*
X-56100Y-35433D01*
X-56319Y-35601D01*
X-56487Y-35820D01*
X-56593Y-36076D01*
X-56629Y-36350D01*
X-56593Y-36624D01*
X-56487Y-36880D01*
X-56319Y-37099D01*
X-56100Y-37267D01*
X-55844Y-37373D01*
X-55570Y-37409D01*
X-55296Y-37373D01*
X-55040Y-37267D01*
X-54821Y-37099D01*
X-54653Y-36880D01*
X-54547Y-36624D01*
X-54511Y-36350D01*
X-54547Y-36076D01*
X-54645Y-35840D01*
X-54174Y-35368D01*
X-53684D01*
X-53641Y-35495D01*
X-53779Y-35601D01*
X-53947Y-35820D01*
X-54053Y-36076D01*
X-54089Y-36350D01*
X-54053Y-36624D01*
X-53947Y-36880D01*
X-53779Y-37099D01*
X-53641Y-37205D01*
X-53684Y-37332D01*
X-54305D01*
X-54417Y-37354D01*
X-54512Y-37418D01*
X-55060Y-37965D01*
X-55296Y-37867D01*
X-55570Y-37831D01*
X-55844Y-37867D01*
X-56100Y-37973D01*
X-56319Y-38141D01*
X-56487Y-38360D01*
X-56593Y-38616D01*
X-56629Y-38890D01*
X-56593Y-39164D01*
X-56496Y-39397D01*
X-58307Y-41208D01*
X-58371Y-41303D01*
X-58393Y-41415D01*
Y-52800D01*
X-58371Y-52912D01*
X-58307Y-53007D01*
X-53070Y-58245D01*
X-52975Y-58308D01*
X-52862Y-58331D01*
X-31938D01*
X-31825Y-58308D01*
X-31730Y-58245D01*
X-31634Y-58148D01*
X-31485Y-58247D01*
X-31300Y-58284D01*
X-31115Y-58247D01*
X-30958Y-58142D01*
X-30925Y-58093D01*
X-6641D01*
X-6637Y-58096D01*
X-6525Y-58118D01*
X-6413Y-58096D01*
X-6318Y-58032D01*
X-1893Y-53607D01*
X-1829Y-53512D01*
X-1807Y-53400D01*
Y-43760D01*
X-1829Y-43648D01*
X-1893Y-43553D01*
X-3505Y-41940D01*
X-3407Y-41704D01*
X-3371Y-41430D01*
X-3407Y-41156D01*
X-3513Y-40900D01*
X-3681Y-40681D01*
X-3900Y-40513D01*
X-4156Y-40407D01*
X-4430Y-40371D01*
X-4704Y-40407D01*
X-4960Y-40513D01*
X-5179Y-40681D01*
X-5347Y-40900D01*
X-5453Y-41156D01*
X-5489Y-41430D01*
X-5453Y-41704D01*
X-5347Y-41960D01*
X-5179Y-42179D01*
X-5015Y-42305D01*
X-5058Y-42432D01*
X-5554D01*
X-6045Y-41940D01*
X-5947Y-41704D01*
X-5911Y-41430D01*
X-5947Y-41156D01*
X-6053Y-40900D01*
X-6221Y-40681D01*
X-6353Y-40580D01*
X-6310Y-40453D01*
X-5700D01*
X-5588Y-40431D01*
X-5493Y-40367D01*
X-4940Y-39815D01*
X-4704Y-39913D01*
X-4430Y-39949D01*
X-4156Y-39913D01*
X-3900Y-39807D01*
X-3681Y-39639D01*
X-3513Y-39420D01*
X-3407Y-39164D01*
X-3371Y-38890D01*
X-3407Y-38616D01*
X-3513Y-38360D01*
X-3681Y-38141D01*
X-3900Y-37973D01*
X-4156Y-37867D01*
X-4430Y-37831D01*
X-4704Y-37867D01*
X-4960Y-37973D01*
X-5179Y-38141D01*
X-5347Y-38360D01*
X-5453Y-38616D01*
X-5489Y-38890D01*
X-5453Y-39164D01*
X-5355Y-39401D01*
X-5821Y-39867D01*
X-6310D01*
X-6353Y-39740D01*
X-6221Y-39639D01*
X-6053Y-39420D01*
X-5947Y-39164D01*
X-5911Y-38890D01*
X-5947Y-38616D01*
X-6053Y-38360D01*
X-6221Y-38141D01*
X-6346Y-38045D01*
X-6303Y-37918D01*
X-5705D01*
X-5593Y-37896D01*
X-5498Y-37832D01*
X-4940Y-37275D01*
X-4704Y-37373D01*
X-4430Y-37409D01*
X-4156Y-37373D01*
X-3900Y-37267D01*
X-3681Y-37099D01*
X-3513Y-36880D01*
X-3407Y-36624D01*
X-3371Y-36350D01*
X-3407Y-36076D01*
X-3513Y-35820D01*
X-3681Y-35601D01*
X-3900Y-35433D01*
X-4156Y-35327D01*
X-4430Y-35291D01*
X-4704Y-35327D01*
X-4960Y-35433D01*
X-5179Y-35601D01*
X-5347Y-35820D01*
X-5453Y-36076D01*
X-5489Y-36350D01*
X-5453Y-36624D01*
X-5355Y-36861D01*
X-5826Y-37332D01*
X-6316D01*
X-6359Y-37205D01*
X-6221Y-37099D01*
X-6053Y-36880D01*
X-5947Y-36624D01*
X-5911Y-36350D01*
X-5947Y-36076D01*
X-6053Y-35820D01*
X-6221Y-35601D01*
X-6440Y-35433D01*
X-6696Y-35327D01*
X-6970Y-35291D01*
X-7244Y-35327D01*
X-7500Y-35433D01*
X-7719Y-35601D01*
X-7887Y-35820D01*
X-7993Y-36076D01*
X-8029Y-36350D01*
X-7993Y-36624D01*
X-7895Y-36861D01*
X-11680Y-40645D01*
X-11807Y-40593D01*
Y-37600D01*
X-11829Y-37488D01*
X-11893Y-37393D01*
X-15557Y-33729D01*
Y-31249D01*
X-15440Y-31200D01*
X-14757Y-31882D01*
X-14662Y-31946D01*
X-14550Y-31968D01*
X-11600D01*
X-11488Y-31946D01*
X-11393Y-31882D01*
X-10210Y-30700D01*
X-10093Y-30749D01*
Y-31579D01*
X-12721Y-34207D01*
X-13500D01*
X-13533Y-34158D01*
X-13690Y-34053D01*
X-13875Y-34016D01*
X-14060Y-34053D01*
X-14217Y-34158D01*
X-14322Y-34315D01*
X-14359Y-34500D01*
X-14322Y-34685D01*
X-14217Y-34842D01*
X-14060Y-34947D01*
X-13875Y-34984D01*
X-13690Y-34947D01*
X-13533Y-34842D01*
X-13500Y-34793D01*
X-12600D01*
X-12488Y-34771D01*
X-12393Y-34707D01*
X-9593Y-31907D01*
X-9529Y-31812D01*
X-9507Y-31700D01*
Y-30991D01*
X-9380Y-30908D01*
X-9250Y-30934D01*
X-9065Y-30897D01*
X-8908Y-30792D01*
X-8803Y-30635D01*
X-8766Y-30450D01*
X-8803Y-30265D01*
X-8908Y-30108D01*
X-8957Y-30075D01*
Y-27128D01*
X-8948Y-27112D01*
X-8900Y-27107D01*
X-8784Y-27175D01*
X-8747Y-27360D01*
X-8642Y-27517D01*
X-8485Y-27622D01*
X-8300Y-27659D01*
X-8124Y-27624D01*
X-8074Y-27660D01*
X-8020Y-27712D01*
Y-29780D01*
X-5920D01*
Y-27680D01*
X-6677D01*
Y-27115D01*
X-6587Y-27025D01*
X-6400Y-27025D01*
X-6273Y-27025D01*
X-5200D01*
Y-27006D01*
X-5107Y-26956D01*
X-5073Y-26950D01*
X-4900Y-26984D01*
X-4715Y-26947D01*
X-4558Y-26842D01*
X-4453Y-26685D01*
X-4416Y-26500D01*
X-4453Y-26315D01*
X-4558Y-26158D01*
X-4715Y-26053D01*
X-4900Y-26016D01*
X-5073Y-26050D01*
X-5107Y-26044D01*
X-5200Y-25994D01*
X-5200Y-25875D01*
X-5200Y-25856D01*
X-5107Y-25806D01*
X-5073Y-25800D01*
X-4900Y-25834D01*
X-4715Y-25797D01*
X-4558Y-25692D01*
X-4453Y-25535D01*
X-4416Y-25350D01*
X-4453Y-25165D01*
X-4558Y-25008D01*
X-4715Y-24903D01*
X-4900Y-24866D01*
X-5073Y-24900D01*
X-5107Y-24894D01*
X-5200Y-24844D01*
Y-24825D01*
X-6273D01*
X-6400Y-24825D01*
X-6527Y-24825D01*
X-7600D01*
Y-24893D01*
X-7727Y-24961D01*
X-7815Y-24903D01*
X-8000Y-24866D01*
X-8185Y-24903D01*
X-8342Y-25008D01*
X-8375Y-25057D01*
X-9129D01*
X-11155Y-23030D01*
X-11250Y-22967D01*
X-11363Y-22944D01*
X-12250D01*
Y-21150D01*
X-13950D01*
Y-22944D01*
X-14550D01*
Y-21150D01*
X-16250D01*
Y-21882D01*
X-16450D01*
Y-21325D01*
X-16900D01*
Y-21125D01*
X-16450D01*
Y-20800D01*
Y-20375D01*
X-16900D01*
Y-20175D01*
X-16450D01*
Y-19818D01*
X-14125D01*
X-14013Y-19796D01*
X-13918Y-19732D01*
X-13535Y-19350D01*
X-12250D01*
Y-17350D01*
X-13950D01*
Y-18935D01*
X-14246Y-19232D01*
X-14550D01*
Y-17350D01*
X-16250D01*
Y-19232D01*
X-16450D01*
Y-18900D01*
X-16425D01*
Y-18500D01*
X-16900D01*
Y-18300D01*
X-16425D01*
Y-17900D01*
X-16425D01*
Y-17900D01*
X-16425D01*
Y-16900D01*
X-17184D01*
X-17244Y-16788D01*
X-17215Y-16744D01*
X-17168Y-16510D01*
X-17204Y-16333D01*
X-17121Y-16206D01*
X-16084D01*
X-15948Y-16342D01*
X-15959Y-16400D01*
X-15922Y-16585D01*
X-15817Y-16742D01*
X-15660Y-16847D01*
X-15475Y-16884D01*
X-15290Y-16847D01*
X-15133Y-16742D01*
X-15028Y-16585D01*
X-15008Y-16486D01*
X-14870Y-16444D01*
X-14782Y-16532D01*
X-14687Y-16596D01*
X-14575Y-16618D01*
X-11536D01*
X-8533Y-19621D01*
Y-21077D01*
X-8606Y-21107D01*
X-8757Y-21223D01*
X-8873Y-21374D01*
X-8946Y-21551D01*
X-8971Y-21740D01*
X-8946Y-21929D01*
X-8873Y-22106D01*
X-8757Y-22257D01*
X-8708Y-22295D01*
Y-22455D01*
X-8757Y-22493D01*
X-8873Y-22644D01*
X-8946Y-22821D01*
X-8958Y-22910D01*
X-8240D01*
Y-23010D01*
X-8140D01*
Y-23728D01*
X-8051Y-23716D01*
X-7874Y-23643D01*
X-7723Y-23527D01*
X-7685Y-23478D01*
X-7525D01*
X-7487Y-23527D01*
X-7336Y-23643D01*
X-7159Y-23716D01*
X-6970Y-23741D01*
X-6781Y-23716D01*
X-6604Y-23643D01*
X-6453Y-23527D01*
X-6415Y-23478D01*
X-6255D01*
X-6217Y-23527D01*
X-6066Y-23643D01*
X-5889Y-23716D01*
X-5700Y-23741D01*
X-5511Y-23716D01*
X-5334Y-23643D01*
X-5183Y-23527D01*
X-5145Y-23478D01*
X-4985D01*
X-4947Y-23527D01*
X-4796Y-23643D01*
X-4619Y-23716D01*
X-4430Y-23741D01*
X-4241Y-23716D01*
X-4168Y-23686D01*
X-3647Y-24207D01*
X-3552Y-24271D01*
X-3440Y-24293D01*
X-2475D01*
X-2363Y-24271D01*
X-2268Y-24207D01*
X-1635Y-23575D01*
X-925D01*
Y-22502D01*
X-925Y-22375D01*
X-925Y-22248D01*
Y-21175D01*
X-1157D01*
Y-19010D01*
X-1179Y-18898D01*
X-1243Y-18803D01*
X-3505Y-16541D01*
X-3407Y-16304D01*
X-3371Y-16030D01*
X-3407Y-15756D01*
X-3513Y-15500D01*
X-3681Y-15281D01*
X-3900Y-15113D01*
X-4156Y-15007D01*
X-4430Y-14971D01*
X-4704Y-15007D01*
X-4960Y-15113D01*
X-5179Y-15281D01*
X-5347Y-15500D01*
X-5453Y-15756D01*
X-5489Y-16030D01*
X-5453Y-16304D01*
X-5347Y-16560D01*
X-5179Y-16779D01*
X-4960Y-16947D01*
X-4704Y-17053D01*
X-4430Y-17089D01*
X-4156Y-17053D01*
X-3920Y-16955D01*
X-1743Y-19131D01*
Y-21175D01*
X-1975D01*
Y-22248D01*
X-1975Y-22375D01*
X-1975Y-22502D01*
Y-23085D01*
X-2550Y-23661D01*
X-2597Y-23652D01*
X-2628Y-23568D01*
X-2634Y-23516D01*
X-2527Y-23376D01*
X-2454Y-23199D01*
X-2442Y-23110D01*
X-3160D01*
Y-22910D01*
X-2442D01*
X-2454Y-22821D01*
X-2527Y-22644D01*
X-2643Y-22493D01*
X-2692Y-22455D01*
Y-22295D01*
X-2643Y-22257D01*
X-2527Y-22106D01*
X-2454Y-21929D01*
X-2429Y-21740D01*
X-2454Y-21551D01*
X-2527Y-21374D01*
X-2643Y-21223D01*
X-2794Y-21107D01*
X-2971Y-21034D01*
X-3160Y-21009D01*
X-3349Y-21034D01*
X-3526Y-21107D01*
X-3677Y-21223D01*
X-3715Y-21272D01*
X-3875D01*
X-3913Y-21223D01*
X-4064Y-21107D01*
X-4241Y-21034D01*
X-4430Y-21009D01*
X-4619Y-21034D01*
X-4796Y-21107D01*
X-4947Y-21223D01*
X-4985Y-21272D01*
X-5145D01*
X-5183Y-21223D01*
X-5334Y-21107D01*
X-5511Y-21034D01*
X-5700Y-21009D01*
X-5889Y-21034D01*
X-6066Y-21107D01*
X-6217Y-21223D01*
X-6255Y-21272D01*
X-6415D01*
X-6453Y-21223D01*
X-6604Y-21107D01*
X-6781Y-21034D01*
X-6970Y-21009D01*
X-7159Y-21034D01*
X-7336Y-21107D01*
X-7487Y-21223D01*
X-7525Y-21272D01*
X-7685D01*
X-7723Y-21223D01*
X-7874Y-21107D01*
X-7947Y-21077D01*
Y-19500D01*
X-7969Y-19387D01*
X-8033Y-19292D01*
X-11207Y-16118D01*
X-11302Y-16054D01*
X-11415Y-16032D01*
X-12895D01*
X-12947Y-15905D01*
X-12034Y-14991D01*
X-11990Y-14926D01*
X-11873Y-14915D01*
X-11846Y-14922D01*
X-11816Y-14966D01*
X-10536Y-16246D01*
X-10536Y-16246D01*
X-10437Y-16313D01*
X-10320Y-16336D01*
X-10320Y-16336D01*
X-7980D01*
X-7887Y-16560D01*
X-7719Y-16779D01*
X-7500Y-16947D01*
X-7244Y-17053D01*
X-6970Y-17089D01*
X-6696Y-17053D01*
X-6440Y-16947D01*
X-6221Y-16779D01*
X-6053Y-16560D01*
X-5947Y-16304D01*
X-5911Y-16030D01*
X-5947Y-15756D01*
X-6021Y-15578D01*
X-5448Y-15004D01*
X-5370Y-14889D01*
X-5343Y-14752D01*
Y-14222D01*
X-5223Y-14182D01*
X-5179Y-14239D01*
X-4960Y-14407D01*
X-4704Y-14513D01*
X-4530Y-14536D01*
Y-13490D01*
X-4430D01*
Y-13390D01*
X-3384D01*
X-3407Y-13216D01*
X-3513Y-12960D01*
X-3681Y-12741D01*
X-3766Y-12676D01*
X-3761Y-12520D01*
X-3667Y-12458D01*
X-3535Y-12259D01*
X-3532Y-12246D01*
X-3412Y-12250D01*
X-3365Y-12484D01*
X-3233Y-12683D01*
X-3034Y-12815D01*
X-2800Y-12862D01*
X-2566Y-12815D01*
X-2367Y-12683D01*
X-2235Y-12484D01*
X-2188Y-12250D01*
X-2235Y-12016D01*
X-2367Y-11817D01*
X-2465Y-11752D01*
X-2427Y-11625D01*
X-2200Y-11625D01*
X-2073Y-11625D01*
X-1700D01*
Y-11100D01*
Y-10575D01*
X-2073D01*
X-2200Y-10575D01*
X-2327Y-10575D01*
X-2910D01*
X-2932Y-10554D01*
Y-10350D01*
X-2675D01*
Y-9725D01*
X-2575D01*
Y-9625D01*
X-2200D01*
Y-9380D01*
X-2083Y-9332D01*
X-1725Y-9690D01*
Y-10400D01*
X-682D01*
X-675Y-10400D01*
X-555Y-10417D01*
Y-59445D01*
X-59445D01*
Y-555D01*
X-41791D01*
X-41783Y-682D01*
X-41818Y-686D01*
X-42021Y-771D01*
X-42196Y-904D01*
X-42329Y-1079D01*
X-42414Y-1282D01*
X-42429Y-1400D01*
X-41600D01*
X-40771D01*
X-40786Y-1282D01*
X-40871Y-1079D01*
X-41004Y-904D01*
X-41179Y-771D01*
X-41382Y-686D01*
X-41417Y-682D01*
X-41409Y-555D01*
X-38791D01*
X-38783Y-682D01*
D02*
G37*
G36*
X-18200Y-2625D02*
X-19800D01*
X-19848Y-2621D01*
X-19901Y-2614D01*
X-19954Y-2599D01*
X-19997Y-2583D01*
X-20039Y-2563D01*
X-20083Y-2535D01*
X-20121Y-2506D01*
X-20160Y-2472D01*
X-20189Y-2436D01*
X-20217Y-2399D01*
X-20241Y-2358D01*
X-20261Y-2316D01*
X-20277Y-2274D01*
X-20289Y-2223D01*
X-20296Y-2178D01*
X-20300Y-2125D01*
Y-1225D01*
X-20296Y-1170D01*
X-20288Y-1125D01*
X-20276Y-1075D01*
X-20260Y-1035D01*
X-20247Y-1002D01*
X-20222Y-959D01*
X-20196Y-922D01*
X-20165Y-884D01*
X-20120Y-843D01*
X-20080Y-813D01*
X-20034Y-784D01*
X-19981Y-760D01*
X-19894Y-734D01*
X-19800Y-725D01*
X-18200D01*
Y-2625D01*
D02*
G37*
G36*
X-555Y-6907D02*
X-682Y-6945D01*
X-767Y-6817D01*
X-966Y-6685D01*
X-1200Y-6638D01*
X-1434Y-6685D01*
X-1633Y-6817D01*
X-1765Y-7016D01*
X-1812Y-7250D01*
X-1765Y-7484D01*
X-1633Y-7683D01*
X-1493Y-7776D01*
Y-8000D01*
X-1725D01*
Y-8695D01*
X-1842Y-8743D01*
X-2200Y-8385D01*
Y-7250D01*
X-2282D01*
Y-7076D01*
X-2142Y-6983D01*
X-2010Y-6784D01*
X-1963Y-6550D01*
X-2010Y-6316D01*
X-2142Y-6117D01*
X-2341Y-5985D01*
X-2575Y-5938D01*
X-2809Y-5985D01*
X-3008Y-6117D01*
X-3140Y-6316D01*
X-3187Y-6550D01*
X-3140Y-6784D01*
X-3008Y-6983D01*
X-2868Y-7076D01*
Y-7250D01*
X-3775D01*
Y-7875D01*
X-3875D01*
Y-7975D01*
X-4250D01*
Y-8307D01*
X-4675D01*
Y-8000D01*
X-5725D01*
Y-8377D01*
X-5852Y-8415D01*
X-5917Y-8317D01*
X-6116Y-8185D01*
X-6350Y-8138D01*
X-6584Y-8185D01*
X-6783Y-8317D01*
X-6915Y-8516D01*
X-6962Y-8750D01*
X-6915Y-8984D01*
X-6783Y-9183D01*
X-6584Y-9315D01*
X-6483Y-9335D01*
Y-9465D01*
X-6584Y-9485D01*
X-6783Y-9617D01*
X-6915Y-9816D01*
X-6962Y-10050D01*
X-6915Y-10284D01*
X-6783Y-10483D01*
X-6584Y-10615D01*
X-6350Y-10662D01*
X-6186Y-10629D01*
X-5900Y-10915D01*
Y-11516D01*
X-6027Y-11568D01*
X-7348Y-10248D01*
X-7463Y-10170D01*
X-7600Y-10143D01*
X-15442D01*
X-15492Y-10067D01*
X-15691Y-9935D01*
X-15925Y-9888D01*
X-16014Y-9906D01*
X-20523Y-5398D01*
X-20638Y-5320D01*
X-20775Y-5293D01*
X-23844D01*
Y-5095D01*
X-24969D01*
Y-4925D01*
X-24992Y-4808D01*
X-25059Y-4709D01*
X-25059Y-4709D01*
X-25334Y-4434D01*
X-25433Y-4367D01*
X-25525Y-4349D01*
Y-4325D01*
X-26525D01*
Y-4450D01*
X-27325D01*
Y-5400D01*
Y-6350D01*
X-26525D01*
Y-6475D01*
X-25525D01*
Y-5956D01*
X-25006D01*
Y-6258D01*
X-23844D01*
Y-6007D01*
X-20923D01*
X-16519Y-10411D01*
X-16537Y-10500D01*
X-16507Y-10649D01*
X-16616Y-10759D01*
X-16683Y-10858D01*
X-16706Y-10975D01*
X-16706Y-10975D01*
Y-12275D01*
X-16775D01*
Y-12775D01*
X-16800D01*
Y-13194D01*
X-16958D01*
X-17042Y-13067D01*
X-17241Y-12935D01*
X-17475Y-12888D01*
X-17709Y-12935D01*
X-17908Y-13067D01*
X-18040Y-13266D01*
X-18087Y-13500D01*
X-18040Y-13734D01*
X-17908Y-13933D01*
X-17709Y-14065D01*
X-17475Y-14112D01*
X-17241Y-14065D01*
X-17042Y-13933D01*
X-16958Y-13806D01*
X-16800D01*
Y-14225D01*
X-16775D01*
Y-14725D01*
X-16239D01*
X-16179Y-14837D01*
X-16197Y-14865D01*
X-16234Y-15050D01*
X-16211Y-15167D01*
X-16299Y-15294D01*
X-17031D01*
X-18670Y-13656D01*
X-18765Y-13592D01*
X-18877Y-13570D01*
X-19123D01*
X-19191Y-13443D01*
X-19153Y-13385D01*
X-19116Y-13200D01*
X-19153Y-13015D01*
X-19258Y-12858D01*
X-19415Y-12753D01*
X-19554Y-12725D01*
Y-12595D01*
X-19440Y-12572D01*
X-19283Y-12467D01*
X-19178Y-12310D01*
X-19141Y-12125D01*
X-19178Y-11940D01*
X-19283Y-11783D01*
X-19440Y-11678D01*
X-19625Y-11641D01*
X-19668Y-11649D01*
X-20679Y-10639D01*
X-20778Y-10572D01*
X-20895Y-10549D01*
X-20895Y-10549D01*
X-26603D01*
X-27100Y-10052D01*
Y-9500D01*
X-28300D01*
Y-9500D01*
X-28300D01*
Y-9500D01*
X-28468D01*
Y-9050D01*
X-28150D01*
Y-6900D01*
X-28519D01*
Y-6475D01*
X-28325D01*
Y-6350D01*
X-27525D01*
Y-5400D01*
Y-4450D01*
X-28325D01*
Y-4325D01*
X-28519D01*
Y-3925D01*
X-28200D01*
Y-3925D01*
X-28200D01*
X-28075D01*
Y-3925D01*
X-27002D01*
X-26875Y-3925D01*
X-26748Y-3925D01*
X-26375D01*
Y-3400D01*
Y-2875D01*
X-26748D01*
X-26875Y-2875D01*
X-27002Y-2875D01*
X-28075D01*
Y-2875D01*
X-28200D01*
Y-2875D01*
X-28494D01*
X-28494Y-2742D01*
X-28367Y-2658D01*
X-28235Y-2459D01*
X-28188Y-2225D01*
X-28235Y-1991D01*
X-28367Y-1792D01*
X-28566Y-1660D01*
X-28800Y-1613D01*
X-29034Y-1660D01*
X-29233Y-1792D01*
X-29365Y-1991D01*
X-29402Y-2071D01*
X-29809D01*
X-29847Y-1944D01*
X-29733Y-1867D01*
X-29628Y-1710D01*
X-29591Y-1525D01*
X-29628Y-1340D01*
X-29733Y-1183D01*
X-29890Y-1078D01*
X-30075Y-1041D01*
X-30260Y-1078D01*
X-30417Y-1183D01*
X-30450Y-1232D01*
X-32207D01*
X-32271Y-1079D01*
X-32404Y-904D01*
X-32579Y-771D01*
X-32782Y-686D01*
X-32817Y-682D01*
X-32809Y-555D01*
X-26191D01*
X-26183Y-682D01*
X-26218Y-686D01*
X-26421Y-771D01*
X-26596Y-904D01*
X-26729Y-1079D01*
X-26814Y-1282D01*
X-26842Y-1500D01*
X-26814Y-1718D01*
X-26729Y-1921D01*
X-26596Y-2096D01*
X-26421Y-2229D01*
X-26218Y-2314D01*
X-26000Y-2342D01*
X-25782Y-2314D01*
X-25689Y-2275D01*
X-25579Y-2229D01*
X-25404Y-2096D01*
X-25271Y-1921D01*
X-25187Y-1896D01*
X-25110Y-1947D01*
X-24925Y-1984D01*
X-24740Y-1947D01*
X-24583Y-1842D01*
X-24478Y-1685D01*
X-24441Y-1500D01*
X-24478Y-1315D01*
X-24583Y-1158D01*
X-24740Y-1053D01*
X-24925Y-1016D01*
X-25110Y-1053D01*
X-25187Y-1104D01*
X-25271Y-1079D01*
X-25404Y-904D01*
X-25579Y-771D01*
X-25782Y-686D01*
X-25817Y-682D01*
X-25809Y-555D01*
X-21485D01*
X-21248Y-737D01*
X-20935Y-866D01*
X-20599Y-911D01*
X-20565Y-906D01*
X-20476Y-1022D01*
X-20482Y-1038D01*
X-20489Y-1092D01*
X-20497Y-1134D01*
X-20497Y-1145D01*
X-20499Y-1155D01*
X-20502Y-1186D01*
X-20506Y-1219D01*
Y-2131D01*
X-20501Y-2166D01*
X-20499Y-2193D01*
X-20497Y-2201D01*
X-20497Y-2209D01*
X-20490Y-2254D01*
X-20489Y-2258D01*
X-20482Y-2312D01*
X-20464Y-2356D01*
X-20452Y-2389D01*
X-20448Y-2394D01*
X-20446Y-2398D01*
X-20445Y-2404D01*
X-20438Y-2418D01*
X-20412Y-2481D01*
X-20301Y-2626D01*
X-20156Y-2737D01*
X-20090Y-2764D01*
X-20085Y-2767D01*
X-20082Y-2768D01*
X-20071Y-2773D01*
X-20068Y-2774D01*
X-20056Y-2779D01*
X-19987Y-2807D01*
X-19933Y-2814D01*
X-19928Y-2816D01*
X-19875Y-2823D01*
X-19870Y-2823D01*
X-19865Y-2824D01*
X-19844Y-2826D01*
X-19806Y-2831D01*
X-18694D01*
X-18678Y-2829D01*
X-18200D01*
X-18122Y-2813D01*
X-18056Y-2769D01*
X-18012Y-2703D01*
X-17996Y-2625D01*
Y-2147D01*
X-17994Y-2131D01*
Y-1219D01*
X-17996Y-1203D01*
Y-725D01*
X-17965Y-687D01*
X-13235D01*
X-13204Y-725D01*
Y-1203D01*
X-13206Y-1219D01*
Y-2131D01*
X-13204Y-2147D01*
Y-2625D01*
X-13188Y-2703D01*
X-13144Y-2769D01*
X-13078Y-2813D01*
X-13000Y-2829D01*
X-12522D01*
X-12506Y-2831D01*
X-11394D01*
X-11346Y-2825D01*
X-11287Y-2819D01*
X-11274Y-2815D01*
X-11213Y-2807D01*
X-11140Y-2777D01*
X-11135Y-2776D01*
X-11111Y-2765D01*
X-11044Y-2737D01*
X-10899Y-2626D01*
X-10847Y-2558D01*
X-10846Y-2557D01*
X-10846Y-2557D01*
X-10788Y-2481D01*
X-10764Y-2424D01*
X-10763Y-2423D01*
X-10756Y-2403D01*
X-10718Y-2312D01*
X-10711Y-2258D01*
X-10703Y-2216D01*
X-10703Y-2205D01*
X-10701Y-2195D01*
X-10698Y-2164D01*
X-10694Y-2131D01*
Y-1219D01*
X-10699Y-1184D01*
X-10701Y-1157D01*
X-10703Y-1149D01*
X-10703Y-1141D01*
X-10710Y-1096D01*
X-10711Y-1092D01*
X-10718Y-1038D01*
X-10724Y-1022D01*
X-10684Y-946D01*
X-10646Y-911D01*
X-10635Y-906D01*
X-10600Y-911D01*
X-10264Y-866D01*
X-9951Y-737D01*
X-9714Y-555D01*
X-555D01*
Y-6907D01*
D02*
G37*
G36*
X-29365Y-2459D02*
X-29233Y-2658D01*
X-29106Y-2742D01*
X-29106Y-2875D01*
X-29273D01*
X-29400Y-2875D01*
Y-2875D01*
X-29400D01*
Y-2875D01*
X-30600D01*
Y-3925D01*
X-30600D01*
X-30565Y-4010D01*
X-31180Y-4625D01*
X-31790D01*
Y-2275D01*
X-29402D01*
X-29365Y-2459D01*
D02*
G37*
%LPC*%
G36*
X-18670Y-54524D02*
X-18844Y-54547D01*
X-19100Y-54653D01*
X-19319Y-54821D01*
X-19487Y-55040D01*
X-19593Y-55296D01*
X-19616Y-55470D01*
X-18670D01*
Y-54524D01*
D02*
G37*
G36*
Y-55670D02*
X-19616D01*
X-19593Y-55844D01*
X-19487Y-56100D01*
X-19319Y-56319D01*
X-19100Y-56487D01*
X-18844Y-56593D01*
X-18670Y-56616D01*
Y-55670D01*
D02*
G37*
G36*
X-17524D02*
X-18470D01*
Y-56616D01*
X-18296Y-56593D01*
X-18040Y-56487D01*
X-17821Y-56319D01*
X-17653Y-56100D01*
X-17547Y-55844D01*
X-17524Y-55670D01*
D02*
G37*
G36*
X-36300Y-35566D02*
X-36485Y-35603D01*
X-36642Y-35708D01*
X-36747Y-35865D01*
X-36784Y-36050D01*
X-36747Y-36235D01*
X-36642Y-36392D01*
X-36485Y-36497D01*
X-36300Y-36534D01*
X-36115Y-36497D01*
X-35958Y-36392D01*
X-35853Y-36235D01*
X-35816Y-36050D01*
X-35853Y-35865D01*
X-35958Y-35708D01*
X-36115Y-35603D01*
X-36300Y-35566D01*
D02*
G37*
G36*
X-10725Y-36091D02*
X-10910Y-36128D01*
X-11068Y-36233D01*
X-11173Y-36390D01*
X-11209Y-36575D01*
X-11173Y-36760D01*
X-11068Y-36918D01*
X-10910Y-37023D01*
X-10725Y-37059D01*
X-10540Y-37023D01*
X-10383Y-36918D01*
X-10278Y-36760D01*
X-10241Y-36575D01*
X-10278Y-36390D01*
X-10383Y-36233D01*
X-10540Y-36128D01*
X-10725Y-36091D01*
D02*
G37*
G36*
X-6970Y-32751D02*
X-7244Y-32787D01*
X-7500Y-32893D01*
X-7719Y-33061D01*
X-7887Y-33280D01*
X-7993Y-33536D01*
X-8029Y-33810D01*
X-7993Y-34084D01*
X-7887Y-34340D01*
X-7719Y-34559D01*
X-7500Y-34727D01*
X-7244Y-34833D01*
X-6970Y-34869D01*
X-6696Y-34833D01*
X-6440Y-34727D01*
X-6221Y-34559D01*
X-6053Y-34340D01*
X-5947Y-34084D01*
X-5911Y-33810D01*
X-5947Y-33536D01*
X-6053Y-33280D01*
X-6221Y-33061D01*
X-6440Y-32893D01*
X-6696Y-32787D01*
X-6970Y-32751D01*
D02*
G37*
G36*
X-57225Y-26466D02*
X-57410Y-26503D01*
X-57567Y-26608D01*
X-57672Y-26765D01*
X-57709Y-26950D01*
X-57672Y-27135D01*
X-57567Y-27292D01*
X-57518Y-27325D01*
Y-36950D01*
X-57567Y-36983D01*
X-57672Y-37140D01*
X-57709Y-37325D01*
X-57672Y-37510D01*
X-57567Y-37667D01*
X-57410Y-37772D01*
X-57225Y-37809D01*
X-57040Y-37772D01*
X-56883Y-37667D01*
X-56778Y-37510D01*
X-56741Y-37325D01*
X-56778Y-37140D01*
X-56883Y-36983D01*
X-56932Y-36950D01*
Y-27325D01*
X-56883Y-27292D01*
X-56778Y-27135D01*
X-56741Y-26950D01*
X-56778Y-26765D01*
X-56883Y-26608D01*
X-57040Y-26503D01*
X-57225Y-26466D01*
D02*
G37*
G36*
X-4530Y-27684D02*
X-4704Y-27707D01*
X-4960Y-27813D01*
X-5179Y-27981D01*
X-5347Y-28200D01*
X-5453Y-28456D01*
X-5476Y-28630D01*
X-4530D01*
Y-27684D01*
D02*
G37*
G36*
Y-28830D02*
X-5476D01*
X-5453Y-29004D01*
X-5347Y-29260D01*
X-5179Y-29479D01*
X-4960Y-29647D01*
X-4704Y-29753D01*
X-4530Y-29776D01*
Y-28830D01*
D02*
G37*
G36*
X-4330Y-27684D02*
Y-28630D01*
X-3384D01*
X-3407Y-28456D01*
X-3513Y-28200D01*
X-3681Y-27981D01*
X-3900Y-27813D01*
X-4156Y-27707D01*
X-4330Y-27684D01*
D02*
G37*
G36*
X-52930D02*
Y-28630D01*
X-51984D01*
X-52007Y-28456D01*
X-52113Y-28200D01*
X-52281Y-27981D01*
X-52500Y-27813D01*
X-52756Y-27707D01*
X-52930Y-27684D01*
D02*
G37*
G36*
X-53130D02*
X-53304Y-27707D01*
X-53560Y-27813D01*
X-53779Y-27981D01*
X-53947Y-28200D01*
X-54053Y-28456D01*
X-54076Y-28630D01*
X-53130D01*
Y-27684D01*
D02*
G37*
G36*
X-3384Y-28830D02*
X-4330D01*
Y-29776D01*
X-4156Y-29753D01*
X-3900Y-29647D01*
X-3681Y-29479D01*
X-3513Y-29260D01*
X-3407Y-29004D01*
X-3384Y-28830D01*
D02*
G37*
G36*
X-6970Y-30211D02*
X-7244Y-30247D01*
X-7500Y-30353D01*
X-7719Y-30521D01*
X-7887Y-30740D01*
X-7993Y-30996D01*
X-8029Y-31270D01*
X-7993Y-31544D01*
X-7887Y-31800D01*
X-7719Y-32019D01*
X-7500Y-32187D01*
X-7244Y-32293D01*
X-6970Y-32329D01*
X-6696Y-32293D01*
X-6440Y-32187D01*
X-6221Y-32019D01*
X-6053Y-31800D01*
X-5947Y-31544D01*
X-5911Y-31270D01*
X-5947Y-30996D01*
X-6053Y-30740D01*
X-6221Y-30521D01*
X-6440Y-30353D01*
X-6696Y-30247D01*
X-6970Y-30211D01*
D02*
G37*
G36*
X-4430Y-32751D02*
X-4704Y-32787D01*
X-4960Y-32893D01*
X-5179Y-33061D01*
X-5347Y-33280D01*
X-5453Y-33536D01*
X-5489Y-33810D01*
X-5453Y-34084D01*
X-5347Y-34340D01*
X-5179Y-34559D01*
X-4960Y-34727D01*
X-4704Y-34833D01*
X-4430Y-34869D01*
X-4156Y-34833D01*
X-3900Y-34727D01*
X-3681Y-34559D01*
X-3513Y-34340D01*
X-3407Y-34084D01*
X-3371Y-33810D01*
X-3407Y-33536D01*
X-3513Y-33280D01*
X-3681Y-33061D01*
X-3900Y-32893D01*
X-4156Y-32787D01*
X-4430Y-32751D01*
D02*
G37*
G36*
Y-30211D02*
X-4704Y-30247D01*
X-4960Y-30353D01*
X-5179Y-30521D01*
X-5347Y-30740D01*
X-5453Y-30996D01*
X-5489Y-31270D01*
X-5453Y-31544D01*
X-5347Y-31800D01*
X-5179Y-32019D01*
X-4960Y-32187D01*
X-4704Y-32293D01*
X-4430Y-32329D01*
X-4156Y-32293D01*
X-3900Y-32187D01*
X-3681Y-32019D01*
X-3513Y-31800D01*
X-3407Y-31544D01*
X-3371Y-31270D01*
X-3407Y-30996D01*
X-3513Y-30740D01*
X-3681Y-30521D01*
X-3900Y-30353D01*
X-4156Y-30247D01*
X-4430Y-30211D01*
D02*
G37*
G36*
X-55570Y-27671D02*
X-55844Y-27707D01*
X-56100Y-27813D01*
X-56319Y-27981D01*
X-56487Y-28200D01*
X-56593Y-28456D01*
X-56629Y-28730D01*
X-56593Y-29004D01*
X-56487Y-29260D01*
X-56319Y-29479D01*
X-56100Y-29647D01*
X-55844Y-29753D01*
X-55570Y-29789D01*
X-55296Y-29753D01*
X-55040Y-29647D01*
X-54821Y-29479D01*
X-54653Y-29260D01*
X-54547Y-29004D01*
X-54511Y-28730D01*
X-54547Y-28456D01*
X-54653Y-28200D01*
X-54821Y-27981D01*
X-55040Y-27813D01*
X-55296Y-27707D01*
X-55570Y-27671D01*
D02*
G37*
G36*
X-47970Y-20051D02*
X-48244Y-20087D01*
X-48500Y-20193D01*
X-48719Y-20361D01*
X-48887Y-20580D01*
X-48993Y-20836D01*
X-49029Y-21110D01*
X-48993Y-21384D01*
X-48887Y-21640D01*
X-48719Y-21859D01*
X-48500Y-22027D01*
X-48244Y-22133D01*
X-47970Y-22169D01*
X-47696Y-22133D01*
X-47459Y-22035D01*
X-47022Y-22473D01*
X-47074Y-22600D01*
X-49020D01*
Y-24700D01*
X-48263D01*
Y-30149D01*
X-48467Y-30352D01*
X-48525Y-30341D01*
X-48710Y-30378D01*
X-48867Y-30483D01*
X-48972Y-30640D01*
X-49009Y-30825D01*
X-48972Y-31010D01*
X-48867Y-31167D01*
X-48710Y-31272D01*
X-48525Y-31309D01*
X-48340Y-31272D01*
X-48183Y-31167D01*
X-48078Y-31010D01*
X-48041Y-30825D01*
X-48052Y-30767D01*
X-47793Y-30508D01*
X-47775Y-30489D01*
X-47676Y-30570D01*
X-47686Y-30586D01*
X-47722Y-30640D01*
X-47759Y-30825D01*
X-47722Y-31010D01*
X-47617Y-31167D01*
X-47460Y-31272D01*
X-47275Y-31309D01*
X-47090Y-31272D01*
X-46933Y-31167D01*
X-46828Y-31010D01*
X-46791Y-30825D01*
X-46802Y-30767D01*
X-46483Y-30447D01*
X-46419Y-30352D01*
X-46397Y-30240D01*
Y-22390D01*
X-46419Y-22278D01*
X-46483Y-22183D01*
X-47045Y-21620D01*
X-46947Y-21384D01*
X-46911Y-21110D01*
X-46947Y-20836D01*
X-47053Y-20580D01*
X-47221Y-20361D01*
X-47440Y-20193D01*
X-47696Y-20087D01*
X-47970Y-20051D01*
D02*
G37*
G36*
X-55470Y-50544D02*
Y-51490D01*
X-54524D01*
X-54547Y-51316D01*
X-54653Y-51060D01*
X-54821Y-50841D01*
X-55040Y-50673D01*
X-55296Y-50567D01*
X-55470Y-50544D01*
D02*
G37*
G36*
X-55670D02*
X-55844Y-50567D01*
X-56100Y-50673D01*
X-56319Y-50841D01*
X-56487Y-51060D01*
X-56593Y-51316D01*
X-56616Y-51490D01*
X-55670D01*
Y-50544D01*
D02*
G37*
G36*
X-41330Y-51984D02*
Y-52930D01*
X-40384D01*
X-40407Y-52756D01*
X-40513Y-52500D01*
X-40681Y-52281D01*
X-40900Y-52113D01*
X-41156Y-52007D01*
X-41330Y-51984D01*
D02*
G37*
G36*
X-4430Y-47991D02*
X-4704Y-48027D01*
X-4960Y-48133D01*
X-5179Y-48301D01*
X-5347Y-48520D01*
X-5453Y-48776D01*
X-5489Y-49050D01*
X-5453Y-49324D01*
X-5347Y-49580D01*
X-5179Y-49799D01*
X-4960Y-49967D01*
X-4704Y-50073D01*
X-4430Y-50109D01*
X-4156Y-50073D01*
X-3900Y-49967D01*
X-3681Y-49799D01*
X-3513Y-49580D01*
X-3407Y-49324D01*
X-3371Y-49050D01*
X-3407Y-48776D01*
X-3513Y-48520D01*
X-3681Y-48301D01*
X-3900Y-48133D01*
X-4156Y-48027D01*
X-4430Y-47991D01*
D02*
G37*
G36*
X-6970D02*
X-7244Y-48027D01*
X-7500Y-48133D01*
X-7719Y-48301D01*
X-7887Y-48520D01*
X-7993Y-48776D01*
X-8029Y-49050D01*
X-7993Y-49324D01*
X-7887Y-49580D01*
X-7719Y-49799D01*
X-7500Y-49967D01*
X-7244Y-50073D01*
X-6970Y-50109D01*
X-6696Y-50073D01*
X-6440Y-49967D01*
X-6221Y-49799D01*
X-6053Y-49580D01*
X-5947Y-49324D01*
X-5911Y-49050D01*
X-5947Y-48776D01*
X-6053Y-48520D01*
X-6221Y-48301D01*
X-6440Y-48133D01*
X-6696Y-48027D01*
X-6970Y-47991D01*
D02*
G37*
G36*
X-6870Y-50544D02*
Y-51490D01*
X-5924D01*
X-5947Y-51316D01*
X-6053Y-51060D01*
X-6221Y-50841D01*
X-6440Y-50673D01*
X-6696Y-50567D01*
X-6870Y-50544D01*
D02*
G37*
G36*
X-55670Y-51690D02*
X-56616D01*
X-56593Y-51864D01*
X-56487Y-52120D01*
X-56319Y-52339D01*
X-56100Y-52507D01*
X-55844Y-52613D01*
X-55670Y-52636D01*
Y-51690D01*
D02*
G37*
G36*
X-51980Y-50540D02*
X-54080D01*
Y-52640D01*
X-51980D01*
Y-50540D01*
D02*
G37*
G36*
X-54524Y-51690D02*
X-55470D01*
Y-52636D01*
X-55296Y-52613D01*
X-55040Y-52507D01*
X-54821Y-52339D01*
X-54653Y-52120D01*
X-54547Y-51864D01*
X-54524Y-51690D01*
D02*
G37*
G36*
X-7070Y-50544D02*
X-7244Y-50567D01*
X-7500Y-50673D01*
X-7719Y-50841D01*
X-7887Y-51060D01*
X-7993Y-51316D01*
X-8016Y-51490D01*
X-7070D01*
Y-50544D01*
D02*
G37*
G36*
X-4430Y-50531D02*
X-4704Y-50567D01*
X-4960Y-50673D01*
X-5179Y-50841D01*
X-5347Y-51060D01*
X-5453Y-51316D01*
X-5489Y-51590D01*
X-5453Y-51864D01*
X-5347Y-52120D01*
X-5179Y-52339D01*
X-4960Y-52507D01*
X-4704Y-52613D01*
X-4430Y-52649D01*
X-4156Y-52613D01*
X-3900Y-52507D01*
X-3681Y-52339D01*
X-3513Y-52120D01*
X-3407Y-51864D01*
X-3371Y-51590D01*
X-3407Y-51316D01*
X-3513Y-51060D01*
X-3681Y-50841D01*
X-3900Y-50673D01*
X-4156Y-50567D01*
X-4430Y-50531D01*
D02*
G37*
G36*
X-38890Y-51971D02*
X-39164Y-52007D01*
X-39420Y-52113D01*
X-39639Y-52281D01*
X-39807Y-52500D01*
X-39913Y-52756D01*
X-39949Y-53030D01*
X-39913Y-53304D01*
X-39807Y-53560D01*
X-39639Y-53779D01*
X-39420Y-53947D01*
X-39164Y-54053D01*
X-38890Y-54089D01*
X-38616Y-54053D01*
X-38360Y-53947D01*
X-38141Y-53779D01*
X-37973Y-53560D01*
X-37867Y-53304D01*
X-37831Y-53030D01*
X-37867Y-52756D01*
X-37973Y-52500D01*
X-38141Y-52281D01*
X-38360Y-52113D01*
X-38616Y-52007D01*
X-38890Y-51971D01*
D02*
G37*
G36*
X-47950Y-45451D02*
X-48224Y-45487D01*
X-48480Y-45593D01*
X-48699Y-45761D01*
X-48867Y-45980D01*
X-48973Y-46236D01*
X-49009Y-46510D01*
X-48973Y-46784D01*
X-48867Y-47040D01*
X-48699Y-47259D01*
X-48480Y-47427D01*
X-48224Y-47533D01*
X-47950Y-47569D01*
X-47676Y-47533D01*
X-47420Y-47427D01*
X-47201Y-47259D01*
X-47033Y-47040D01*
X-46927Y-46784D01*
X-46891Y-46510D01*
X-46927Y-46236D01*
X-47033Y-45980D01*
X-47201Y-45761D01*
X-47420Y-45593D01*
X-47676Y-45487D01*
X-47950Y-45451D01*
D02*
G37*
G36*
X-18470Y-54524D02*
Y-55470D01*
X-17524D01*
X-17547Y-55296D01*
X-17653Y-55040D01*
X-17821Y-54821D01*
X-18040Y-54653D01*
X-18296Y-54547D01*
X-18470Y-54524D01*
D02*
G37*
G36*
X-10725Y-37241D02*
X-10910Y-37278D01*
X-11068Y-37383D01*
X-11172Y-37540D01*
X-11209Y-37725D01*
X-11172Y-37910D01*
X-11068Y-38067D01*
X-10910Y-38172D01*
X-10725Y-38209D01*
X-10540Y-38172D01*
X-10383Y-38067D01*
X-10278Y-37910D01*
X-10241Y-37725D01*
X-10278Y-37540D01*
X-10383Y-37383D01*
X-10540Y-37278D01*
X-10725Y-37241D01*
D02*
G37*
G36*
X-47650Y-37841D02*
X-47835Y-37878D01*
X-47992Y-37983D01*
X-48097Y-38140D01*
X-48134Y-38325D01*
X-48097Y-38510D01*
X-47992Y-38667D01*
X-47835Y-38772D01*
X-47650Y-38809D01*
X-47465Y-38772D01*
X-47308Y-38667D01*
X-47203Y-38510D01*
X-47166Y-38325D01*
X-47203Y-38140D01*
X-47308Y-37983D01*
X-47465Y-37878D01*
X-47650Y-37841D01*
D02*
G37*
G36*
X-4430Y-45451D02*
X-4704Y-45487D01*
X-4960Y-45593D01*
X-5179Y-45761D01*
X-5347Y-45980D01*
X-5453Y-46236D01*
X-5489Y-46510D01*
X-5453Y-46784D01*
X-5347Y-47040D01*
X-5179Y-47259D01*
X-4960Y-47427D01*
X-4704Y-47533D01*
X-4430Y-47569D01*
X-4156Y-47533D01*
X-3900Y-47427D01*
X-3681Y-47259D01*
X-3513Y-47040D01*
X-3407Y-46784D01*
X-3371Y-46510D01*
X-3407Y-46236D01*
X-3513Y-45980D01*
X-3681Y-45761D01*
X-3900Y-45593D01*
X-4156Y-45487D01*
X-4430Y-45451D01*
D02*
G37*
G36*
X-41530Y-51984D02*
X-41704Y-52007D01*
X-41960Y-52113D01*
X-42179Y-52281D01*
X-42347Y-52500D01*
X-42453Y-52756D01*
X-42476Y-52930D01*
X-41530D01*
Y-51984D01*
D02*
G37*
G36*
X-46900Y-48000D02*
X-49000D01*
Y-50100D01*
X-46900D01*
Y-48000D01*
D02*
G37*
G36*
X-55570Y-45451D02*
X-55844Y-45487D01*
X-56100Y-45593D01*
X-56319Y-45761D01*
X-56487Y-45980D01*
X-56593Y-46236D01*
X-56629Y-46510D01*
X-56593Y-46784D01*
X-56487Y-47040D01*
X-56319Y-47259D01*
X-56100Y-47427D01*
X-55844Y-47533D01*
X-55570Y-47569D01*
X-55296Y-47533D01*
X-55040Y-47427D01*
X-54821Y-47259D01*
X-54653Y-47040D01*
X-54547Y-46784D01*
X-54511Y-46510D01*
X-54547Y-46236D01*
X-54653Y-45980D01*
X-54821Y-45761D01*
X-55040Y-45593D01*
X-55296Y-45487D01*
X-55570Y-45451D01*
D02*
G37*
G36*
X-41530Y-53130D02*
X-42476D01*
X-42453Y-53304D01*
X-42347Y-53560D01*
X-42179Y-53779D01*
X-41960Y-53947D01*
X-41704Y-54053D01*
X-41530Y-54076D01*
Y-53130D01*
D02*
G37*
G36*
X-40384D02*
X-41330D01*
Y-54076D01*
X-41156Y-54053D01*
X-40900Y-53947D01*
X-40681Y-53779D01*
X-40513Y-53560D01*
X-40407Y-53304D01*
X-40384Y-53130D01*
D02*
G37*
G36*
X-57080Y-22600D02*
X-59180D01*
Y-24700D01*
X-57080D01*
Y-22600D01*
D02*
G37*
G36*
X-13275Y-6788D02*
X-13509Y-6835D01*
X-13708Y-6967D01*
X-13840Y-7166D01*
X-13887Y-7400D01*
X-13840Y-7634D01*
X-13708Y-7833D01*
X-13509Y-7965D01*
X-13275Y-8012D01*
X-13041Y-7965D01*
X-12842Y-7833D01*
X-12710Y-7634D01*
X-12663Y-7400D01*
X-12710Y-7166D01*
X-12842Y-6967D01*
X-13041Y-6835D01*
X-13275Y-6788D01*
D02*
G37*
G36*
X-25200Y-8075D02*
X-25775D01*
Y-9050D01*
X-25200D01*
Y-8075D01*
D02*
G37*
G36*
X-25975D02*
X-26550D01*
Y-9050D01*
X-25975D01*
Y-8075D01*
D02*
G37*
G36*
X-3975Y-7250D02*
X-4250D01*
Y-7775D01*
X-3975D01*
Y-7250D01*
D02*
G37*
G36*
X-25200Y-6900D02*
X-25775D01*
Y-7875D01*
X-25200D01*
Y-6900D01*
D02*
G37*
G36*
X-25975D02*
X-26550D01*
Y-7875D01*
X-25975D01*
Y-6900D01*
D02*
G37*
G36*
X-38730Y-9891D02*
X-39004Y-9927D01*
X-39260Y-10033D01*
X-39479Y-10201D01*
X-39647Y-10420D01*
X-39753Y-10676D01*
X-39789Y-10950D01*
X-39753Y-11224D01*
X-39647Y-11480D01*
X-39479Y-11699D01*
X-39260Y-11867D01*
X-39004Y-11973D01*
X-38730Y-12009D01*
X-38456Y-11973D01*
X-38200Y-11867D01*
X-37981Y-11699D01*
X-37813Y-11480D01*
X-37707Y-11224D01*
X-37671Y-10950D01*
X-37707Y-10676D01*
X-37813Y-10420D01*
X-37981Y-10201D01*
X-38200Y-10033D01*
X-38456Y-9927D01*
X-38730Y-9891D01*
D02*
G37*
G36*
X-41270D02*
X-41544Y-9927D01*
X-41800Y-10033D01*
X-42019Y-10201D01*
X-42187Y-10420D01*
X-42293Y-10676D01*
X-42329Y-10950D01*
X-42293Y-11224D01*
X-42187Y-11480D01*
X-42019Y-11699D01*
X-41800Y-11867D01*
X-41544Y-11973D01*
X-41270Y-12009D01*
X-40996Y-11973D01*
X-40740Y-11867D01*
X-40521Y-11699D01*
X-40353Y-11480D01*
X-40247Y-11224D01*
X-40211Y-10950D01*
X-40247Y-10676D01*
X-40353Y-10420D01*
X-40521Y-10201D01*
X-40740Y-10033D01*
X-40996Y-9927D01*
X-41270Y-9891D01*
D02*
G37*
G36*
X-47870Y-12444D02*
Y-13390D01*
X-46924D01*
X-46947Y-13216D01*
X-47053Y-12960D01*
X-47221Y-12741D01*
X-47440Y-12573D01*
X-47696Y-12467D01*
X-47870Y-12444D01*
D02*
G37*
G36*
X-2200Y-9825D02*
X-2475D01*
Y-10350D01*
X-2200D01*
Y-9825D01*
D02*
G37*
G36*
X-1500Y-10575D02*
Y-11000D01*
X-1000D01*
Y-10575D01*
X-1500D01*
D02*
G37*
G36*
X-1000Y-11200D02*
X-1500D01*
Y-11625D01*
X-1000D01*
Y-11200D01*
D02*
G37*
G36*
X-26175Y-2875D02*
Y-3300D01*
X-25675D01*
Y-2875D01*
X-26175D01*
D02*
G37*
G36*
X-25675Y-3500D02*
X-26175D01*
Y-3925D01*
X-25675D01*
Y-3500D01*
D02*
G37*
G36*
X-13375Y-3969D02*
X-13564Y-3994D01*
X-13741Y-4067D01*
X-13892Y-4183D01*
X-14008Y-4334D01*
X-14081Y-4511D01*
X-14106Y-4700D01*
Y-4900D01*
X-14081Y-5089D01*
X-14008Y-5266D01*
X-13892Y-5417D01*
X-13741Y-5533D01*
X-13564Y-5606D01*
X-13375Y-5631D01*
X-13186Y-5606D01*
X-13009Y-5533D01*
X-12858Y-5417D01*
X-12742Y-5266D01*
X-12669Y-5089D01*
X-12644Y-4900D01*
Y-4700D01*
X-12669Y-4511D01*
X-12742Y-4334D01*
X-12858Y-4183D01*
X-13009Y-4067D01*
X-13186Y-3994D01*
X-13375Y-3969D01*
D02*
G37*
G36*
X-7600Y-1034D02*
X-7785Y-1071D01*
X-7942Y-1176D01*
X-8047Y-1333D01*
X-8084Y-1518D01*
X-8047Y-1703D01*
X-7942Y-1860D01*
X-7785Y-1965D01*
X-7600Y-2002D01*
X-7415Y-1965D01*
X-7258Y-1860D01*
X-7153Y-1703D01*
X-7116Y-1518D01*
X-7153Y-1333D01*
X-7258Y-1176D01*
X-7415Y-1071D01*
X-7600Y-1034D01*
D02*
G37*
G36*
X-40771Y-1600D02*
X-41500D01*
Y-2329D01*
X-41382Y-2314D01*
X-41179Y-2229D01*
X-41004Y-2096D01*
X-40871Y-1921D01*
X-40786Y-1718D01*
X-40771Y-1600D01*
D02*
G37*
G36*
X-41700D02*
X-42429D01*
X-42414Y-1718D01*
X-42329Y-1921D01*
X-42196Y-2096D01*
X-42021Y-2229D01*
X-41818Y-2314D01*
X-41700Y-2329D01*
Y-1600D01*
D02*
G37*
G36*
X-11125Y-5591D02*
X-11310Y-5628D01*
X-11467Y-5733D01*
X-11572Y-5890D01*
X-11609Y-6075D01*
X-11572Y-6260D01*
X-11482Y-6396D01*
Y-6404D01*
X-11572Y-6540D01*
X-11609Y-6725D01*
X-11572Y-6910D01*
X-11467Y-7067D01*
X-11310Y-7172D01*
X-11125Y-7209D01*
X-10940Y-7172D01*
X-10783Y-7067D01*
X-10678Y-6910D01*
X-10641Y-6725D01*
X-10678Y-6540D01*
X-10768Y-6404D01*
Y-6396D01*
X-10678Y-6260D01*
X-10641Y-6075D01*
X-10678Y-5890D01*
X-10783Y-5733D01*
X-10940Y-5628D01*
X-11125Y-5591D01*
D02*
G37*
G36*
X-23844Y-7174D02*
X-24325D01*
Y-7655D01*
X-23844D01*
Y-7174D01*
D02*
G37*
G36*
X-24525D02*
X-25006D01*
Y-7655D01*
X-24525D01*
Y-7174D01*
D02*
G37*
G36*
X-17825Y-3969D02*
X-18014Y-3994D01*
X-18191Y-4067D01*
X-18342Y-4183D01*
X-18458Y-4334D01*
X-18531Y-4511D01*
X-18556Y-4700D01*
Y-4900D01*
X-18531Y-5089D01*
X-18458Y-5266D01*
X-18342Y-5417D01*
X-18191Y-5533D01*
X-18014Y-5606D01*
X-17825Y-5631D01*
X-17636Y-5606D01*
X-17459Y-5533D01*
X-17308Y-5417D01*
X-17192Y-5266D01*
X-17119Y-5089D01*
X-17094Y-4900D01*
Y-4700D01*
X-17119Y-4511D01*
X-17192Y-4334D01*
X-17308Y-4183D01*
X-17459Y-4067D01*
X-17636Y-3994D01*
X-17825Y-3969D01*
D02*
G37*
G36*
X-23844Y-6492D02*
X-24325D01*
Y-6973D01*
X-23844D01*
Y-6492D01*
D02*
G37*
G36*
X-24525D02*
X-25006D01*
Y-6973D01*
X-24525D01*
Y-6492D01*
D02*
G37*
G36*
X-48070Y-12444D02*
X-48244Y-12467D01*
X-48500Y-12573D01*
X-48719Y-12741D01*
X-48887Y-12960D01*
X-48993Y-13216D01*
X-49016Y-13390D01*
X-48070D01*
Y-12444D01*
D02*
G37*
G36*
X-58130Y-14971D02*
X-58404Y-15007D01*
X-58660Y-15113D01*
X-58879Y-15281D01*
X-59047Y-15500D01*
X-59153Y-15756D01*
X-59189Y-16030D01*
X-59153Y-16304D01*
X-59047Y-16560D01*
X-58879Y-16779D01*
X-58660Y-16947D01*
X-58404Y-17053D01*
X-58130Y-17089D01*
X-57856Y-17053D01*
X-57600Y-16947D01*
X-57381Y-16779D01*
X-57213Y-16560D01*
X-57107Y-16304D01*
X-57071Y-16030D01*
X-57107Y-15756D01*
X-57213Y-15500D01*
X-57381Y-15281D01*
X-57600Y-15113D01*
X-57856Y-15007D01*
X-58130Y-14971D01*
D02*
G37*
G36*
X-32250Y-18450D02*
X-32675D01*
Y-18800D01*
X-32250D01*
Y-18450D01*
D02*
G37*
G36*
X-35700Y-18325D02*
X-36125D01*
Y-18825D01*
X-35700D01*
Y-18325D01*
D02*
G37*
G36*
X-22400Y-16100D02*
X-22825D01*
Y-16450D01*
X-22400D01*
Y-16100D01*
D02*
G37*
G36*
X-26075Y-16100D02*
X-26500D01*
Y-16450D01*
X-26075D01*
Y-16100D01*
D02*
G37*
G36*
X-47970Y-14971D02*
X-48244Y-15007D01*
X-48500Y-15113D01*
X-48719Y-15281D01*
X-48887Y-15500D01*
X-48993Y-15756D01*
X-49029Y-16030D01*
X-48993Y-16304D01*
X-48887Y-16560D01*
X-48719Y-16779D01*
X-48500Y-16947D01*
X-48244Y-17053D01*
X-47970Y-17089D01*
X-47696Y-17053D01*
X-47440Y-16947D01*
X-47221Y-16779D01*
X-47053Y-16560D01*
X-46947Y-16304D01*
X-46911Y-16030D01*
X-46947Y-15756D01*
X-47053Y-15500D01*
X-47221Y-15281D01*
X-47440Y-15113D01*
X-47696Y-15007D01*
X-47970Y-14971D01*
D02*
G37*
G36*
X-58130Y-20051D02*
X-58404Y-20087D01*
X-58660Y-20193D01*
X-58879Y-20361D01*
X-59047Y-20580D01*
X-59153Y-20836D01*
X-59189Y-21110D01*
X-59153Y-21384D01*
X-59047Y-21640D01*
X-58879Y-21859D01*
X-58660Y-22027D01*
X-58404Y-22133D01*
X-58130Y-22169D01*
X-57856Y-22133D01*
X-57600Y-22027D01*
X-57381Y-21859D01*
X-57213Y-21640D01*
X-57107Y-21384D01*
X-57071Y-21110D01*
X-57107Y-20836D01*
X-57213Y-20580D01*
X-57381Y-20361D01*
X-57600Y-20193D01*
X-57856Y-20087D01*
X-58130Y-20051D01*
D02*
G37*
G36*
X-30975Y-22475D02*
X-31325D01*
Y-22900D01*
X-30975D01*
Y-22475D01*
D02*
G37*
G36*
X-8340Y-23110D02*
X-8958D01*
X-8946Y-23199D01*
X-8873Y-23376D01*
X-8757Y-23527D01*
X-8606Y-23643D01*
X-8429Y-23716D01*
X-8340Y-23728D01*
Y-23110D01*
D02*
G37*
G36*
X-47970Y-17511D02*
X-48244Y-17547D01*
X-48500Y-17653D01*
X-48719Y-17821D01*
X-48887Y-18040D01*
X-48993Y-18296D01*
X-49029Y-18570D01*
X-48993Y-18844D01*
X-48887Y-19100D01*
X-48719Y-19319D01*
X-48500Y-19487D01*
X-48244Y-19593D01*
X-47970Y-19629D01*
X-47696Y-19593D01*
X-47440Y-19487D01*
X-47221Y-19319D01*
X-47053Y-19100D01*
X-46947Y-18844D01*
X-46911Y-18570D01*
X-46947Y-18296D01*
X-47053Y-18040D01*
X-47221Y-17821D01*
X-47440Y-17653D01*
X-47696Y-17547D01*
X-47970Y-17511D01*
D02*
G37*
G36*
X-58130Y-17511D02*
X-58404Y-17547D01*
X-58660Y-17653D01*
X-58879Y-17821D01*
X-59047Y-18040D01*
X-59153Y-18296D01*
X-59189Y-18570D01*
X-59153Y-18844D01*
X-59047Y-19100D01*
X-58879Y-19319D01*
X-58660Y-19487D01*
X-58404Y-19593D01*
X-58130Y-19629D01*
X-57856Y-19593D01*
X-57600Y-19487D01*
X-57381Y-19319D01*
X-57213Y-19100D01*
X-57107Y-18844D01*
X-57071Y-18570D01*
X-57107Y-18296D01*
X-57213Y-18040D01*
X-57381Y-17821D01*
X-57600Y-17653D01*
X-57856Y-17547D01*
X-58130Y-17511D01*
D02*
G37*
G36*
X-18800Y-21525D02*
X-19225D01*
Y-21875D01*
X-18800D01*
Y-21525D01*
D02*
G37*
G36*
X-48070Y-13590D02*
X-49016D01*
X-48993Y-13764D01*
X-48887Y-14020D01*
X-48719Y-14239D01*
X-48500Y-14407D01*
X-48244Y-14513D01*
X-48070Y-14536D01*
Y-13590D01*
D02*
G37*
G36*
X-46924D02*
X-47870D01*
Y-14536D01*
X-47696Y-14513D01*
X-47440Y-14407D01*
X-47221Y-14239D01*
X-47053Y-14020D01*
X-46947Y-13764D01*
X-46924Y-13590D01*
D02*
G37*
G36*
X-3384Y-13590D02*
X-4330D01*
Y-14536D01*
X-4156Y-14513D01*
X-3900Y-14407D01*
X-3681Y-14239D01*
X-3513Y-14020D01*
X-3407Y-13764D01*
X-3384Y-13590D01*
D02*
G37*
G36*
X-58030Y-12444D02*
Y-13390D01*
X-57084D01*
X-57107Y-13216D01*
X-57213Y-12960D01*
X-57381Y-12741D01*
X-57600Y-12573D01*
X-57856Y-12467D01*
X-58030Y-12444D01*
D02*
G37*
G36*
X-58230D02*
X-58404Y-12467D01*
X-58660Y-12573D01*
X-58879Y-12741D01*
X-59047Y-12960D01*
X-59153Y-13216D01*
X-59176Y-13390D01*
X-58230D01*
Y-12444D01*
D02*
G37*
G36*
X-37575Y-12588D02*
X-37809Y-12635D01*
X-38008Y-12767D01*
X-38140Y-12966D01*
X-38187Y-13200D01*
X-38140Y-13434D01*
X-38008Y-13633D01*
X-37809Y-13765D01*
X-37575Y-13812D01*
X-37341Y-13765D01*
X-37142Y-13633D01*
X-37010Y-13434D01*
X-36963Y-13200D01*
X-37010Y-12966D01*
X-37142Y-12767D01*
X-37341Y-12635D01*
X-37575Y-12588D01*
D02*
G37*
G36*
X-10600Y-14200D02*
X-11025D01*
Y-14700D01*
X-10600D01*
Y-14200D01*
D02*
G37*
G36*
X-13475D02*
X-13900D01*
Y-14700D01*
X-13475D01*
Y-14200D01*
D02*
G37*
G36*
X-14100D02*
X-14525D01*
Y-14700D01*
X-14100D01*
Y-14200D01*
D02*
G37*
G36*
X-57084Y-13590D02*
X-58030D01*
Y-14536D01*
X-57856Y-14513D01*
X-57600Y-14407D01*
X-57381Y-14239D01*
X-57213Y-14020D01*
X-57107Y-13764D01*
X-57084Y-13590D01*
D02*
G37*
G36*
X-58230D02*
X-59176D01*
X-59153Y-13764D01*
X-59047Y-14020D01*
X-58879Y-14239D01*
X-58660Y-14407D01*
X-58404Y-14513D01*
X-58230Y-14536D01*
Y-13590D01*
D02*
G37*
G36*
X-9975Y-14200D02*
X-10400D01*
Y-14700D01*
X-9975D01*
Y-14200D01*
D02*
G37*
%LPD*%
D10*
X-36563Y-41513D02*
X-35552D01*
X-36588Y-41487D02*
X-36563Y-41513D01*
X-36713Y-41487D02*
X-36588D01*
X-37268Y-40932D02*
X-36713Y-41487D01*
X-36800Y-42000D02*
X-35200D01*
X-34873Y-41673D01*
X-38915Y-42562D02*
X-35243D01*
X-39049Y-42888D02*
X-34938D01*
X-50088Y-43213D02*
X-32912D01*
X-50070Y-43550D02*
X-32550D01*
X-48425Y-43875D02*
X-32138D01*
X-48180Y-44200D02*
X-31800D01*
X-35243Y-42562D02*
X-34868Y-42188D01*
X-34938Y-42888D02*
X-34750Y-42700D01*
X-32912Y-43213D02*
X-32300Y-42600D01*
X-32550Y-43550D02*
X-26212Y-37213D01*
X-32138Y-43875D02*
X-25100Y-36838D01*
X-31800Y-44200D02*
X-24400Y-36800D01*
X-52325Y-47775D02*
X-48425Y-43875D01*
X-53030Y-49050D02*
X-48180Y-44200D01*
X-37379Y-4321D02*
Y-3971D01*
X-37850Y-3500D02*
X-37379Y-3971D01*
X-38600Y-3500D02*
X-37850D01*
X-37900Y-4500D02*
X-33325Y-9075D01*
X-40600Y-4500D02*
X-37900D01*
X-32525Y-13450D02*
Y-8475D01*
X-36968Y-4032D02*
X-32525Y-8475D01*
X-36968Y-4032D02*
Y-3132D01*
X-32950Y-13660D02*
Y-8750D01*
X-37379Y-4321D02*
X-32950Y-8750D01*
X-33325Y-13900D02*
Y-9075D01*
X-33750Y-14050D02*
Y-9350D01*
X-37600Y-5500D02*
X-33750Y-9350D01*
X-38600Y-5500D02*
X-37600D01*
X-26190Y-43690D02*
X-18837Y-36338D01*
X-26190Y-45410D02*
Y-43690D01*
X-18837Y-36338D02*
Y-32837D01*
X-19825Y-54285D02*
Y-39325D01*
X-17500Y-37000D01*
X-24300Y-45900D02*
Y-44300D01*
X-25075Y-46675D02*
X-24300Y-45900D01*
X-27900Y-43300D02*
X-27225D01*
X-19812Y-35888D01*
X-27590Y-44125D02*
X-19487Y-36022D01*
X-27450Y-44444D02*
X-19163Y-36157D01*
X-1600Y-11950D02*
Y-11300D01*
X-1500Y-11200D01*
X-1600Y-11100D02*
X-1500Y-11200D01*
X-34185Y-51000D02*
X-31500D01*
X-39942Y-45242D02*
X-34185Y-51000D01*
X-33810Y-53030D02*
Y-52575D01*
X-40342Y-46042D02*
X-33810Y-52575D01*
X-35100Y-54280D02*
Y-52685D01*
X-41067Y-46717D02*
X-35100Y-52685D01*
X-28730Y-47950D02*
X-27900Y-48780D01*
Y-49500D02*
Y-48780D01*
Y-49500D02*
X-24900Y-52500D01*
X-31500Y-51000D02*
X-30000Y-52500D01*
X-29925Y-50000D02*
X-27450Y-52475D01*
X-31760Y-50000D02*
X-29925D01*
X-33810Y-47950D02*
X-31760Y-50000D01*
X-1450Y-21775D02*
Y-19010D01*
X-4430Y-16030D02*
X-1450Y-19010D01*
X-8240Y-21740D02*
Y-19500D01*
X-11415Y-16325D02*
X-8240Y-19500D01*
X-14575Y-16325D02*
X-11415D01*
X-17153Y-15587D02*
X-15312D01*
X-14575Y-16325D01*
X-12100Y-40700D02*
Y-37600D01*
X-15850Y-33850D02*
X-12100Y-37600D01*
X-16575Y-45175D02*
X-12100Y-40700D01*
X-17300Y-30625D02*
X-17000Y-30325D01*
X-17300Y-34413D02*
Y-30625D01*
Y-34413D02*
X-13100Y-38613D01*
X-18400Y-35825D02*
Y-31200D01*
X-19275Y-30325D02*
X-18400Y-31200D01*
X-21400Y-32000D02*
X-19487Y-33912D01*
X-21925Y-32000D02*
X-21400D01*
X-22725Y-31200D02*
X-21925Y-32000D01*
X-19812Y-35888D02*
Y-34163D01*
X-21785Y-32600D02*
X-21375D01*
X-19812Y-34163D01*
X-19487Y-36022D02*
Y-33912D01*
X-19163Y-36157D02*
Y-33662D01*
X-21575Y-31250D02*
X-19163Y-33662D01*
X-21575Y-31250D02*
Y-30375D01*
X-20400Y-31275D02*
X-18837Y-32837D01*
X-20400Y-31275D02*
Y-30350D01*
X-30526Y-34417D02*
Y-31276D01*
X-34812Y-38703D02*
X-30526Y-34417D01*
X-50050Y-32125D02*
X-39000D01*
X-29985Y-44125D02*
X-27590D01*
X-11738Y-23562D02*
X-9375Y-25925D01*
X-11363Y-23237D02*
X-9250Y-25350D01*
X-41800Y-31375D02*
Y-29500D01*
X-42650Y-31375D02*
Y-27900D01*
X-43602Y-31377D02*
Y-28251D01*
X-34300Y-32700D02*
X-31925Y-30325D01*
X-34300Y-34450D02*
Y-32700D01*
X-35375Y-32910D02*
Y-31175D01*
X-37268Y-34803D02*
X-35375Y-32910D01*
X-37268Y-40932D02*
Y-34803D01*
X-23750Y-36850D02*
Y-34853D01*
X-25525Y-38625D02*
X-23750Y-36850D01*
X-25525Y-40000D02*
Y-38625D01*
X-29625Y-34325D02*
Y-30703D01*
X-34300Y-39000D02*
X-29625Y-34325D01*
X-30800Y-41100D02*
X-26700Y-37000D01*
X-35140Y-41100D02*
X-30800D01*
X-35552Y-41513D02*
X-35140Y-41100D01*
X-34700Y-40300D02*
X-31500D01*
X-35300Y-39700D02*
X-34700Y-40300D01*
X-35300Y-39700D02*
Y-38400D01*
X-31500Y-40300D02*
X-27700Y-36500D01*
Y-34025D02*
X-26450Y-32775D01*
X-27700Y-36500D02*
Y-34025D01*
X-27200Y-34266D02*
X-26047Y-33112D01*
X-27200Y-36800D02*
Y-34266D01*
X-31100Y-40700D02*
X-27200Y-36800D01*
X-26700Y-34225D02*
X-25912Y-33438D01*
X-26700Y-37000D02*
Y-34225D01*
X-34975Y-40700D02*
X-31100D01*
X-26212Y-37213D02*
Y-35562D01*
X-24400Y-36800D02*
Y-34375D01*
X-18400Y-35825D02*
X-17950Y-36275D01*
X-22585Y-31800D02*
X-21785Y-32600D01*
X-22975Y-32450D02*
X-20587Y-34838D01*
X-27250Y-32450D02*
X-22975D01*
X-22719Y-32125D02*
X-20519Y-34325D01*
X-20375D01*
X-51400Y-36900D02*
X-49500D01*
X-52125Y-37625D02*
X-51400Y-36900D01*
X-54305Y-37625D02*
X-52125D01*
X-32300Y-42600D02*
Y-41775D01*
X-34873Y-41673D02*
X-33127D01*
X-35763Y-39912D02*
X-34975Y-40700D01*
X-35763Y-39912D02*
Y-37312D01*
X-24413Y-33438D02*
X-23875Y-33975D01*
X-25912Y-33438D02*
X-24413D01*
X-26212Y-35562D02*
X-25700Y-35050D01*
X-35763Y-37312D02*
X-34537Y-36088D01*
X-35300Y-38400D02*
X-32950Y-36050D01*
X-24900Y-54320D02*
Y-52500D01*
X-27450Y-49230D02*
X-23650Y-53030D01*
X-27450Y-49230D02*
Y-47150D01*
X-31788Y-57287D02*
X-6688D01*
X-32000Y-57500D02*
X-31788Y-57287D01*
X-52700Y-57500D02*
X-32000D01*
X-31700Y-57800D02*
X-31300D01*
X-31938Y-58037D02*
X-31700Y-57800D01*
X-52862Y-58037D02*
X-31938D01*
X-6970Y-38890D02*
X-6510D01*
X-16300Y-51800D02*
X-8470Y-43970D01*
X-9400Y-42700D02*
Y-41320D01*
X-14900Y-48200D02*
X-9400Y-42700D01*
X-8470Y-43970D02*
X-6970D01*
X-8650Y-43088D02*
Y-41075D01*
X-14800Y-49237D02*
X-8650Y-43088D01*
X-18388Y-19112D02*
Y-18013D01*
X-17800Y-17425D01*
X-18570Y-53030D02*
X-5700D01*
X-26975Y-46675D02*
X-25075D01*
X-27450Y-47150D02*
X-26975Y-46675D01*
X-30000Y-54300D02*
Y-52500D01*
X-56160Y-40160D02*
X-54300D01*
X-57600Y-41600D02*
X-56160Y-40160D01*
X-57600Y-52600D02*
Y-41600D01*
X-58100Y-41415D02*
X-55575Y-38890D01*
X-58100Y-52800D02*
Y-41415D01*
Y-52800D02*
X-52862Y-58037D01*
X-57600Y-52600D02*
X-52700Y-57500D01*
X-31300Y-57800D02*
X-6550D01*
X-6525Y-57825D01*
X-2100Y-53400D01*
X-23225Y-56900D02*
X-22400Y-56075D01*
X-52575Y-56900D02*
X-23225D01*
X-57050Y-52425D02*
X-52575Y-56900D01*
X-6688Y-57287D02*
X-2600Y-53200D01*
Y-44000D01*
X-2100Y-53400D02*
Y-43760D01*
X-4430Y-41430D02*
X-2100Y-43760D01*
X-3875Y-42725D02*
X-2600Y-44000D01*
X-19000Y-14200D02*
X-17288Y-15913D01*
X-23075Y-14200D02*
X-19000D01*
X-14675Y-24425D02*
X-14150D01*
X-14887Y-24212D02*
X-14675Y-24425D01*
X-17437Y-24212D02*
X-14887D01*
X-22812Y-12613D02*
X-20388D01*
X-23725Y-13525D02*
X-22812Y-12613D01*
X-29750Y-13525D02*
X-23725D01*
X-22538Y-12938D02*
X-21188D01*
X-23450Y-13850D02*
X-22538Y-12938D01*
X-29885Y-13850D02*
X-23450D01*
X-20925Y-13200D02*
X-19600D01*
X-21188Y-12938D02*
X-20925Y-13200D01*
X-20721Y-13863D02*
X-18877D01*
X-21135Y-13450D02*
X-20721Y-13863D01*
X-50600Y-42700D02*
X-50088Y-43213D01*
X-54300Y-42700D02*
X-50600D01*
X-54295Y-35075D02*
X-46402D01*
X-53030Y-36350D02*
X-45587D01*
X-39049Y-42888D01*
X-46402Y-35075D02*
X-38915Y-42562D01*
X-7525Y-37625D02*
X-5705D01*
X-15675Y-45775D02*
X-7525Y-37625D01*
X-15675Y-50075D02*
Y-45775D01*
X-16475Y-45855D02*
X-6970Y-36350D01*
X-16475Y-49750D02*
Y-45855D01*
X-17300Y-45900D02*
X-16575Y-45175D01*
X-17300Y-52000D02*
Y-45900D01*
Y-52000D02*
X-16850Y-52450D01*
X-18150Y-30325D02*
X-17725Y-30750D01*
Y-35500D02*
Y-30750D01*
X-17950Y-36275D02*
X-17050D01*
X-17950Y-25450D02*
X-17225Y-24725D01*
X-18438Y-24425D02*
X-17900Y-23888D01*
X-23400Y-24425D02*
X-18438D01*
X-23725Y-24100D02*
X-23400Y-24425D01*
X-20388Y-12613D02*
X-20350Y-12650D01*
X-22050Y-13450D02*
X-21135D01*
X-26975Y-18825D02*
X-26650Y-19150D01*
X-26325Y-20125D02*
X-26000Y-19800D01*
X-25675Y-20125D02*
X-25350Y-19800D01*
Y-20450D02*
X-25025Y-20125D01*
X-25350Y-19150D02*
X-25025Y-19475D01*
X-25350Y-21100D02*
X-25025Y-20775D01*
X-24700Y-20450D01*
X-25025Y-21425D02*
X-24700Y-21100D01*
X-24375Y-20775D02*
X-24050Y-20450D01*
Y-19150D02*
X-23725Y-18825D01*
X-23725Y-20125D02*
X-23400Y-20450D01*
X-24050Y-17850D02*
Y-16175D01*
X-23075Y-18825D02*
X-23075D01*
X-22750Y-17850D02*
Y-16175D01*
X-25025Y-18175D02*
X-24700Y-18500D01*
X-22100Y-16950D02*
X-20675Y-15525D01*
X-22100Y-17850D02*
Y-16950D01*
X-25675Y-18175D02*
X-25350Y-18500D01*
X-24987Y-17563D02*
Y-16038D01*
Y-17563D02*
X-24700Y-17850D01*
X-22925Y-15100D02*
X-22100D01*
X-24500Y-14375D02*
X-24175D01*
X-17288Y-15913D02*
X-15962D01*
X-18877Y-13863D02*
X-17153Y-15587D01*
X-26650Y-22400D02*
X-26325Y-22725D01*
X-28447Y-22722D02*
X-28119D01*
X-31300Y-25575D02*
X-28447Y-22722D01*
X-29175Y-21750D02*
X-29171Y-21747D01*
X-29350Y-20775D02*
X-28115D01*
X-30000Y-21425D02*
X-29350Y-20775D01*
X-28716Y-22072D02*
X-28150D01*
X-31519Y-24875D02*
X-28716Y-22072D01*
X-29150Y-15400D02*
X-27625Y-16925D01*
X-29350Y-16075D02*
X-27950Y-17475D01*
X-32950Y-13660D02*
X-28435Y-18175D01*
X-28725Y-18500D02*
X-27950D01*
X-33325Y-13900D02*
X-28725Y-18500D01*
X-32525Y-13450D02*
X-30575Y-15400D01*
X-15962Y-15913D02*
X-15475Y-16400D01*
X-18050Y-24825D02*
X-17437Y-24212D01*
X-30150Y-13125D02*
X-29750Y-13525D01*
X-52175Y-30000D02*
X-50050Y-32125D01*
X-54300Y-30000D02*
X-52175D01*
X-51525Y-32775D02*
X-37600D01*
X-53030Y-31270D02*
X-51525Y-32775D01*
X-51737Y-33287D02*
X-37188D01*
X-52475Y-32550D02*
X-51737Y-33287D01*
X-54310Y-32550D02*
X-52475D01*
X-47970Y-30270D02*
Y-23650D01*
X-48525Y-30825D02*
X-47970Y-30270D01*
X-46690Y-30240D02*
Y-22390D01*
X-47275Y-30825D02*
X-46690Y-30240D01*
X-25025Y-15100D02*
Y-14650D01*
X-25350Y-14325D02*
X-25025Y-14650D01*
X-27350Y-14325D02*
X-25350D01*
X-27800Y-14775D02*
X-27350Y-14325D01*
X-30480Y-28830D02*
Y-26670D01*
X-31675Y-26775D02*
X-27950Y-23050D01*
X-31675Y-28875D02*
Y-26775D01*
X-31925Y-29125D02*
X-31675Y-28875D01*
X-31925Y-25575D02*
X-31300D01*
X-31385Y-25200D02*
X-28581Y-22396D01*
X-32820Y-25200D02*
X-31385D01*
X-33765Y-24875D02*
X-31519D01*
X-28581Y-22396D02*
X-27954D01*
X-33075Y-26725D02*
X-31925Y-25575D01*
X-33075Y-29125D02*
Y-26725D01*
X-34225Y-26605D02*
X-32820Y-25200D01*
X-34225Y-29125D02*
Y-26605D01*
X-35560Y-26670D02*
X-33765Y-24875D01*
X-35560Y-28940D02*
Y-26670D01*
Y-28940D02*
X-35375Y-29125D01*
X-36625Y-30675D02*
Y-26000D01*
X-29625Y-27085D02*
X-29210Y-26670D01*
X-29625Y-29125D02*
Y-27085D01*
X-35987Y-32787D02*
Y-31312D01*
X-36625Y-30675D02*
X-35987Y-31312D01*
X-33075Y-30900D02*
Y-30375D01*
X-34625Y-32450D02*
X-33075Y-30900D01*
X-34625Y-34015D02*
Y-32450D01*
X-34225Y-31400D02*
Y-30325D01*
X-34950Y-32125D02*
X-34225Y-31400D01*
X-34950Y-33575D02*
Y-32125D01*
X-18765Y-15525D02*
X-17780Y-16510D01*
X-20675Y-15525D02*
X-18765D01*
X-25400Y-28800D02*
X-25025Y-29175D01*
X-25400Y-28750D02*
Y-27940D01*
X-26670Y-28680D02*
X-26175Y-29175D01*
X-26670Y-28630D02*
Y-27940D01*
Y-27130D01*
X-26925Y-26875D02*
X-26670Y-27130D01*
X-28700Y-28950D02*
X-28475Y-29175D01*
X-28700Y-28900D02*
Y-27430D01*
X-27940Y-26670D01*
X-30775Y-29175D02*
X-30480Y-28880D01*
X-27940Y-28560D02*
X-27325Y-29175D01*
X-27940Y-28510D02*
Y-27940D01*
X-24130Y-26670D02*
Y-26060D01*
X-23520Y-25450D01*
X-24130Y-26670D02*
X-24087Y-26713D01*
Y-27438D02*
Y-26713D01*
X-24450Y-27800D02*
X-24087Y-27438D01*
X-24450Y-29750D02*
Y-27800D01*
X-23520Y-25450D02*
X-17950D01*
X-20320Y-28970D02*
Y-27940D01*
X-20450Y-29150D02*
X-20320Y-29020D01*
X-21575Y-27925D02*
X-20320Y-26670D01*
X-21575Y-29125D02*
Y-27925D01*
X-22725Y-27805D02*
X-21590Y-26670D01*
X-22725Y-29125D02*
Y-27805D01*
X-23875Y-27685D02*
X-22860Y-26670D01*
X-23875Y-29125D02*
Y-27685D01*
X-19050Y-26670D02*
Y-26525D01*
X-30900Y-12835D02*
X-29885Y-13850D01*
X-37600Y-33950D02*
X-37150D01*
X-35987Y-32787D01*
X-32950Y-36050D02*
X-32450Y-35550D01*
Y-31575D01*
X-33225Y-35675D02*
Y-32450D01*
X-33638Y-36088D02*
X-33225Y-35675D01*
X-34537Y-36088D02*
X-33638D01*
X-47970Y-21110D02*
X-46690Y-22390D01*
X-30900Y-12835D02*
Y-12000D01*
X-13300Y-24975D02*
X-13300D01*
X-20587Y-34838D02*
X-20325Y-35100D01*
X-20587Y-34838D02*
Y-34838D01*
X-21176Y-34977D02*
Y-34924D01*
X-24825Y-33950D02*
X-24400Y-34375D01*
X-23751Y-34852D02*
X-23750Y-34853D01*
X-23325Y-32775D02*
X-21176Y-34924D01*
X-23275Y-31800D02*
X-22585D01*
X-26375Y-32125D02*
X-22719D01*
X-22175Y-34775D02*
Y-34738D01*
X-23801Y-33112D02*
X-22175Y-34738D01*
X-26450Y-32775D02*
X-23325D01*
X-23875Y-31200D02*
X-23275Y-31800D01*
X-30150Y-13125D02*
Y-10650D01*
X-27450Y-46175D02*
Y-44444D01*
X-30575Y-31325D02*
Y-30575D01*
X-30775Y-30375D02*
X-30575Y-30575D01*
Y-31325D02*
X-30526Y-31276D01*
X-29803Y-31275D02*
X-29625D01*
X-57225Y-37325D02*
Y-26950D01*
X-9400Y-41320D02*
X-6970Y-38890D01*
X-5700Y-40160D02*
X-4430Y-38890D01*
X-7735Y-40160D02*
X-5700D01*
X-8650Y-41075D02*
X-7735Y-40160D01*
X-5685Y-45225D02*
X-4430Y-43970D01*
X-8625Y-45225D02*
X-5685D01*
X-13750Y-50350D02*
X-8625Y-45225D01*
X-35100Y-54280D02*
X-33810Y-55570D01*
X-30000Y-54300D02*
X-28730Y-55570D01*
X-21110D02*
X-19825Y-54285D01*
X-23875Y-31250D02*
Y-30375D01*
X-20425D02*
X-20400Y-30400D01*
X-26047Y-33112D02*
X-23801D01*
X-35275Y-33900D02*
X-34950Y-33575D01*
X-34838Y-34227D02*
X-34625Y-34015D01*
X-55570Y-33810D02*
X-54310Y-32550D01*
X-37765Y-32875D02*
X-37600D01*
X-37188Y-33287D02*
X-36875Y-32975D01*
Y-32300D01*
X-55570Y-31270D02*
X-54300Y-30000D01*
X-28500Y-31200D02*
X-27250Y-32450D01*
X-27300Y-31200D02*
X-26375Y-32125D01*
X-22725Y-31250D02*
Y-30375D01*
Y-31250D02*
X-22725Y-31250D01*
X-5675Y-42725D02*
X-3875D01*
X-6970Y-41430D02*
X-5675Y-42725D01*
X-55575Y-38890D02*
X-55570D01*
X-54300Y-40160D02*
X-53030Y-38890D01*
X-22400Y-56075D02*
Y-54280D01*
X-23650Y-53030D02*
X-22400Y-54280D01*
X-33911Y-42188D02*
X-33399Y-42700D01*
X-53030Y-46510D02*
X-50070Y-43550D01*
X-25700Y-33950D02*
X-24825D01*
X-55570Y-49050D02*
X-54295Y-47775D01*
X-52325D01*
X-33399Y-42700D02*
X-33350D01*
X-33127Y-41673D02*
Y-41577D01*
X-55570Y-41430D02*
X-54300Y-42700D01*
X-25100Y-36838D02*
Y-34500D01*
X-55570Y-36350D02*
X-54295Y-35075D01*
X-5705Y-37625D02*
X-4430Y-36350D01*
X-34812Y-39212D02*
X-34275Y-39750D01*
Y-39725D01*
X-27450Y-54310D02*
X-26190Y-55570D01*
X-31270Y-47950D02*
X-26190Y-53030D01*
Y-53030D02*
Y-53030D01*
X-24900Y-54320D02*
X-23650Y-55570D01*
X-26190Y-47950D02*
X-21110Y-53030D01*
Y-53030D02*
Y-53030D01*
X-27450Y-54310D02*
Y-52475D01*
X-31270Y-45410D02*
X-29985Y-44125D01*
X-27975Y-46700D02*
X-27450Y-46175D01*
X-32825Y-46700D02*
X-27975D01*
X-33810Y-45715D02*
X-32825Y-46700D01*
X-33810Y-45715D02*
Y-45410D01*
X-25025Y-30375D02*
X-25025Y-30375D01*
X-26175Y-30375D02*
X-25025D01*
X-25025Y-30375D02*
X-24450Y-29800D01*
X-25025Y-31250D02*
Y-30375D01*
X-2475Y-24000D02*
X-1450Y-22975D01*
X-3440Y-24000D02*
X-2475D01*
X-22100Y-23700D02*
X-21962Y-23562D01*
X-24175Y-24825D02*
X-18050D01*
X-25300Y-23700D02*
X-24175Y-24825D01*
X-25350Y-23700D02*
X-25300D01*
X-4430Y-23010D02*
X-3440Y-24000D01*
X-20450Y-29150D02*
X-20425Y-29175D01*
X-25175Y-25100D02*
X-24900Y-24825D01*
X-26125Y-25500D02*
X-25675Y-25050D01*
X-27175Y-25050D02*
X-26925Y-25300D01*
Y-26875D02*
Y-25300D01*
X-23400Y-20450D02*
Y-20450D01*
X-22725Y-30375D02*
X-22725Y-30375D01*
X-34225Y-14200D02*
Y-9600D01*
X-37325Y-6500D02*
X-34225Y-9600D01*
X-40600Y-6500D02*
X-37325D01*
X-41600Y-5500D02*
X-40600Y-6500D01*
X-34600Y-14400D02*
Y-9875D01*
X-35162Y-9312D02*
X-34600Y-9875D01*
X-39787Y-9312D02*
X-35162D01*
X-37100Y-7500D02*
X-36062Y-8538D01*
X-38600Y-7500D02*
X-37100D01*
X-41600D02*
X-39787Y-9312D01*
X-41600Y-3500D02*
X-40600Y-4500D01*
X-41600Y-1500D02*
X-40500D01*
X-38600D02*
X-36968Y-3132D01*
X-23875Y-15100D02*
Y-14675D01*
X-24175Y-14375D02*
X-23875Y-14675D01*
X-24050Y-16175D02*
X-23875Y-16000D01*
X-31525Y-21425D02*
X-30875D01*
X-25675Y-25050D02*
Y-24050D01*
X-32975Y-18900D02*
X-32150D01*
X-1200Y-8600D02*
Y-7250D01*
X-2575Y-9725D02*
X-2150D01*
X-1900Y-9975D01*
Y-10800D02*
Y-9975D01*
Y-10800D02*
X-1600Y-11100D01*
X-2575Y-7875D02*
Y-6550D01*
X-6350Y-10050D02*
X-5300Y-11100D01*
X-2800Y-12250D02*
Y-11100D01*
X-2575Y-8425D02*
Y-7875D01*
Y-8425D02*
X-1200Y-9800D01*
X-5200Y-8600D02*
X-3375D01*
X-3225Y-8450D01*
Y-7875D01*
X-6350Y-8750D02*
X-5350D01*
X-5200Y-8600D01*
X-25975Y-16900D02*
Y-16000D01*
X-25025D02*
X-24987Y-16038D01*
X-31375Y-20000D02*
Y-19075D01*
X-31200Y-18900D01*
X-4100Y-12025D02*
Y-11100D01*
X-4100Y-11100D02*
X-4100Y-11100D01*
X-3875Y-10875D02*
Y-9725D01*
X-4100Y-11100D02*
X-3875Y-10875D01*
X-3225Y-10675D02*
Y-9725D01*
Y-10675D02*
X-2800Y-11100D01*
X-17800Y-17425D02*
X-16925D01*
X-17800Y-18375D02*
X-16925D01*
X-17800Y-19100D02*
Y-18375D01*
X-16700Y-19525D02*
X-14125D01*
X-16900Y-19325D02*
X-16700Y-19525D01*
X-18025Y-20450D02*
X-16900Y-19325D01*
Y-20275D02*
X-16125D01*
Y-20975D02*
Y-20275D01*
X-16375Y-21225D02*
X-16125Y-20975D01*
X-16900Y-21225D02*
X-16375D01*
X-16900Y-22175D02*
X-15425D01*
X-22100Y-21100D02*
X-21800Y-20800D01*
X-18275D02*
X-16900Y-22175D01*
X-26125Y-26400D02*
Y-25500D01*
X-25175Y-26400D02*
Y-25500D01*
Y-25100D01*
X-30875Y-21425D02*
X-30000D01*
X-30875Y-22375D02*
X-30000D01*
X-30875Y-23175D02*
Y-22375D01*
X-31125Y-20250D02*
X-29850D01*
X-31375Y-20000D02*
X-31125Y-20250D01*
X-33900Y-20000D02*
X-32775D01*
X-32975Y-1525D02*
X-30075D01*
X-27950Y-17850D02*
Y-17475D01*
X-25025Y-16000D02*
Y-15100D01*
X-25975Y-16000D02*
Y-15100D01*
X-26800D02*
X-25975D01*
X-23875Y-16000D02*
Y-15100D01*
X-22925Y-16000D02*
Y-15100D01*
Y-16000D02*
X-22750Y-16175D01*
X-24050Y-18500D02*
Y-17850D01*
X-20400Y-21425D02*
X-20275Y-21300D01*
X-24700Y-23050D02*
X-24700D01*
X-23400Y-19150D02*
X-23075Y-18825D01*
X-22750Y-21100D02*
Y-20450D01*
X-14125Y-19525D02*
X-13100Y-18500D01*
X-27425Y-4225D02*
X-26900D01*
X-26000Y-1500D02*
X-24925D01*
X-25975Y-16900D02*
X-25350Y-17525D01*
Y-17850D02*
Y-17525D01*
X-25025Y-22725D02*
X-24700Y-23050D01*
X-28590Y-18825D02*
X-28590Y-18825D01*
X-28200D01*
X-34600Y-14400D02*
X-29525Y-19475D01*
X-28225D01*
X-34225Y-14200D02*
X-29275Y-19150D01*
X-27950D01*
X-33750Y-14050D02*
X-28975Y-18825D01*
X-28590D01*
X-30575Y-15400D02*
X-29150D01*
X-28400Y-20250D02*
X-28275Y-20125D01*
X-28115D01*
X-29850Y-20250D02*
X-28400D01*
X-27954Y-22396D02*
X-27950Y-22400D01*
X-27954Y-21747D02*
X-27950Y-21750D01*
X-29171Y-21747D02*
X-27954D01*
X-26975Y-24075D02*
Y-23865D01*
X-27175Y-24275D02*
X-26975Y-24075D01*
X-27175Y-25050D02*
Y-24275D01*
X-6970Y-33810D02*
X-6835D01*
X-28475Y-31225D02*
Y-30375D01*
X-28500Y-31250D02*
X-28475Y-31225D01*
X-27325Y-31225D02*
Y-30375D01*
Y-31225D02*
X-27300Y-31250D01*
X-34812Y-39212D02*
Y-38703D01*
X-34838Y-34562D02*
Y-34227D01*
X-35275Y-35000D02*
X-34838Y-34562D01*
X-35375Y-31225D02*
Y-30375D01*
X-35375Y-31225D02*
X-35375Y-31225D01*
X-48975Y-37550D02*
Y-37425D01*
X-49500Y-36900D02*
X-48975Y-37425D01*
X-55570Y-38890D02*
X-54305Y-37625D01*
X-53030Y-38890D02*
X-52490D01*
X-51150Y-37550D01*
X-49800D01*
X-57050Y-52425D02*
Y-45450D01*
X-55570Y-43970D01*
X-34750Y-42700D02*
X-34123D01*
X-34868Y-42188D02*
X-33911D01*
X-26525Y-25350D02*
Y-24825D01*
Y-25350D02*
X-26375Y-25500D01*
X-26125D01*
X-21825Y-21425D02*
X-21100D01*
X-20400D01*
X-21962Y-23562D02*
X-11738D01*
X-19325Y-21425D02*
X-18525D01*
X-21525Y-20125D02*
X-19400D01*
X-18388Y-19112D01*
X-22100Y-20450D02*
X-18025D01*
X-21800Y-20800D02*
X-18275D01*
X-23400Y-22400D02*
X-23075Y-22075D01*
X-24050Y-21100D02*
X-23725Y-20775D01*
X-23400Y-21100D02*
X-23075Y-21425D01*
X-18837Y-23237D02*
X-11363D01*
X-19350Y-22725D02*
X-18837Y-23237D01*
X-21775Y-22725D02*
X-19350D01*
X-17780Y-26670D02*
Y-26130D01*
X-17400Y-25750D01*
X-14900D01*
X-9250Y-30450D02*
Y-26750D01*
X-9500Y-26500D02*
X-9250Y-26750D01*
X-17900Y-23888D02*
X-12113D01*
X-9500Y-26500D01*
X-13150Y-26825D02*
X-12550Y-27425D01*
X-14900Y-25750D02*
X-14225Y-26425D01*
X-12275D01*
X-13875Y-34500D02*
X-12600D01*
X-9800Y-31700D01*
X-12550Y-28550D02*
X-11800Y-27800D01*
X-12550Y-30850D02*
X-10712Y-29012D01*
X-12550Y-29700D02*
X-11225Y-28375D01*
Y-27575D01*
X-11800Y-27800D02*
Y-26900D01*
X-12275Y-26425D02*
X-11800Y-26900D01*
X-10712Y-29012D02*
Y-27362D01*
X-9800Y-31700D02*
Y-27261D01*
X-11413Y-25112D02*
X-10137Y-26388D01*
X-13300Y-24975D02*
X-13163Y-25112D01*
X-11413D01*
X-14125Y-25550D02*
X-13575Y-26100D01*
X-10250Y-30325D02*
Y-27365D01*
X-11600Y-31675D02*
X-10250Y-30325D01*
X-14550Y-31675D02*
X-11600D01*
X-15850Y-30375D02*
X-14550Y-31675D01*
X-15850Y-33850D02*
Y-30325D01*
X-10137Y-26923D02*
X-9800Y-27261D01*
X-10137Y-26923D02*
Y-26388D01*
X-10550Y-27065D02*
X-10250Y-27365D01*
X-5800Y-25350D02*
X-4900D01*
X-8000D02*
X-7000D01*
X-9250D02*
X-8000D01*
X-8300Y-26500D02*
X-8300Y-26500D01*
X-8300Y-27175D02*
Y-26500D01*
X-9375Y-25925D02*
X-7650D01*
X-5800Y-26500D02*
X-4900D01*
X-7650Y-25925D02*
X-7075Y-26500D01*
X-7000D01*
X-6970Y-26530D01*
Y-28730D02*
Y-26530D01*
X-13900Y-28400D02*
X-13750Y-28550D01*
X-10550Y-27065D02*
Y-26650D01*
X-13575Y-26100D02*
X-11100D01*
X-10550Y-26650D01*
X-11275Y-26800D02*
X-10712Y-27362D01*
X-11275Y-26800D02*
Y-26675D01*
X-14475Y-26825D02*
X-13150D01*
X-19050Y-26670D02*
X-18370Y-27350D01*
X-15000D02*
X-14475Y-26825D01*
X-17000Y-29175D02*
X-16362Y-28538D01*
X-18370Y-27350D02*
X-15000D01*
X-17675Y-28425D02*
X-17462Y-28212D01*
X-15075Y-29950D02*
X-14825D01*
X-15850Y-29175D02*
X-15075Y-29950D01*
X-16362Y-28538D02*
X-15427D01*
X-17462Y-28212D02*
X-15237D01*
X-14650Y-28800D01*
X-14613Y-29988D02*
X-13750Y-30850D01*
X-14650Y-28800D02*
X-14000D01*
X-13750Y-28550D01*
X-19275Y-29175D02*
X-17800Y-27700D01*
X-14978D01*
X-14790Y-27888D01*
X-14200Y-29250D02*
X-13750Y-29700D01*
X-14975Y-29250D02*
X-14200D01*
X-15427Y-28538D02*
X-15288Y-28677D01*
Y-28938D02*
X-14975Y-29250D01*
X-15288Y-28938D02*
Y-28677D01*
X-18025Y-28425D02*
X-17675D01*
X-18150Y-28550D02*
X-18025Y-28425D01*
X-18150Y-29175D02*
Y-28550D01*
X-14650Y-28075D02*
X-13750Y-27425D01*
D11*
X-20100Y-17400D02*
X-19100D01*
X-20100Y-17400D02*
X-20100Y-17400D01*
X-19600Y-18200D02*
X-19600D01*
X-21030Y-17820D02*
X-20610Y-17400D01*
X-21032Y-17820D02*
X-21030D01*
X-21712Y-18500D02*
X-21032Y-17820D01*
X-20875Y-18200D02*
X-20300D01*
X-22100Y-18500D02*
X-21712D01*
X-20610Y-17400D02*
X-20100D01*
X-19700Y-18200D02*
X-19600D01*
X-20300Y-17200D02*
X-20100Y-17400D01*
X-20300Y-18200D02*
X-19600D01*
X-19600Y-18200D02*
X-19600Y-18200D01*
X-22100Y-19150D02*
X-21825D01*
X-20875Y-18200D01*
D15*
X-25175Y-26400D02*
D03*
X-26125D02*
D03*
X-25175Y-25500D02*
D03*
X-26125D02*
D03*
X-19325Y-21425D02*
D03*
X-20275D02*
D03*
X-32150Y-18900D02*
D03*
X-31200D02*
D03*
X-22925Y-16000D02*
D03*
X-23875D02*
D03*
X-22925Y-15100D02*
D03*
X-23875D02*
D03*
X-25975D02*
D03*
X-25025D02*
D03*
X-25975Y-16000D02*
D03*
X-25025D02*
D03*
D27*
X-31375Y-20000D02*
D03*
X-32775D02*
D03*
D28*
X-16900Y-18400D02*
D03*
Y-17400D02*
D03*
X-20300Y-18200D02*
D03*
Y-19200D02*
D03*
Y-17200D02*
D03*
Y-16200D02*
D03*
D29*
X-20425Y-29175D02*
D03*
Y-30375D02*
D03*
X-21575Y-29175D02*
D03*
Y-30375D02*
D03*
X-22725Y-29175D02*
D03*
Y-30375D02*
D03*
X-23875Y-29175D02*
D03*
Y-30375D02*
D03*
X-25025Y-29175D02*
D03*
Y-30375D02*
D03*
X-36225Y-18225D02*
D03*
Y-17025D02*
D03*
X-37375Y-17025D02*
D03*
Y-18225D02*
D03*
X-14000Y-14100D02*
D03*
Y-12900D02*
D03*
X-31925Y-29175D02*
D03*
Y-30375D02*
D03*
X-29625Y-30375D02*
D03*
Y-29175D02*
D03*
X-10500Y-12900D02*
D03*
Y-14100D02*
D03*
X-1200Y-8600D02*
D03*
Y-9800D02*
D03*
X-5200Y-9800D02*
D03*
Y-8600D02*
D03*
X-28475Y-30375D02*
D03*
Y-29175D02*
D03*
X-27325Y-30375D02*
D03*
Y-29175D02*
D03*
X-30775Y-30375D02*
D03*
Y-29175D02*
D03*
X-34225Y-30375D02*
D03*
Y-29175D02*
D03*
X-33075Y-30375D02*
D03*
Y-29175D02*
D03*
X-35375Y-30375D02*
D03*
Y-29175D02*
D03*
X-1450Y-21775D02*
D03*
Y-22975D02*
D03*
X-26175Y-30375D02*
D03*
Y-29175D02*
D03*
X-19275Y-29175D02*
D03*
Y-30375D02*
D03*
X-18150Y-29175D02*
D03*
Y-30375D02*
D03*
X-15850Y-29175D02*
D03*
Y-30375D02*
D03*
X-17000Y-29175D02*
D03*
Y-30375D02*
D03*
D30*
X-16900Y-20275D02*
D03*
Y-19325D02*
D03*
X-30875Y-22375D02*
D03*
Y-21425D02*
D03*
X-30000Y-22375D02*
D03*
Y-21425D02*
D03*
X-17800Y-18375D02*
D03*
Y-17425D02*
D03*
X-16900Y-21225D02*
D03*
Y-22175D02*
D03*
D32*
X-11650Y-11275D02*
D03*
X-12850D02*
D03*
X-26275Y-3400D02*
D03*
X-27475D02*
D03*
X-31200Y-5150D02*
D03*
X-32400D02*
D03*
X-28900Y-10025D02*
D03*
X-27700D02*
D03*
X-5800Y-26500D02*
D03*
X-7000D02*
D03*
X-9500D02*
D03*
X-8300D02*
D03*
X-7000Y-25350D02*
D03*
X-5800D02*
D03*
X-2800Y-11100D02*
D03*
X-1600D02*
D03*
X-5300D02*
D03*
X-4100D02*
D03*
X-28800Y-3400D02*
D03*
X-30000D02*
D03*
X-13750Y-27425D02*
D03*
X-12550D02*
D03*
X-13750Y-28550D02*
D03*
X-12550D02*
D03*
X-13750Y-29700D02*
D03*
X-12550D02*
D03*
X-13750Y-30850D02*
D03*
X-12550D02*
D03*
D37*
X-14000Y-15000D02*
Y-14100D01*
Y-15800D02*
X-13275D01*
X-14500D02*
X-14000D01*
X-15750Y-15050D02*
Y-14375D01*
X-20895Y-10855D02*
X-19625Y-12125D01*
X-17475Y-13500D02*
X-17300D01*
X-16240D01*
X-15750Y-12300D02*
X-14880Y-11430D01*
X-13970D01*
X-27700Y-10025D02*
X-27560D01*
X-26730Y-10855D01*
X-20895D01*
X-12100Y-12125D02*
X-10900D01*
X-12250Y-12275D02*
X-12100Y-12125D01*
X-12250Y-12526D02*
Y-12275D01*
Y-14775D02*
Y-14375D01*
X-13275Y-15800D02*
X-12250Y-14775D01*
X-10320Y-16030D02*
X-6978D01*
X-11600Y-14750D02*
X-10320Y-16030D01*
X-11600Y-14750D02*
Y-14375D01*
X-28825Y-7975D02*
Y-6150D01*
X-30200D02*
X-28825D01*
X-31200Y-5150D02*
X-30200Y-6150D01*
X-26925Y-7975D02*
X-25875D01*
Y-7575D01*
X-25374Y-7074D01*
X-24425D01*
X-11650Y-11500D02*
X-10375D01*
X-12900Y-12625D02*
Y-11550D01*
X-10500Y-14100D02*
X-9425D01*
X-15100Y-15200D02*
X-14500Y-15800D01*
X-15100Y-15200D02*
Y-14375D01*
X-12900D02*
Y-13500D01*
X-15750Y-12625D02*
Y-12300D01*
X-15100Y-13340D02*
Y-12625D01*
X-15260Y-13500D02*
X-15100Y-13340D01*
X-16400Y-13660D02*
X-16240Y-13500D01*
X-16400Y-14375D02*
Y-13660D01*
X-11600Y-13340D02*
Y-12625D01*
X-11760Y-13500D02*
X-11600Y-13340D01*
X-16400Y-10975D02*
X-15925Y-10500D01*
X-16400Y-12625D02*
Y-10975D01*
X-16240Y-13500D02*
X-16240Y-13500D01*
X-11760Y-13500D02*
X-11760Y-13500D01*
X-37375Y-19325D02*
Y-18225D01*
X-36225Y-19325D02*
Y-18225D01*
X-37375Y-17025D02*
X-33425D01*
X-25275Y-5650D02*
X-24450D01*
X-26025D02*
X-25275D01*
Y-4925D01*
X-25550Y-4650D02*
X-25275Y-4925D01*
X-26025Y-4650D02*
X-25550D01*
X-27675Y-5150D02*
X-27425Y-5400D01*
X-28825Y-5150D02*
X-27675D01*
X-28825Y-4650D02*
Y-3425D01*
X-28800Y-3400D01*
X-27475D01*
X-5200Y-9800D02*
X-4550D01*
X-4550Y-9800D01*
X-28800Y-2225D02*
X-28800Y-3400D01*
X-28800Y-2350D02*
Y-2225D01*
X-26900Y-6725D02*
Y-4225D01*
D38*
X-24450Y-5650D02*
X-20775D01*
X-13970Y-12820D02*
Y-11430D01*
X-14025Y-12875D02*
X-13970Y-12820D01*
Y-12545D02*
Y-11430D01*
X-14025Y-12600D02*
X-13970Y-12545D01*
X-26788Y-13137D02*
X-25775Y-12125D01*
X-29087Y-13137D02*
X-26788D01*
X-29525Y-12700D02*
X-29087Y-13137D01*
X-29525Y-12700D02*
Y-10650D01*
X-28900Y-10025D01*
X-27775Y-11725D02*
Y-10100D01*
X-27700Y-10025D01*
X-31200Y-5150D02*
X-30000Y-3950D01*
Y-3400D01*
X-28825Y-9950D02*
Y-7975D01*
X-12900Y-13500D02*
X-12740D01*
X-13400D02*
X-12900D01*
X-14000Y-12900D02*
X-13400Y-13500D01*
X-10900Y-12125D02*
Y-12100D01*
Y-12500D02*
Y-12125D01*
Y-12500D02*
X-10500Y-12900D01*
X-12900Y-11550D02*
X-12850Y-11500D01*
X-7560Y-12900D02*
X-6970Y-13490D01*
X-10500Y-12900D02*
X-7560D01*
X-6978Y-16030D02*
X-5700Y-14752D01*
X-6978Y-16030D02*
X-6970D01*
X-16240Y-13500D02*
X-15260D01*
X-12740Y-13500D02*
X-11760D01*
X-20775Y-5650D02*
X-15925Y-10500D01*
X-7600D01*
X-11125Y-6725D02*
Y-6075D01*
X-7600Y-10500D02*
X-5700Y-12400D01*
X-28800Y-12475D02*
Y-11725D01*
Y-10975D01*
X-5700Y-14752D02*
Y-12400D01*
X-32400Y-5150D02*
Y-4350D01*
X-32400Y-4350D02*
X-32400Y-4350D01*
Y-5950D02*
Y-5150D01*
X-32400Y-5950D02*
X-32400Y-5950D01*
X-33300Y-5150D02*
X-32400D01*
X-28800Y-11725D02*
X-27775D01*
D39*
X-27525Y-21425D02*
X-26325D01*
X-27628Y-21528D02*
X-27525Y-21425D01*
X-23525Y-17725D02*
Y-17250D01*
Y-16625D02*
X-23075Y-17075D01*
X-22402Y-18175D02*
X-21800D01*
X-22751Y-18524D02*
X-22402Y-18175D01*
X-23075Y-18175D02*
Y-17075D01*
X-23725Y-24100D02*
Y-22725D01*
X-24050Y-22400D02*
X-23725Y-22725D01*
X-21400Y-17775D02*
Y-17300D01*
X-21800Y-18175D02*
X-21400Y-17775D01*
X-22751Y-19174D02*
X-22448Y-19476D01*
X-28119Y-22722D02*
X-27790D01*
X-28150Y-22072D02*
X-27817D01*
X-27628Y-21883D02*
Y-21528D01*
X-27817Y-22072D02*
X-27628Y-21883D01*
X-27625Y-17980D02*
Y-16925D01*
X-27820Y-18175D02*
X-27495Y-18500D01*
X-28435Y-18175D02*
X-27820D01*
X-27625Y-18825D02*
X-27300Y-19150D01*
X-28200Y-18825D02*
X-27625D01*
X-28225Y-19475D02*
X-26975D01*
X-27625Y-17980D02*
X-27426Y-18178D01*
X-26972D01*
X-23725Y-24100D02*
X-23725Y-24100D01*
X-22750Y-22400D02*
X-22425Y-22725D01*
X-21450Y-19200D02*
X-20300D01*
X-22425Y-21425D02*
X-21825D01*
X-22750Y-21100D02*
X-22425Y-21425D01*
X-23400Y-18500D02*
X-23075Y-18175D01*
X-25675Y-24050D02*
Y-23375D01*
X-22750Y-21750D02*
X-22425Y-22075D01*
X-26325Y-21425D02*
X-26000Y-21100D01*
X-21400Y-17300D02*
X-20300Y-16200D01*
X-26975Y-19475D02*
X-26650Y-19800D01*
X-23400D02*
X-23075Y-20125D01*
X-25675Y-23375D02*
X-25350Y-23050D01*
X-3875Y-7875D02*
Y-7100D01*
X-3875Y-7100D01*
X-26975Y-23375D02*
X-26650Y-23050D01*
X-16925Y-18400D02*
X-16900D01*
X-23525Y-17725D02*
X-23400Y-17850D01*
X-27495Y-18500D02*
X-27300D01*
X-26972Y-18178D02*
X-26650Y-18500D01*
X-26976Y-18174D02*
X-26972Y-18178D01*
X-27625Y-20125D02*
X-27300Y-20450D01*
X-28115Y-20125D02*
X-27625D01*
Y-20775D02*
X-27300Y-21100D01*
X-28115Y-20775D02*
X-27625D01*
X-27300Y-21945D02*
Y-21750D01*
X-27790Y-22722D02*
X-27622Y-22553D01*
Y-22267D01*
X-27300Y-21945D01*
X-26975Y-23865D02*
Y-23375D01*
X-22448Y-19476D02*
X-21726D01*
X-21450Y-19200D01*
X-23075Y-20125D02*
X-21525D01*
X-22425Y-22725D02*
X-21775D01*
X-22425Y-22075D02*
X-21625D01*
X-21525Y-22175D01*
X-21100D01*
D41*
X-8240Y-21740D02*
D03*
Y-23010D02*
D03*
X-3160D02*
D03*
X-4430D02*
D03*
X-5700D02*
D03*
X-6970D02*
D03*
Y-21740D02*
D03*
X-5700D02*
D03*
X-4430D02*
D03*
X-3160D02*
D03*
D42*
X-25925Y-12125D02*
D03*
X-58130Y-23650D02*
D03*
X-6970Y-28730D02*
D03*
X-47970Y-23650D02*
D03*
X-53030Y-51590D02*
D03*
X-47950Y-49050D02*
D03*
X-6970Y-13490D02*
D03*
D43*
X-33810Y-47950D02*
D03*
X-31270D02*
D03*
X-28730D02*
D03*
X-26190D02*
D03*
X-33810Y-45410D02*
D03*
X-31270D02*
D03*
X-28730D02*
D03*
X-58130Y-13490D02*
D03*
Y-16030D02*
D03*
Y-18570D02*
D03*
Y-21110D02*
D03*
X-4430Y-51590D02*
D03*
X-6970Y-41430D02*
D03*
X-4430D02*
D03*
Y-43970D02*
D03*
X-6970D02*
D03*
X-4430Y-46510D02*
D03*
X-6970D02*
D03*
X-4430Y-49050D02*
D03*
X-6970D02*
D03*
Y-51590D02*
D03*
Y-38890D02*
D03*
Y-36350D02*
D03*
X-4430D02*
D03*
X-6970Y-33810D02*
D03*
X-4430D02*
D03*
X-6970Y-31270D02*
D03*
X-4430D02*
D03*
Y-28730D02*
D03*
Y-38890D02*
D03*
X-38730Y-10950D02*
D03*
X-41270D02*
D03*
X-47970Y-21110D02*
D03*
Y-18570D02*
D03*
Y-16030D02*
D03*
Y-13490D02*
D03*
X-55570Y-41430D02*
D03*
Y-51590D02*
D03*
Y-49050D02*
D03*
X-53030D02*
D03*
X-55570Y-46510D02*
D03*
X-53030D02*
D03*
X-55570Y-43970D02*
D03*
X-53030D02*
D03*
Y-41430D02*
D03*
Y-28730D02*
D03*
Y-31270D02*
D03*
X-55570D02*
D03*
X-53030Y-33810D02*
D03*
X-55570D02*
D03*
X-53030Y-36350D02*
D03*
X-55570D02*
D03*
Y-38890D02*
D03*
X-53030D02*
D03*
X-55570Y-28730D02*
D03*
X-28730Y-55570D02*
D03*
X-18570D02*
D03*
X-21110D02*
D03*
Y-53030D02*
D03*
X-23650Y-55570D02*
D03*
Y-53030D02*
D03*
X-26190Y-55570D02*
D03*
Y-53030D02*
D03*
X-28730D02*
D03*
X-41430D02*
D03*
X-38890D02*
D03*
Y-55570D02*
D03*
X-36350Y-53030D02*
D03*
Y-55570D02*
D03*
X-33810Y-53030D02*
D03*
Y-55570D02*
D03*
X-31270D02*
D03*
Y-53030D02*
D03*
X-41430Y-55570D02*
D03*
X-47950Y-46510D02*
D03*
X-6970Y-16030D02*
D03*
X-4430D02*
D03*
Y-13490D02*
D03*
D44*
X-26190Y-45410D02*
D03*
X-18570Y-53030D02*
D03*
D45*
X-13375Y-4800D02*
D03*
X-17825D02*
D03*
D46*
X-19250Y-1675D02*
D03*
X-11950D02*
D03*
D47*
X-2350Y-2350D02*
D03*
X-57650D02*
D03*
X-2350Y-57650D02*
D03*
X-57650D02*
D03*
D48*
X-36800Y-42000D02*
D03*
X-24300Y-44300D02*
D03*
X-27900Y-43300D02*
D03*
X-16825Y-37375D02*
D03*
X-1600Y-11950D02*
D03*
X-40342Y-46042D02*
D03*
X-41067Y-46717D02*
D03*
X-14700Y-35900D02*
D03*
X-39000Y-32125D02*
D03*
X-36500Y-13400D02*
D03*
X-12500Y-24600D02*
D03*
X-16800Y-44400D02*
D03*
X-15100Y-47500D02*
D03*
X-13200Y-50900D02*
D03*
X-15500Y-51800D02*
D03*
X-43300Y-27600D02*
D03*
X-41800Y-31375D02*
D03*
X-42650D02*
D03*
X-43602Y-31377D02*
D03*
X-44400Y-31400D02*
D03*
X-22200Y-36100D02*
D03*
Y-36800D02*
D03*
X-16300Y-51800D02*
D03*
X-14900Y-48200D02*
D03*
X-18900Y-18100D02*
D03*
X-23600Y-43800D02*
D03*
X-13100Y-38613D02*
D03*
X-50650Y-23800D02*
D03*
X-2950Y-40200D02*
D03*
X-12900Y-44600D02*
D03*
X-5700Y-53030D02*
D03*
X-31300Y-57800D02*
D03*
X-23075Y-14200D02*
D03*
X-19600Y-13200D02*
D03*
X-39942Y-45242D02*
D03*
X-14800Y-49237D02*
D03*
X-16850Y-52450D02*
D03*
X-17725Y-35500D02*
D03*
X-17050Y-36275D02*
D03*
X-43602Y-28251D02*
D03*
X-17225Y-24725D02*
D03*
X-14125Y-25550D02*
D03*
X-20350Y-12650D02*
D03*
X-22050Y-13450D02*
D03*
X-22100Y-15100D02*
D03*
X-24500Y-14375D02*
D03*
X-14000Y-15000D02*
D03*
Y-15800D02*
D03*
X-29175Y-21750D02*
D03*
X-29350Y-16075D02*
D03*
X-15475Y-16400D02*
D03*
X-15750Y-15050D02*
D03*
X-25025Y-31250D02*
D03*
X-14150Y-24425D02*
D03*
X-19625Y-12125D02*
D03*
X-13875Y-34500D02*
D03*
X-36625Y-26000D02*
D03*
X-38825Y-34025D02*
D03*
X-24050Y-11525D02*
D03*
X-37600Y-33950D02*
D03*
X-41225Y-37875D02*
D03*
X-48525Y-30825D02*
D03*
X-47275D02*
D03*
X-30900Y-12000D02*
D03*
X-20375Y-34325D02*
D03*
X-20325Y-35100D02*
D03*
X-21176Y-34977D02*
D03*
X-23751Y-34852D02*
D03*
X-23875Y-33975D02*
D03*
X-20425Y-31250D02*
D03*
X-21575D02*
D03*
X-22175Y-34775D02*
D03*
X-17500Y-37000D02*
D03*
X-30150Y-10650D02*
D03*
X-22275Y-37550D02*
D03*
X-25525Y-40000D02*
D03*
X-30526Y-31276D02*
D03*
X-32450Y-31575D02*
D03*
X-29625Y-31275D02*
D03*
X-42650Y-27900D02*
D03*
X-41800Y-29500D02*
D03*
X-57225Y-26950D02*
D03*
Y-37325D02*
D03*
X-16475Y-49750D02*
D03*
X-32525Y-57500D02*
D03*
X-9400Y-41375D02*
D03*
X-13750Y-50350D02*
D03*
X-33225Y-32450D02*
D03*
X-37575Y-31725D02*
D03*
X-36875Y-32300D02*
D03*
X-37600Y-32775D02*
D03*
X-33350Y-42700D02*
D03*
X-33127Y-41673D02*
D03*
X-15675Y-50075D02*
D03*
X-32300Y-41775D02*
D03*
X-34275Y-39725D02*
D03*
X-34123Y-42700D02*
D03*
X-39800Y-36400D02*
D03*
X-36300Y-36050D02*
D03*
X-34300Y-36600D02*
D03*
X-25100Y-34500D02*
D03*
X-25700Y-36650D02*
D03*
Y-35050D02*
D03*
Y-33950D02*
D03*
X-8000Y-25350D02*
D03*
X-4900D02*
D03*
X-10375Y-11500D02*
D03*
X-9425Y-14100D02*
D03*
X-10900Y-12100D02*
D03*
X-12900Y-12125D02*
D03*
X-37375Y-19325D02*
D03*
X-36225D02*
D03*
X-23875Y-31250D02*
D03*
X-22725D02*
D03*
X-16700Y-6200D02*
D03*
X-11125Y-6075D02*
D03*
Y-6725D02*
D03*
X-11875Y-9775D02*
D03*
X-18725Y-8825D02*
D03*
X-18400Y-47375D02*
D03*
X-17275Y-39500D02*
D03*
X-20875Y-40375D02*
D03*
X-26525Y-24825D02*
D03*
X-28800Y-12475D02*
D03*
Y-10975D02*
D03*
X-40500Y-1500D02*
D03*
X-31525Y-21425D02*
D03*
X-32975Y-18900D02*
D03*
X-26800Y-15100D02*
D03*
X-24900Y-24825D02*
D03*
X-30875Y-23175D02*
D03*
X-16125Y-20275D02*
D03*
X-26925Y-7975D02*
D03*
Y-6750D02*
D03*
X-27425Y-4225D02*
D03*
X-30075Y-1525D02*
D03*
X-24925Y-1500D02*
D03*
X-34125Y-2150D02*
D03*
X-7600Y-1518D02*
D03*
X-4900Y-26500D02*
D03*
X-32400Y-4350D02*
D03*
Y-5950D02*
D03*
X-33300Y-5150D02*
D03*
X-3875Y-7025D02*
D03*
X-4550Y-9800D02*
D03*
X-17800Y-19100D02*
D03*
X-33900Y-20000D02*
D03*
X-29125Y-1425D02*
D03*
X-22975Y-8975D02*
D03*
X-36062Y-8538D02*
D03*
X-10725Y-37725D02*
D03*
X-10725Y-36575D02*
D03*
X-27775Y-11725D02*
D03*
X-27300Y-42600D02*
D03*
X-28500Y-31250D02*
D03*
X-27300D02*
D03*
X-34300Y-39000D02*
D03*
Y-34450D02*
D03*
Y-35550D02*
D03*
X-35275Y-33900D02*
D03*
Y-35000D02*
D03*
X-35375Y-31225D02*
D03*
X-49800Y-37550D02*
D03*
X-48975D02*
D03*
X-47650Y-38325D02*
D03*
X-44750D02*
D03*
Y-34850D02*
D03*
X-49400Y-38200D02*
D03*
X-16575Y-45175D02*
D03*
X-21100Y-21425D02*
D03*
X-18525Y-21425D02*
D03*
X-21100Y-22175D02*
D03*
X-9250Y-30450D02*
D03*
X-11225Y-27575D02*
D03*
X-8300Y-27175D02*
D03*
X-11275Y-26670D02*
D03*
X-17675Y-28425D02*
D03*
X-14825Y-29950D02*
D03*
X-14975Y-29250D02*
D03*
X-14650Y-28075D02*
D03*
X-41942Y-47042D02*
D03*
X-55350Y-25400D02*
D03*
X-36300Y-39800D02*
D03*
X-54080Y-17480D02*
D03*
Y-12480D02*
D03*
Y-7480D02*
D03*
X-49080Y-52480D02*
D03*
Y-7480D02*
D03*
X-44080Y-47480D02*
D03*
Y-22480D02*
D03*
Y-12480D02*
D03*
Y-7480D02*
D03*
X-39080Y-22480D02*
D03*
X-34080D02*
D03*
X-9080Y-7480D02*
D03*
D49*
X-19100Y-17400D02*
D03*
X-26975Y-18825D02*
D03*
X-26325Y-20125D02*
D03*
X-25675D02*
D03*
X-25025Y-20125D02*
D03*
Y-19475D02*
D03*
Y-20775D02*
D03*
X-25025Y-21425D02*
D03*
X-24375Y-20775D02*
D03*
X-23725Y-18825D02*
D03*
X-23725Y-20125D02*
D03*
X-23525Y-17250D02*
D03*
Y-16625D02*
D03*
X-23075Y-18825D02*
D03*
X-25025Y-18175D02*
D03*
Y-22725D02*
D03*
X-25675Y-18175D02*
D03*
X-19600Y-18200D02*
D03*
X-26325Y-22725D02*
D03*
X-23075Y-22075D02*
D03*
X-23725Y-20775D02*
D03*
X-23075Y-21425D02*
D03*
D63*
X-13100Y-22150D02*
D03*
Y-18350D02*
D03*
X-15400D02*
D03*
Y-22150D02*
D03*
D64*
X-27800Y-14775D02*
D03*
X-17475Y-13500D02*
D03*
X-35560Y-26670D02*
D03*
X-34290D02*
D03*
X-33020D02*
D03*
X-31750D02*
D03*
X-15925Y-10500D02*
D03*
X-26670Y-27940D02*
D03*
X-18900Y-19650D02*
D03*
X-4100Y-12025D02*
D03*
X-2575Y-6550D02*
D03*
X-28800Y-2225D02*
D03*
X-24130Y-26670D02*
D03*
X-37575Y-13200D02*
D03*
X-30480Y-26670D02*
D03*
X-29210D02*
D03*
X-13970Y-11430D02*
D03*
X-17780Y-16510D02*
D03*
X-25400Y-27940D02*
D03*
X-27940Y-26670D02*
D03*
X-22860D02*
D03*
X-21590D02*
D03*
X-20320D02*
D03*
X-19050D02*
D03*
X-17780D02*
D03*
X-16510D02*
D03*
X-15240D02*
D03*
X-20320Y-27940D02*
D03*
X-13300Y-24975D02*
D03*
X-27940Y-27940D02*
D03*
X-13275Y-7400D02*
D03*
X-1200Y-7250D02*
D03*
X-6350Y-8750D02*
D03*
Y-10050D02*
D03*
X-2800Y-12250D02*
D03*
X-29850Y-20250D02*
D03*
X-33425Y-17025D02*
D03*
D65*
X-33000Y-1500D02*
D03*
X-38600Y-7500D02*
D03*
X-26000Y-1500D02*
D03*
X-41600D02*
D03*
X-38600D02*
D03*
X-41600Y-3500D02*
D03*
Y-5500D02*
D03*
X-38600D02*
D03*
X-41600Y-7500D02*
D03*
X-38600Y-3500D02*
D03*
D66*
X-27425Y-5400D02*
D03*
D67*
X-26025Y-4650D02*
D03*
Y-5150D02*
D03*
Y-6150D02*
D03*
Y-5650D02*
D03*
X-28825D02*
D03*
Y-6150D02*
D03*
Y-5150D02*
D03*
Y-4650D02*
D03*
D68*
X-27950Y-17850D02*
D03*
X-27300D02*
D03*
X-26650D02*
D03*
X-26000D02*
D03*
X-25350D02*
D03*
X-24700D02*
D03*
X-24050D02*
D03*
X-23400D02*
D03*
X-22750D02*
D03*
X-22100D02*
D03*
X-27950Y-18500D02*
D03*
X-27300D02*
D03*
X-26650D02*
D03*
X-26000D02*
D03*
X-25350D02*
D03*
X-24700D02*
D03*
X-24050D02*
D03*
X-23400D02*
D03*
X-22750D02*
D03*
X-22100D02*
D03*
X-27950Y-19150D02*
D03*
X-27300D02*
D03*
X-26650D02*
D03*
X-26000D02*
D03*
X-25350D02*
D03*
X-24700D02*
D03*
X-24050D02*
D03*
X-23400D02*
D03*
X-22750D02*
D03*
X-27950Y-19800D02*
D03*
X-27300D02*
D03*
X-26650D02*
D03*
X-26000D02*
D03*
X-25350D02*
D03*
X-24700D02*
D03*
X-24050D02*
D03*
X-23400D02*
D03*
X-22750D02*
D03*
X-27950Y-20450D02*
D03*
X-27300D02*
D03*
X-26650D02*
D03*
X-26000D02*
D03*
X-25350D02*
D03*
X-24700D02*
D03*
X-24050D02*
D03*
X-23400D02*
D03*
X-22750D02*
D03*
X-27950Y-21750D02*
D03*
X-27300D02*
D03*
X-26650D02*
D03*
X-26000D02*
D03*
X-25350D02*
D03*
X-24700D02*
D03*
X-24050D02*
D03*
X-23400D02*
D03*
X-22750D02*
D03*
X-27950Y-22400D02*
D03*
X-27300D02*
D03*
X-26650D02*
D03*
X-26000D02*
D03*
X-25350D02*
D03*
X-24700D02*
D03*
X-24050D02*
D03*
X-23400D02*
D03*
X-22750D02*
D03*
X-27950Y-23050D02*
D03*
X-27300D02*
D03*
X-26650D02*
D03*
X-26000D02*
D03*
X-25350D02*
D03*
X-24700D02*
D03*
X-24050D02*
D03*
X-23400D02*
D03*
X-22750D02*
D03*
X-27950Y-23700D02*
D03*
X-27300D02*
D03*
X-26650D02*
D03*
X-26000D02*
D03*
X-25350D02*
D03*
X-24700D02*
D03*
X-24050D02*
D03*
X-23400D02*
D03*
X-22750D02*
D03*
X-27950Y-21100D02*
D03*
X-27300D02*
D03*
X-26650D02*
D03*
X-26000D02*
D03*
X-25350D02*
D03*
X-24700D02*
D03*
X-24050D02*
D03*
X-23400D02*
D03*
X-22750D02*
D03*
X-22100D02*
D03*
Y-19150D02*
D03*
Y-19800D02*
D03*
Y-20450D02*
D03*
Y-21750D02*
D03*
Y-22400D02*
D03*
Y-23050D02*
D03*
Y-23700D02*
D03*
D69*
X-11760Y-13500D02*
D03*
X-12740Y-13500D02*
D03*
X-16240Y-13500D02*
D03*
X-15260Y-13500D02*
D03*
D70*
X-12900Y-14375D02*
D03*
X-12250D02*
D03*
X-11600D02*
D03*
Y-12625D02*
D03*
X-12250D02*
D03*
X-12900D02*
D03*
X-15100D02*
D03*
X-15750D02*
D03*
X-16400D02*
D03*
Y-14375D02*
D03*
X-15750D02*
D03*
X-15100D02*
D03*
D71*
X-3875Y-7875D02*
D03*
X-3225D02*
D03*
X-2575D02*
D03*
Y-9725D02*
D03*
X-3225D02*
D03*
X-3875D02*
D03*
D72*
X-24425Y-7074D02*
D03*
Y-5676D02*
D03*
D73*
X-28825Y-7975D02*
D03*
X-25875D02*
D03*
M02*
